<?xml version="1.0" standalone="no"?>
<!DOCTYPE svg PUBLIC "-//W3C//DTD SVG 20010904//EN"
 "http://www.w3.org/TR/2001/REC-SVG-20010904/DTD/svg10.dtd">
<svg version="1.0" xmlns="http://www.w3.org/2000/svg"
 width="300.000000pt" height="183.000000pt" viewBox="0 0 300.000000 183.000000"
 preserveAspectRatio="xMidYMid meet">

<g transform="translate(0.000000,183.000000) scale(0.100000,-0.100000)"
fill="#000000" stroke="none">
<path d="M581 1724 c-23 -30 -28 -93 -9 -112 17 -17 43 -15 59 4 11 13 9 14
-13 9 -55 -14 -57 69 -2 94 37 16 74 -21 81 -81 7 -58 -10 -84 -74 -118 -91
-47 -101 -115 -32 -209 35 -49 35 -51 7 -52 -14 -1 -10 -4 12 -8 35 -6 35 -6
-22 -19 -32 -8 -58 -18 -58 -23 0 -28 187 -33 239 -5 23 12 30 20 21 26 -6 4
-8 10 -3 13 5 3 10 22 11 43 3 37 -19 74 -43 74 -23 0 -65 49 -65 75 0 37 35
69 60 55 25 -13 27 -57 3 -63 -15 -4 -15 -5 -2 -6 30 -2 42 24 27 56 -17 36
-50 41 -77 12 -40 -43 -15 -128 41 -143 33 -8 51 -41 38 -67 -10 -17 -19 -20
-68 -17 -54 3 -57 5 -99 56 -69 85 -57 135 48 197 46 28 61 59 56 123 -5 69
-32 106 -79 110 -29 2 -40 -2 -57 -24z m162 -481 c-13 -2 -33 -2 -45 0 -13 2
-3 4 22 4 25 0 35 -2 23 -4z"/>
<path d="M513 1235 l-33 -14 2 -93 2 -93 3 82 4 82 46 -21 c64 -28 196 -22
266 12 48 25 59 43 31 54 -23 9 -31 7 -14 -4 13 -8 12 -11 -5 -25 -61 -46
-214 -57 -286 -20 -34 18 -32 25 14 42 18 6 25 12 17 12 -8 0 -30 -6 -47 -14z"/>
<path d="M520 996 l0 -146 33 -20 c33 -21 82 -27 91 -11 3 5 -12 11 -33 15
-21 3 -44 13 -51 21 -12 14 -8 15 27 9 54 -8 63 10 13 25 -48 14 -61 31 -23
31 15 0 35 5 43 10 12 8 9 10 -13 10 -32 0 -67 16 -67 30 0 6 17 10 38 11 34
1 35 1 10 9 -48 14 -53 22 -22 35 l29 11 -33 7 c-38 8 -34 27 6 28 l27 1 -27
9 c-14 6 -29 17 -32 25 -5 12 1 14 29 8 23 -4 35 -2 35 5 0 6 -11 11 -24 11
-13 0 -31 3 -40 6 -14 5 -16 -11 -16 -140z"/>
<path d="M250 1111 c-125 -27 -189 -111 -190 -252 -1 -171 90 -259 266 -259
110 0 128 9 120 60 -5 29 -2 39 10 44 44 17 44 18 44 -224 l0 -230 -25 0 c-14
0 -25 -6 -25 -14 0 -18 112 -26 269 -19 87 4 121 3 121 -6 0 -6 7 -11 15 -11
8 0 15 5 15 10 0 6 20 10 45 10 33 0 45 4 45 15 0 8 -7 15 -15 15 -22 0 -18
26 12 81 30 56 36 55 77 -21 25 -46 28 -78 5 -65 -5 4 -9 -1 -9 -9 0 -14 17
-16 110 -16 l110 0 0 -60 c0 -53 -2 -60 -20 -60 -11 0 -20 -7 -20 -15 0 -12
18 -15 105 -15 84 0 105 3 105 14 0 8 -10 16 -22 18 -20 3 -23 10 -26 60 l-3
58 58 -6 c49 -4 64 -1 98 18 61 36 85 87 85 181 0 94 -17 138 -68 172 -31 21
-33 25 -16 30 55 17 90 44 103 82 20 55 8 108 -35 151 l-34 34 30 30 c53 53
37 144 -32 179 -31 16 -59 19 -163 19 l-125 0 0 -255 0 -255 -75 0 c-60 0 -75
-3 -75 -15 0 -8 7 -15 15 -15 20 0 19 -6 -11 -57 -29 -49 -37 -48 -69 13 -15
28 -17 38 -7 42 6 2 12 12 12 23 0 15 7 19 34 19 53 0 122 34 140 69 31 58 13
139 -40 180 l-28 22 27 22 c60 49 51 145 -18 184 -36 20 -54 23 -168 23 l-128
0 2 -257 c1 -255 1 -258 -20 -261 -26 -4 -28 -22 -2 -22 13 0 32 -25 64 -81
l46 -81 -47 -67 -47 -66 -3 38 c-4 50 -32 52 -32 2 0 -31 -4 -37 -37 -51 -21
-8 -63 -16 -93 -17 l-55 -2 0 120 0 120 33 3 c40 4 82 -21 82 -48 0 -11 5 -20
10 -20 6 0 10 28 10 65 0 61 -11 84 -24 50 -4 -11 -21 -15 -61 -15 l-55 0 0
90 c0 106 4 110 88 92 63 -13 92 -35 92 -69 0 -12 5 -23 10 -23 6 0 10 30 10
70 0 40 -4 70 -10 70 -5 0 -10 -4 -10 -10 0 -6 -67 -10 -180 -10 -156 0 -186
-3 -230 -20 -86 -34 -158 -22 -210 34 -21 24 -25 39 -28 104 -3 85 13 125 63
158 32 21 129 23 163 5 13 -7 25 -11 26 -9 2 2 6 22 9 46 5 38 3 44 -18 52
-35 13 -135 20 -175 11z m829 -82 c52 -18 66 -64 31 -99 -15 -15 -33 -20 -70
-20 l-50 0 0 58 c0 32 3 62 7 65 10 10 46 8 82 -4z m390 0 c38 -13 54 -39 45
-74 -8 -33 -32 -45 -88 -45 l-46 0 0 58 c0 32 3 62 7 65 10 10 46 8 82 -4z
m-357 -213 c10 -7 21 -27 24 -44 5 -24 1 -36 -19 -56 -21 -21 -36 -26 -77 -26
l-50 0 0 70 0 70 53 0 c28 0 60 -7 69 -14z m398 -13 c43 -55 1 -113 -81 -113
l-49 0 0 70 0 70 54 0 c47 0 57 -4 76 -27z m-104 -218 c-25 -19 -36 -19 -36 0
0 10 10 15 28 15 26 -1 26 -1 8 -15z m-156 -175 c0 -150 -1 -160 -19 -160 -12
0 -23 12 -32 33 -7 17 -31 60 -52 95 l-40 63 35 37 c19 20 42 49 51 65 10 15
26 27 37 27 19 0 20 -7 20 -160z m196 132 c24 -16 34 -55 34 -139 0 -71 -4
-95 -20 -121 -16 -27 -26 -33 -48 -30 l-27 3 -3 135 c-2 118 0 136 15 147 19
15 33 16 49 5z"/>
<path d="M852 989 c-2 -116 -4 -127 -25 -147 -63 -59 -191 -73 -275 -30 -39
20 -48 30 -53 59 l-6 34 -2 -41 c-1 -48 20 -72 87 -97 57 -23 120 -21 185 3
94 35 98 44 94 206 l-3 139 -2 -126z"/>
<path d="M1701 855 c-55 -165 -89 -255 -98 -255 -7 0 -13 -7 -13 -15 0 -8 9
-15 20 -15 19 0 20 -7 20 -160 0 -153 -1 -160 -20 -160 -11 0 -20 -7 -20 -15
0 -12 18 -15 105 -15 87 0 105 3 105 15 0 9 -9 15 -25 15 -25 0 -25 0 -25 93
0 105 11 156 40 182 19 17 20 17 20 -1 0 -31 28 -62 58 -66 26 -3 27 -5 29
-65 2 -88 39 -147 106 -172 37 -14 135 -14 176 0 24 9 35 8 47 -2 13 -10 17
-10 23 0 7 10 13 10 29 2 30 -16 162 -13 192 4 33 19 50 19 50 0 0 -18 17 -20
22 -4 3 9 9 9 25 0 33 -17 156 -14 196 5 73 35 90 127 36 189 -18 20 -46 43
-63 52 -72 36 -96 82 -55 103 39 21 109 -12 109 -52 0 -10 7 -18 15 -18 12 0
15 13 15 55 0 50 -10 69 -24 46 -7 -10 -46 -3 -46 9 0 4 10 10 23 14 44 11
104 64 127 111 17 35 23 66 24 119 1 85 -15 135 -57 183 -54 61 -93 73 -249
73 l-138 0 0 -231 c0 -214 -1 -230 -17 -227 -10 2 -19 12 -21 23 -7 47 -37
132 -55 158 -10 16 -18 29 -16 31 2 1 16 10 31 19 53 33 62 141 15 185 -37 35
-73 42 -203 42 l-124 0 0 -231 c1 -127 -1 -233 -3 -236 -7 -6 -32 64 -103 284
l-59 183 -70 0 -71 0 -83 -255z m621 145 c23 -28 23 -52 0 -80 -22 -27 -99
-40 -113 -19 -11 17 -12 113 -1 123 15 16 96 -1 114 -24z m418 2 c51 -27 83
-92 77 -159 -10 -98 -64 -146 -166 -147 l-66 -1 -3 163 -2 162 62 0 c42 0 75
-6 98 -18z m-860 -78 c28 -96 29 -94 -35 -94 -63 0 -64 2 -39 83 36 120 43
121 74 11z m398 -129 c14 -11 31 -45 48 -101 15 -47 25 -86 23 -87 -2 -1 -21
-11 -41 -21 -21 -10 -43 -32 -50 -47 -15 -34 -24 -36 -33 -9 -3 10 -19 30 -36
44 -34 29 -36 36 -9 36 19 0 20 7 20 93 0 52 3 97 7 100 11 12 48 8 71 -8z
m-347 -67 c7 -13 17 -43 24 -68 8 -34 16 -46 33 -48 12 -2 22 -6 22 -10 -1
-12 -74 -54 -78 -44 -19 57 -93 64 -146 13 -40 -39 -46 -39 -46 -1 0 17 -4 30
-9 30 -11 0 30 132 44 142 5 4 40 8 77 8 60 0 69 -3 79 -22z m699 -128 c0 -5
-7 -10 -16 -10 -8 0 -29 -13 -46 -30 -16 -16 -31 -30 -34 -30 -2 0 -4 18 -4
40 l0 40 50 0 c28 0 50 -4 50 -10z m-520 -42 c19 -20 22 -34 24 -113 1 -29 -1
-30 -52 -33 l-52 -3 0 53 c0 35 7 64 20 86 23 38 32 39 60 10z m372 -5 c10 -9
18 -24 18 -33 0 -10 8 -20 19 -23 12 -3 21 -17 25 -41 7 -37 16 -45 116 -109
45 -29 62 -73 35 -93 -29 -21 -76 -17 -118 11 -31 22 -37 31 -37 61 0 63 -36
110 -118 155 -50 27 -66 64 -36 86 23 17 70 10 96 -14z m-111 -209 c27 -14 49
-42 49 -63 0 -5 -7 -17 -16 -25 -38 -39 -146 2 -152 57 -5 38 -20 34 -28 -7
-5 -28 -13 -37 -45 -50 -56 -23 -92 -20 -118 8 -23 25 -46 100 -36 117 4 5 53
9 109 9 96 0 104 1 109 21 5 19 8 18 53 -16 25 -20 59 -42 75 -51z"/>
</g>
</svg>
