<?xml version="1.0" standalone="no"?>
<!DOCTYPE svg PUBLIC "-//W3C//DTD SVG 20010904//EN"
 "http://www.w3.org/TR/2001/REC-SVG-20010904/DTD/svg10.dtd">
<svg version="1.0" xmlns="http://www.w3.org/2000/svg"
 width="333.000000pt" height="79.000000pt" viewBox="0 0 333.000000 79.000000"
 preserveAspectRatio="xMidYMid meet">

<g transform="translate(0.000000,79.000000) scale(0.100000,-0.100000)"
fill="#000000" stroke="none">
<path d="M311 774 c-244 -50 -379 -326 -269 -552 36 -74 132 -162 208 -192 86
-33 207 -33 292 -1 70 27 158 105 199 175 34 61 35 66 9 66 -13 0 -27 -14 -40
-39 -11 -22 -23 -42 -28 -45 -5 -3 -49 117 -98 267 -50 150 -87 273 -83 275
17 7 97 -43 148 -92 l53 -51 -7 35 c-9 42 -24 61 -84 101 -84 56 -193 75 -300
53z m139 -133 c22 -62 40 -127 40 -145 0 -60 -53 -103 -112 -91 -34 8 -58 49
-58 99 0 32 78 261 86 253 2 -1 21 -54 44 -116z m-122 91 c-1 -5 -48 -131
-103 -280 -55 -150 -103 -272 -106 -272 -14 0 -51 71 -65 123 -19 72 -17 124
6 200 26 85 95 163 182 206 60 31 93 39 86 23z m197 -512 l18 -60 60 0 60 0
-23 -25 c-14 -14 -54 -40 -89 -58 -60 -29 -74 -32 -156 -32 -101 1 -154 19
-228 77 l-41 33 64 5 63 5 20 58 19 57 107 0 108 0 18 -60z"/>
<path d="M460 498 c0 -24 -5 -49 -12 -56 -8 -8 -8 -12 -1 -12 23 0 43 93 23
105 -6 4 -10 -11 -10 -37z"/>
<path d="M720 620 c0 -62 -3 -82 -15 -86 -8 -4 -15 -13 -15 -21 0 -10 9 -13
33 -11 l32 3 3 98 c3 92 2 97 -18 97 -18 0 -20 -6 -20 -80z"/>
<path d="M790 685 c0 -10 10 -15 30 -15 l30 0 0 -65 c0 -58 2 -65 20 -65 18 0
20 7 20 65 l0 65 30 0 c20 0 30 5 30 15 0 12 -16 15 -80 15 -64 0 -80 -3 -80
-15z"/>
<path d="M770 413 l-70 -108 52 -3 c39 -2 55 1 64 12 15 21 84 22 84 1 0 -11
12 -15 50 -15 l50 0 0 110 0 110 -80 0 -81 0 -69 -107z m140 7 c0 -36 -2 -40
-25 -40 -14 0 -25 3 -25 6 0 9 41 74 46 74 2 0 4 -18 4 -40z"/>
<path d="M1087 513 c-6 -9 -57 -195 -57 -205 0 -5 42 -8 94 -8 l94 0 11 31 c6
18 11 34 11 35 0 2 -20 4 -45 4 -51 0 -52 2 -30 74 22 73 21 76 -29 76 -25 0
-47 -3 -49 -7z"/>
<path d="M1312 503 c-6 -10 -19 -52 -30 -93 -11 -41 -24 -83 -27 -92 -7 -17 2
-18 109 -18 112 0 117 1 125 23 8 21 6 22 -55 25 -48 2 -64 7 -64 17 0 12 15
15 69 15 60 0 69 2 74 20 5 18 0 20 -59 20 -50 0 -64 3 -64 15 0 12 14 15 69
15 63 0 69 2 75 23 12 47 12 47 -104 47 -94 0 -111 -2 -118 -17z"/>
<path d="M1575 503 c3 -10 11 -37 18 -61 l11 -42 -49 -50 -49 -50 61 0 c54 0
64 3 81 25 11 14 22 25 25 25 3 0 8 -11 11 -25 6 -22 11 -25 56 -25 28 0 50 2
50 4 0 2 -7 23 -15 46 -8 23 -15 46 -15 50 0 5 23 34 51 64 l51 56 -59 0 c-55
0 -61 -2 -83 -32 l-24 -32 -13 32 c-12 30 -16 32 -64 32 -45 0 -50 -2 -44 -17z"/>
<path d="M1938 503 c-18 -20 -128 -191 -128 -198 0 -3 24 -5 54 -5 39 0 55 4
60 15 3 10 19 15 46 15 29 0 40 -4 40 -15 0 -11 12 -15 50 -15 l51 0 -3 108
-3 107 -76 3 c-62 2 -78 0 -91 -15z m69 -120 c-3 -2 -15 -3 -26 -1 -20 3 -20
3 2 38 l22 35 3 -33 c2 -19 1 -36 -1 -39z"/>
<path d="M2192 503 c-5 -10 -12 -29 -15 -43 -4 -14 -15 -55 -26 -92 l-20 -68
49 0 48 0 12 50 c7 28 15 50 19 50 4 0 12 -21 17 -47 l9 -48 57 -3 56 -3 15
53 c9 29 21 72 27 96 6 24 14 50 17 58 5 12 -3 15 -43 12 l-48 -3 -16 -52
c-21 -70 -26 -72 -35 -17 -10 72 -12 74 -66 74 -36 0 -51 -4 -57 -17z"/>
<path d="M2506 509 c-11 -31 -56 -194 -56 -201 0 -4 50 -8 111 -8 108 0 111 1
139 28 18 19 32 48 41 86 12 54 11 58 -9 79 -19 18 -36 22 -122 25 -78 3 -101
1 -104 -9z m118 -65 c19 -7 21 -55 4 -72 -7 -7 -25 -12 -41 -12 -25 0 -27 3
-21 23 21 69 25 74 58 61z"/>
<path d="M2810 517 c0 -1 -13 -49 -30 -107 -16 -58 -30 -106 -30 -108 0 -1 53
-1 118 0 112 3 117 4 120 25 3 20 -1 22 -60 25 -86 4 -80 22 10 26 63 3 72 5
72 22 0 16 -9 19 -62 22 -86 4 -79 22 10 26 48 2 72 7 72 15 0 7 3 22 6 35 6
22 6 22 -110 22 -64 0 -116 -1 -116 -3z"/>
<path d="M3085 508 c-9 -31 -55 -197 -55 -202 0 -3 23 -6 50 -6 41 0 50 3 50
18 0 9 4 24 9 31 8 12 13 8 28 -17 17 -30 21 -32 76 -32 l58 0 -31 45 c-29 42
-30 45 -10 45 11 0 32 11 46 25 32 32 29 74 -6 92 -34 17 -209 18 -215 1z
m143 -75 c-2 -12 -14 -19 -36 -21 -27 -3 -32 0 -32 17 0 17 6 21 36 21 28 0
35 -3 32 -17z"/>
<path d="M2647 263 c-14 -25 -17 -71 -4 -76 25 -9 65 5 70 24 4 16 1 19 -14
14 -17 -6 -19 -3 -13 19 5 22 3 26 -14 26 -12 0 -23 -3 -25 -7z m33 -13 c0 -5
-4 -10 -10 -10 -5 0 -10 5 -10 10 0 6 5 10 10 10 6 0 10 -4 10 -10z m-15 -40
c3 -5 1 -10 -4 -10 -6 0 -11 5 -11 10 0 6 2 10 4 10 3 0 8 -4 11 -10z"/>
<path d="M2782 258 c-14 -14 2 -38 24 -38 27 0 14 -20 -13 -21 -28 0 -28 0 -5
-10 29 -11 64 5 56 26 -3 8 -14 17 -25 20 -10 4 -19 11 -19 16 0 6 9 7 20 4
11 -4 20 -2 20 4 0 15 -43 14 -58 -1z"/>
<path d="M3110 230 c0 -22 5 -40 10 -40 6 0 10 18 10 40 0 22 -4 40 -10 40 -5
0 -10 -18 -10 -40z"/>
<path d="M2867 234 c-13 -13 -7 -42 9 -48 22 -8 56 12 52 32 -3 17 -48 29 -61
16z m41 -22 c2 -7 -3 -12 -12 -12 -9 0 -16 7 -16 16 0 17 22 14 28 -4z"/>
<path d="M2940 216 c0 -31 15 -35 23 -6 3 11 10 20 16 20 6 0 11 -9 11 -20 0
-11 5 -20 11 -20 6 0 9 10 7 23 -2 17 -11 23 -35 25 -30 3 -33 1 -33 -22z"/>
<path d="M3150 215 c0 -14 5 -25 10 -25 6 0 10 9 10 20 0 11 5 20 11 20 6 0
13 -9 16 -20 8 -29 21 -25 15 5 -3 20 -10 25 -33 25 -24 0 -29 -4 -29 -25z"/>
<path d="M3237 233 c-13 -13 -7 -32 14 -44 15 -8 24 -8 32 0 8 8 5 11 -11 11
-29 0 -29 27 1 33 20 4 20 4 -4 6 -14 0 -29 -2 -32 -6z"/>
<path d="M790 220 c0 -7 309 -10 906 -10 601 0 903 3 899 10 -9 14 -1805 14
-1805 0z"/>
<path d="M3026 185 c4 -8 10 -12 15 -9 14 8 10 24 -6 24 -9 0 -12 -6 -9 -15z"/>
<path d="M3305 190 c3 -5 8 -10 11 -10 2 0 4 5 4 10 0 6 -5 10 -11 10 -5 0 -7
-4 -4 -10z"/>
</g>
</svg>
