<?xml version="1.0" standalone="no"?>
<!DOCTYPE svg PUBLIC "-//W3C//DTD SVG 20010904//EN"
 "http://www.w3.org/TR/2001/REC-SVG-20010904/DTD/svg10.dtd">
<svg version="1.0" xmlns="http://www.w3.org/2000/svg"
 width="1238.000000pt" height="894.000000pt" viewBox="0 0 1238.000000 894.000000"
 preserveAspectRatio="xMidYMid meet">

<g transform="translate(0.000000,894.000000) scale(0.100000,-0.100000)"
fill="#000000" stroke="none">
<path d="M5980 7900 c-514 -30 -1010 -172 -1452 -415 -650 -358 -1173 -922
-1479 -1597 -92 -202 -164 -413 -214 -625 l-12 -53 441 0 441 0 37 109 c199
585 630 1098 1185 1410 250 140 568 249 875 298 88 14 171 18 378 18 207 0
290 -4 378 -18 307 -49 625 -158 875 -298 556 -312 986 -825 1185 -1410 l37
-109 441 0 441 0 -18 78 c-212 908 -845 1733 -1687 2197 -444 244 -938 385
-1462 415 -189 11 -203 11 -390 0z m184 -287 c7 -64 1 -76 -40 -71 -25 3 -29
8 -32 36 -3 25 -7 32 -19 28 -8 -3 -30 -6 -49 -6 -34 0 -34 0 -34 -47 0 -27 3
-72 6 -100 7 -52 7 -53 40 -53 31 0 34 -3 34 -30 0 -35 -4 -36 -141 -45 l-97
-6 -6 26 c-9 35 -1 45 36 45 l31 0 -7 61 c-3 34 -6 79 -6 100 0 42 -10 47 -78
33 -26 -5 -31 -12 -34 -38 -3 -27 -7 -31 -34 -34 l-31 -3 -6 63 c-3 34 -5 64
-4 65 3 3 357 30 413 32 l51 1 7 -57z m367 31 c11 -3 14 -13 11 -35 -4 -26 -8
-30 -28 -25 -12 3 -25 3 -27 -1 -3 -5 -8 -49 -12 -100 l-7 -92 26 -7 c21 -5
26 -12 26 -35 0 -33 0 -33 -137 -22 l-83 6 0 33 c0 31 3 34 29 34 28 0 28 1
34 68 12 121 10 132 -18 132 -21 0 -25 5 -25 31 l0 31 98 -7 c53 -4 104 -9
113 -11z m327 -55 c49 -10 53 -13 50 -37 -2 -22 -8 -27 -32 -27 -29 -1 -30 -3
-53 -94 -13 -51 -22 -95 -20 -97 1 -2 40 -12 85 -22 l83 -20 6 30 c5 27 9 29
36 24 17 -3 33 -8 35 -11 3 -2 -1 -32 -8 -65 -11 -53 -15 -59 -34 -55 -141 33
-364 86 -373 90 -8 2 -9 13 -4 32 6 22 13 28 36 28 27 0 28 3 50 92 12 51 20
95 17 98 -3 3 -14 5 -24 5 -18 0 -24 23 -12 53 5 13 12 13 57 1 29 -7 76 -19
105 -25z m-1722 -155 c14 -31 24 -58 22 -59 -10 -8 -49 -25 -58 -25 -6 0 -15
11 -20 25 -5 14 -14 25 -19 25 -5 0 -40 -13 -78 -29 -58 -26 -68 -33 -65 -53
4 -38 17 -41 72 -17 43 19 53 20 61 8 19 -30 9 -47 -41 -68 -27 -12 -50 -23
-50 -26 0 -2 5 -16 12 -30 14 -30 23 -29 112 10 44 20 57 30 53 43 -2 9 -6 23
-8 30 -2 7 11 19 28 27 l33 14 19 -45 c35 -77 43 -69 -157 -155 -101 -44 -187
-79 -191 -79 -4 0 -12 14 -18 30 -6 17 -8 30 -4 30 4 0 15 6 24 13 16 11 15
18 -19 97 -20 47 -38 87 -40 89 -2 2 -15 -1 -28 -7 -21 -9 -25 -7 -35 15 -7
14 -9 28 -6 32 7 7 356 159 368 160 4 1 19 -24 33 -55z m2260 -15 c49 -23 90
-42 92 -44 7 -7 -23 -55 -32 -51 -44 18 -45 18 -59 -16 -8 -18 -27 -59 -41
-91 l-26 -58 77 -35 c71 -32 79 -34 90 -18 7 9 14 21 15 26 2 5 18 3 36 -3 27
-9 32 -15 26 -33 -10 -33 -44 -96 -51 -96 -5 0 -361 159 -371 166 -2 1 4 16
13 33 13 26 19 30 35 21 28 -15 28 -15 56 48 60 131 57 121 29 132 -22 8 -24
12 -13 35 6 14 17 25 23 25 7 0 52 -18 101 -41z m-2809 -240 c-32 -18 -44 -38
-56 -94 -16 -69 -15 -70 81 -79 54 -5 74 -3 91 9 28 20 32 19 51 -10 16 -24
15 -25 -42 -63 -61 -41 -65 -41 -193 -18 -21 4 -28 0 -32 -14 -6 -24 9 -36 27
-21 11 9 18 5 34 -16 l20 -27 -82 -58 c-44 -31 -84 -57 -88 -58 -4 0 -15 11
-24 25 -15 24 -15 26 5 42 l21 18 -55 83 c-55 81 -56 82 -79 67 -22 -15 -24
-14 -40 10 l-16 25 86 57 86 57 19 -23 c18 -22 18 -24 2 -37 -16 -11 -17 -15
-3 -38 23 -38 33 -32 47 30 11 49 11 59 -2 74 -8 9 -15 20 -15 23 0 4 30 27
67 51 l66 45 20 -26 c18 -23 19 -26 4 -34z m3398 -88 c83 -57 154 -108 159
-112 9 -8 -52 -108 -65 -109 -4 0 -18 9 -33 21 -24 19 -25 22 -11 42 8 12 15
25 15 28 0 4 -30 29 -67 55 l-66 47 -19 -22 c-10 -13 -18 -26 -18 -30 0 -5 37
-33 83 -63 7 -4 4 -16 -7 -32 l-17 -26 -44 30 c-53 36 -58 37 -79 6 -15 -24
-15 -25 55 -76 74 -54 72 -53 98 -11 7 11 14 9 39 -9 l31 -23 -37 -53 -36 -52
-101 70 c-55 38 -130 91 -167 116 -38 26 -68 52 -68 58 0 6 9 19 19 28 16 15
22 15 40 5 11 -7 22 -11 24 -9 2 3 27 39 56 80 l52 75 -21 17 c-20 16 -20 18
-4 42 9 15 21 23 28 19 6 -4 79 -54 161 -112z m541 -497 c35 -84 -44 -140
-138 -99 -16 6 -18 1 -18 -46 0 -39 5 -58 20 -74 l20 -21 -25 -24 -25 -24 -45
50 -46 49 6 96 c4 56 3 99 -3 103 -5 3 -19 -6 -32 -19 -23 -24 -23 -25 -5 -45
18 -20 18 -21 -6 -45 l-24 -25 -80 80 c-78 78 -79 80 -60 100 22 24 33 25 55
5 14 -13 23 -7 85 55 65 66 68 71 52 87 -16 16 -15 18 6 41 l22 23 113 -115
c62 -63 119 -131 128 -152z m-4440 127 c136 -36 151 -38 167 -24 15 15 19 14
37 -2 11 -10 20 -23 20 -29 0 -14 -121 -136 -136 -136 -17 0 -47 37 -39 49 17
28 -25 6 -63 -32 -41 -42 -55 -71 -29 -61 7 2 23 -6 35 -19 l22 -23 -70 -69
c-68 -68 -70 -68 -90 -50 -25 23 -25 33 0 60 l20 22 -35 147 c-35 143 -35 148
-18 176 9 17 20 30 24 30 4 0 73 -18 155 -39z m4667 -387 c26 -41 47 -79 47
-84 0 -4 -13 -14 -30 -21 -23 -11 -31 -23 -39 -59 -10 -49 -4 -60 36 -60 12 0
29 -3 39 -7 12 -4 15 -2 12 8 -3 8 6 22 20 31 l26 17 53 -82 52 -82 -22 -17
c-29 -23 -31 -22 -47 7 -15 28 -19 30 -110 45 -36 6 -72 13 -81 16 -9 2 -26
-4 -39 -14 -20 -16 -21 -21 -11 -41 11 -19 10 -25 -6 -37 -10 -7 -23 -14 -30
-14 -10 0 -106 139 -119 173 -3 8 6 19 23 26 24 11 29 10 43 -9 16 -21 17 -21
37 -3 28 24 68 204 52 234 -8 17 -7 23 8 35 10 7 23 13 28 13 6 0 31 -34 58
-75z m-4880 -50 c46 -34 48 -36 33 -57 -8 -12 -59 -88 -113 -169 -54 -81 -101
-148 -104 -148 -4 0 -17 8 -29 18 -20 16 -21 21 -9 40 7 11 11 23 9 25 -3 2
-40 27 -82 56 -75 50 -78 51 -90 31 -15 -23 -26 -25 -52 -5 -18 14 -16 18 40
105 32 49 64 90 69 90 6 -1 19 -7 29 -15 17 -13 18 -16 3 -38 -16 -25 -16 -25
67 -80 l84 -56 47 71 48 72 -22 17 c-11 9 -21 20 -21 23 0 11 32 56 39 56 3 0
28 -16 54 -36z m-473 -644 c25 -25 26 -71 3 -98 -35 -40 -105 -29 -122 18 -11
33 -7 55 17 83 21 24 77 22 102 -3z m5639 -16 c27 -34 27 -64 1 -92 -42 -45
-130 -17 -130 42 0 39 36 76 75 76 24 0 39 -7 54 -26z"/>
<path d="M8331 6666 l-22 -23 41 -37 c44 -40 73 -44 78 -11 2 19 -51 95 -67
95 -4 0 -17 -11 -30 -24z"/>
<path d="M3998 6605 c5 -30 13 -31 36 -6 16 17 16 19 -6 25 -34 9 -36 8 -30
-19z"/>
<path d="M7736 6380 c4 -19 8 -48 8 -65 1 -26 -3 -30 -24 -30 -19 0 -30 9 -45
40 -20 39 -20 40 -23 13 -3 -28 -16 -36 -27 -18 -9 15 -25 12 -25 -4 0 -13 23
-26 58 -32 25 -4 52 -37 52 -61 0 -39 16 -59 75 -92 l55 -31 -21 -43 c-42 -80
-69 -117 -88 -117 -11 0 -32 -5 -48 -11 -15 -7 -55 -13 -88 -14 -33 -2 -86 -6
-119 -9 -95 -10 -125 -1 -146 48 -10 25 -28 46 -44 54 -29 13 -33 7 -11 -18 8
-9 16 -34 18 -56 l2 -39 -70 -2 c-38 -1 -132 -7 -209 -13 -76 -6 -145 -9 -153
-6 -19 8 -13 66 7 76 8 4 29 12 45 17 43 12 37 34 -15 52 -25 8 -38 16 -30 17
86 14 91 15 81 28 -6 7 -9 15 -7 17 2 2 6 17 10 33 6 24 4 28 -10 22 -12 -4
-15 -2 -10 9 8 23 -8 18 -34 -10 -27 -28 -40 -32 -40 -10 0 8 -4 15 -10 15 -5
0 -10 -9 -10 -20 0 -13 -9 -22 -27 -26 -21 -6 -31 -2 -50 20 -40 47 -28 76 44
101 21 7 39 18 41 25 3 7 -1 10 -9 8 -21 -8 -49 10 -43 27 8 20 -13 19 -24 0
-12 -22 -82 -33 -82 -13 0 9 7 21 15 28 22 18 19 33 -4 20 -24 -12 -38 4 -22
24 8 10 4 13 -18 13 -29 0 -32 -12 -11 -42 4 -5 10 -24 13 -42 12 -63 -53 -66
-75 -2 -12 36 -32 39 -25 3 4 -23 2 -25 -27 -18 -47 10 -18 -15 41 -35 41 -14
48 -20 54 -49 9 -44 33 -69 91 -94 26 -11 48 -25 48 -30 0 -5 -15 -42 -34 -83
-30 -65 -37 -74 -67 -80 -19 -4 -39 -12 -46 -17 -7 -5 -16 -7 -21 -4 -6 3 -23
2 -38 -4 -16 -5 -65 -11 -109 -14 -44 -3 -97 -8 -117 -12 -36 -6 -39 -5 -53
29 -9 21 -28 43 -45 52 -40 21 -43 19 -21 -12 33 -47 36 -72 9 -77 -13 -3 -34
-5 -48 -5 -14 0 -101 -9 -195 -20 -93 -11 -172 -21 -175 -21 -4 0 -12 16 -19
35 -16 45 -2 72 43 81 62 11 47 54 -18 54 -38 0 -32 15 10 26 34 9 36 11 40
57 3 40 1 48 -11 43 -10 -3 -15 1 -15 11 0 12 -9 7 -30 -17 -27 -32 -31 -33
-41 -17 -13 22 -29 13 -22 -13 4 -15 -1 -21 -23 -26 -23 -6 -32 -2 -56 24 -24
28 -26 35 -17 56 7 14 26 30 43 37 56 22 63 33 25 39 -25 4 -33 10 -31 23 4
23 -15 22 -22 -1 -9 -26 -75 -46 -83 -26 -3 8 2 23 11 33 20 22 20 28 1 28 -8
0 -15 -4 -15 -9 0 -4 -5 -8 -11 -8 -7 0 -9 10 -4 28 5 21 4 24 -6 15 -6 -6
-18 -9 -25 -6 -19 7 -17 -7 6 -42 24 -37 26 -81 4 -89 -11 -4 -30 7 -57 36
-23 25 -37 35 -33 23 13 -36 11 -40 -18 -37 -26 3 -28 1 -17 -12 8 -9 28 -16
45 -16 41 0 72 -22 79 -58 6 -29 22 -40 113 -77 l41 -17 -14 -46 c-31 -100
-42 -117 -91 -139 -26 -12 -98 -28 -162 -37 -213 -30 -195 -30 -210 -2 -13 26
-66 51 -75 36 -3 -4 6 -15 20 -24 30 -20 33 -41 6 -43 -10 -1 -72 -9 -137 -18
-66 -9 -145 -18 -178 -21 -32 -2 -62 -7 -66 -9 -5 -3 -66 -14 -137 -24 -218
-33 -273 -44 -273 -52 0 -5 -7 -9 -15 -9 -8 0 -15 4 -15 8 0 4 -15 12 -32 17
-25 8 -39 22 -58 59 -14 26 -38 54 -52 62 -24 13 -30 11 -74 -19 -54 -36 -65
-55 -32 -52 36 3 48 -5 48 -31 0 -25 -33 -46 -56 -37 -23 9 -124 -38 -144 -68
-12 -16 -28 -29 -37 -29 -28 0 -6 -25 25 -28 32 -3 46 -22 17 -22 -8 0 -15 -7
-15 -15 0 -10 11 -15 35 -15 30 0 37 -5 53 -37 11 -21 25 -55 31 -75 7 -21 24
-47 37 -57 31 -25 108 -37 137 -23 38 19 107 26 107 11 0 -7 6 -4 14 7 12 15
17 17 27 7 19 -19 28 -16 22 7 -5 19 -3 20 70 35 18 3 18 -4 0 -52 -3 -7 -1
-13 4 -13 6 0 15 18 22 40 21 70 93 68 99 -4 2 -20 7 -36 11 -36 15 0 121 81
131 100 21 39 12 97 -21 135 -34 39 -74 46 -119 20 -36 -21 -58 -18 -86 10
-17 17 -23 32 -19 45 9 29 -19 16 -33 -16 -14 -30 -33 -31 -68 -1 l-27 24 30
21 c35 25 118 46 243 62 47 6 99 13 115 15 17 2 68 11 115 18 47 8 112 18 145
22 65 7 91 11 146 21 l36 6 6 -73 c7 -84 -1 -100 -53 -104 -18 -1 -40 -11 -49
-22 -23 -29 -73 -61 -107 -69 -37 -9 -75 -33 -54 -35 8 -1 18 -1 23 0 4 0 7
-5 7 -13 0 -38 45 -24 119 38 41 35 46 36 122 36 78 0 80 1 122 38 42 38 43
39 127 40 64 0 104 7 159 26 41 14 87 26 103 26 15 0 47 5 71 12 54 14 84 7
139 -35 43 -33 84 -51 90 -38 2 3 31 23 65 44 61 37 65 38 147 35 75 -2 88 0
113 20 48 39 69 43 138 30 53 -9 77 -8 142 5 43 9 121 19 173 22 l95 6 48 -37
c26 -20 47 -40 47 -44 0 -10 51 -32 59 -25 3 4 -16 27 -42 52 -50 47 -59 68
-14 33 16 -13 40 -20 69 -20 29 0 38 3 29 9 -11 7 0 16 40 36 52 27 55 27 119
15 84 -17 95 -16 139 14 42 30 65 31 140 11 45 -12 69 -12 130 -3 42 6 87 10
101 9 33 -4 76 -4 123 0 34 3 43 -2 101 -60 72 -71 104 -79 55 -13 -17 23 -35
42 -40 42 -5 0 -9 4 -9 10 0 5 22 -2 49 -16 27 -14 59 -24 72 -22 19 3 10 10
-46 36 -38 18 -81 39 -95 47 -14 7 -43 16 -65 20 -22 4 -48 12 -58 17 -17 9
-17 10 0 39 10 17 28 39 39 50 17 16 20 28 17 63 -5 37 -2 46 17 59 12 8 28
13 35 10 16 -6 55 14 55 28 0 6 -18 18 -40 27 -38 16 -54 35 -27 31 44 -6 76
2 75 19 -1 9 2 30 6 46 6 24 4 28 -9 22 -13 -5 -15 -1 -9 16 6 21 5 20 -25 -5
-39 -32 -51 -34 -51 -7 0 11 -4 20 -10 20 -5 0 -10 -11 -10 -24 0 -36 -48 -45
-72 -14 -22 29 -23 71 -2 88 8 8 31 16 51 19 40 7 46 23 11 32 -18 4 -22 11
-20 30 l4 24 -24 -22 c-15 -14 -37 -23 -56 -23 -38 0 -43 20 -9 43 12 8 19 18
15 22 -4 4 -14 2 -22 -4 -18 -15 -34 5 -17 22 17 17 13 22 -15 22 -24 0 -25
-2 -18 -35z m92 -103 c-15 -6 -29 -21 -33 -34 -3 -13 -13 -23 -21 -23 -12 0
-8 -9 15 -35 17 -20 31 -38 31 -41 0 -9 -55 24 -74 45 -38 42 9 102 79 100
l30 -1 -27 -11z m-1073 -57 c-3 -5 -13 -10 -21 -10 -8 0 -14 -10 -14 -25 0
-17 -6 -25 -17 -25 -13 0 -8 -9 17 -35 38 -39 24 -47 -27 -15 -47 28 -46 81 2
108 25 14 68 16 60 2z m1245 -78 c0 -5 -10 -17 -22 -28 -19 -17 -21 -17 -15
-1 8 21 -1 21 -27 2 -11 -8 -29 -15 -40 -15 -20 1 -20 1 3 20 12 11 27 18 31
15 5 -3 11 -1 15 5 7 12 55 14 55 2z m-2340 -11 c0 -5 -9 -13 -20 -16 -13 -4
-20 -15 -20 -30 0 -13 -6 -26 -12 -29 -10 -3 -9 -8 3 -15 9 -6 27 -19 40 -30
l24 -21 -35 6 c-19 4 -46 17 -60 30 -20 20 -23 28 -14 51 11 34 94 81 94 54z
m1270 -27 c0 -3 -5 -14 -10 -25 -13 -24 -32 -25 -23 -1 5 13 1 12 -19 -5 -26
-25 -62 -31 -56 -10 6 17 108 56 108 41z m-1092 -96 c-2 -12 -9 -23 -16 -26
-7 -2 -12 0 -11 5 4 23 -3 23 -26 -1 -13 -14 -32 -26 -41 -26 -15 0 -15 2 2
21 17 20 68 48 87 49 5 0 7 -10 5 -22z m1444 -180 c-4 -55 -21 -70 -76 -66
-21 1 -42 -5 -53 -15 -23 -20 -102 -49 -114 -42 -5 3 -21 -1 -36 -9 -26 -13
-33 -12 -68 5 -22 10 -59 18 -83 19 -50 0 -60 15 -38 57 40 73 41 73 212 84
87 5 159 10 160 12 1 1 24 2 51 3 l48 1 -3 -49z m-1040 -85 c-5 -70 -15 -83
-57 -83 -18 0 -43 -8 -56 -19 -67 -51 -82 -53 -211 -15 -26 8 -72 14 -102 14
-65 0 -69 8 -35 77 18 38 25 43 53 43 34 -1 105 6 147 15 15 4 58 6 97 7 38 0
76 4 83 9 8 5 30 9 50 9 l36 0 -5 -57z m-713 -27 c-3 -3 -20 -8 -39 -11 -19
-3 -43 -8 -52 -11 -10 -3 -18 -1 -18 5 0 10 30 17 84 20 16 0 27 -1 25 -3z
m-119 -16 c0 -5 -10 -10 -22 -10 -19 0 -20 2 -8 10 19 13 30 13 30 0z m-50
-10 c0 -6 -25 -9 -57 -9 -52 1 -54 2 -23 9 53 11 80 11 80 0z m610 -111 c0
-14 -16 -11 -29 5 -10 12 -8 13 8 9 12 -3 21 -9 21 -14z m-1281 -144 c41 -21
55 -68 35 -111 -15 -32 -62 -74 -81 -74 -12 1 -83 68 -83 79 0 6 12 7 27 5 26
-5 26 -4 10 14 -24 27 -21 57 9 81 32 25 46 26 83 6z"/>
<path d="M4890 4822 c-20 -9 -44 -33 -55 -54 -19 -35 -19 -38 -2 -72 10 -23
30 -43 52 -53 35 -17 36 -17 15 -33 -20 -15 -20 -16 14 -49 l35 -34 57 34
c130 78 151 210 41 260 -53 23 -112 24 -157 1z"/>
<path d="M5420 4785 c-149 -42 -218 -140 -175 -251 33 -87 136 -134 338 -155
139 -14 157 -21 157 -54 0 -37 -49 -55 -153 -55 -93 0 -178 21 -208 51 -10 10
-19 33 -19 49 l0 30 -75 0 -76 0 3 -122 3 -123 63 -3 c35 -2 69 1 75 7 8 6 31
4 67 -6 89 -25 278 -22 367 5 124 38 169 95 161 202 -9 129 -85 174 -342 205
-133 16 -166 26 -166 50 0 44 82 64 202 48 103 -14 150 -39 162 -86 l10 -37
68 0 68 0 0 120 0 120 -70 0 c-65 0 -70 -2 -70 -21 0 -16 -4 -19 -17 -14 -119
52 -271 68 -373 40z"/>
<path d="M10026 4774 c-205 -40 -318 -152 -317 -315 0 -120 60 -214 167 -259
149 -64 409 -73 536 -18 l49 21 15 -22 c13 -17 25 -21 75 -21 l59 0 0 150 0
150 -165 0 -165 0 0 -60 0 -60 62 0 61 0 -22 -24 c-44 -46 -177 -61 -280 -30
-179 53 -205 261 -43 341 51 25 68 28 152 28 77 -1 105 -5 146 -24 69 -30 104
-69 111 -120 l6 -41 68 0 69 0 0 150 0 150 -70 0 c-68 0 -70 -1 -70 -25 l0
-25 -40 20 c-95 48 -262 63 -404 34z"/>
<path d="M932 4713 l3 -58 53 -3 52 -3 0 -185 0 -184 -55 0 -55 0 0 -60 0 -60
390 0 390 0 0 120 0 120 -70 0 -70 0 0 -60 0 -60 -160 0 -160 0 0 185 0 185
50 0 50 0 0 60 0 60 -210 0 -211 0 3 -57z"/>
<path d="M1770 4710 l0 -60 50 0 50 0 0 -185 0 -185 -50 0 -50 0 0 -60 0 -60
210 0 210 0 0 60 0 60 -55 0 -55 0 0 184 0 185 53 3 52 3 3 58 3 57 -211 0
-210 0 0 -60z"/>
<path d="M2260 4710 l0 -60 50 0 50 0 0 -185 0 -185 -50 0 -50 0 0 -60 0 -60
390 0 391 0 -3 118 -3 117 -67 3 -67 3 -3 -58 -3 -58 -162 -3 -163 -2 0 184 0
185 53 3 52 3 3 58 3 57 -211 0 -210 0 0 -60z"/>
<path d="M3112 4713 l3 -58 48 -3 47 -3 0 -185 0 -184 -50 0 -50 0 0 -60 0
-60 390 0 390 0 0 120 0 120 -70 0 -70 0 0 -60 0 -60 -165 0 -165 0 0 185 0
185 55 0 55 0 0 60 0 60 -210 0 -211 0 3 -57z"/>
<path d="M3792 4713 l3 -58 45 -3 c43 -3 51 -9 183 -140 l137 -137 0 -47 0
-48 -50 0 -50 0 0 -60 0 -60 210 0 210 0 0 60 0 60 -55 0 -55 0 0 58 1 57 122
128 122 127 60 3 60 2 3 58 3 57 -191 0 -191 0 3 -57 c3 -51 6 -58 27 -63 22
-5 20 -9 -42 -75 l-65 -70 -71 70 c-56 54 -68 71 -56 78 10 5 15 25 15 62 l0
55 -190 0 -191 0 3 -57z"/>
<path d="M6502 4713 l3 -58 53 -3 52 -3 -2 -182 -3 -182 -52 -3 -53 -3 0 -60
0 -59 308 0 c329 0 387 7 460 52 39 24 72 86 72 138 0 65 -32 116 -98 156 -2
1 7 18 19 38 17 29 20 46 15 82 -8 60 -29 89 -84 116 -46 22 -56 23 -370 26
l-323 3 3 -58z m547 -77 c7 -8 11 -32 9 -53 l-3 -38 -117 -3 -118 -3 0 56 0
55 109 0 c82 0 111 -4 120 -14z m31 -229 c20 -10 26 -21 28 -54 4 -58 -15 -66
-165 -71 l-123 -4 0 71 0 71 118 0 c74 0 126 -5 142 -13z"/>
<path d="M7372 4713 l3 -58 53 -3 52 -3 -2 -182 -3 -182 -47 -3 -48 -3 0 -60
0 -59 210 0 210 0 0 60 0 60 -55 0 -55 0 0 70 c0 103 16 97 147 -60 l108 -129
133 -1 132 0 0 60 0 60 -53 0 c-52 0 -53 1 -126 74 l-73 73 44 11 c165 42 204
229 62 302 -48 25 -49 25 -372 28 l-323 3 3 -58z m546 -75 c7 -7 12 -29 12
-50 0 -51 -17 -58 -139 -58 l-101 0 0 60 0 60 108 0 c71 0 112 -4 120 -12z"/>
<path d="M8290 4710 l0 -60 50 0 50 0 0 -185 0 -185 -50 0 -50 0 0 -60 0 -60
210 0 210 0 0 60 0 60 -55 0 -55 0 0 184 0 185 53 3 52 3 3 58 3 57 -211 0
-210 0 0 -60z"/>
<path d="M8780 4711 l0 -61 50 0 50 0 0 -185 0 -185 -50 0 -50 0 0 -61 0 -60
308 3 c295 3 309 4 366 27 68 27 138 87 169 146 32 58 31 202 0 261 -32 59
-104 119 -176 145 -58 21 -81 23 -364 27 l-303 4 0 -61z m566 -80 c56 -25 74
-67 74 -169 0 -66 -4 -85 -23 -113 -34 -51 -67 -62 -194 -67 l-113 -5 0 187 0
186 108 0 c82 0 116 -5 148 -19z"/>
<path d="M10670 4710 l0 -60 50 0 50 0 0 -185 0 -185 -50 0 -50 0 0 -60 0 -60
390 0 391 0 -3 118 -3 117 -70 0 -70 0 -3 -57 -3 -58 -159 0 -160 0 0 65 0 64
113 3 112 3 3 58 3 57 -116 0 -115 0 0 60 0 60 160 0 159 0 3 -57 3 -58 70 0
70 0 3 118 3 117 -391 0 -390 0 0 -60z"/>
<path d="M2830 3712 c0 -10 15 -74 34 -143 228 -826 733 -1517 1447 -1982
1133 -737 2604 -737 3738 0 714 464 1219 1155 1447 1982 19 69 34 133 34 143
0 17 -20 18 -437 18 l-438 -1 -27 -85 c-220 -682 -776 -1277 -1458 -1560 -325
-134 -631 -194 -990 -194 -410 0 -757 79 -1125 255 -611 293 -1111 857 -1317
1485 l-33 99 -437 1 c-418 0 -438 -1 -438 -18z m6197 -214 c30 -28 31 -83 1
-115 -48 -51 -138 -15 -138 54 0 71 86 109 137 61z m-5576 -17 c17 -17 29 -40
29 -55 0 -34 -38 -75 -77 -82 -27 -5 -37 -1 -63 24 -39 39 -39 74 -1 113 18
17 40 29 56 29 16 0 38 -12 56 -29z m265 -381 l47 -70 -33 -125 c-18 -69 -30
-128 -28 -131 4 -3 225 -33 255 -34 2 0 24 -32 50 -71 l47 -71 -24 -19 c-25
-19 -25 -19 -45 6 l-20 24 -80 -55 c-103 -71 -101 -68 -82 -98 15 -23 15 -25
-8 -40 -13 -8 -28 -17 -33 -18 -6 -2 -42 43 -81 99 l-71 101 33 21 32 20 20
-25 20 -24 43 29 c24 16 40 31 35 34 -4 2 -59 8 -121 12 -85 5 -115 11 -119
22 -5 12 35 180 54 231 5 13 2 12 -23 -2 -70 -42 -70 -42 -46 -76 28 -38 28
-42 -7 -63 l-29 -17 -66 94 c-36 52 -66 98 -66 103 0 5 13 17 30 26 29 17 29
17 46 -8 l16 -25 89 62 c49 34 89 64 89 68 0 3 -6 15 -14 26 -13 17 -12 21 12
41 15 12 28 22 28 23 1 0 23 -31 50 -70z m5029 -13 c33 -22 62 -41 64 -43 2
-2 -6 -19 -18 -38 -20 -32 -23 -33 -50 -23 -40 15 -82 -5 -131 -61 -83 -93
-71 -190 26 -222 42 -14 65 -7 110 32 61 54 93 152 65 197 -6 10 -1 27 17 54
l26 39 22 -28 c62 -77 28 -208 -87 -337 -62 -70 -124 -101 -185 -94 -58 6
-116 45 -139 93 -43 92 10 252 117 349 33 29 54 55 47 57 -8 3 -4 16 12 40 13
20 28 34 34 30 5 -3 37 -23 70 -45z m-358 -429 l23 -22 -22 -23 -22 -24 107
-107 107 -108 -27 -26 c-27 -25 -35 -27 -168 -33 -204 -9 -198 -6 -140 -65
l49 -50 23 22 24 22 27 -27 27 -27 -80 -80 -79 -80 -28 27 -28 27 22 23 22 24
-76 76 c-77 77 -77 77 -98 58 -23 -21 -44 -15 -64 18 -9 14 0 28 49 77 l60 60
143 7 143 6 -42 43 -43 44 -21 -20 -21 -20 -24 25 -24 26 74 74 c41 41 77 75
79 75 3 0 15 -10 28 -22z m-3927 -425 c0 -7 -83 -103 -89 -103 -3 0 -19 11
-35 24 l-30 23 22 28 c12 15 22 31 22 35 0 4 -18 21 -41 40 l-41 33 -73 -79
-73 -79 25 -27 c25 -26 25 -28 9 -53 -9 -14 -21 -25 -27 -25 -6 0 -56 41 -111
91 l-99 92 27 29 28 28 26 -25 26 -25 72 74 c40 41 72 78 72 82 0 4 -17 25
-37 46 l-37 38 -28 -27 -28 -27 -30 29 -30 29 51 52 52 52 188 -175 c104 -97
189 -178 189 -180z m-16 -289 c28 -28 34 -72 14 -92 -37 -37 -138 12 -138 67
0 37 17 51 61 51 26 0 44 -7 63 -26z m3143 -20 c43 -32 73 -92 73 -147 0 -99
-52 -148 -258 -241 -81 -36 -150 -66 -153 -66 -13 0 -33 64 -22 67 5 2 18 9
27 16 16 11 13 21 -29 111 -34 73 -49 97 -60 92 -8 -3 -21 -8 -29 -12 -8 -3
-18 6 -26 26 -7 17 -11 32 -9 34 7 7 293 133 314 139 45 13 145 1 172 -19z
m-2464 -43 c31 -13 79 -40 106 -61 30 -23 51 -35 53 -28 3 9 13 9 36 -1 18 -8
35 -17 38 -22 4 -7 -49 -145 -60 -157 -2 -2 -20 4 -40 12 -31 13 -36 19 -30
40 20 81 -145 184 -237 146 -36 -15 -69 -63 -69 -101 0 -34 37 -88 75 -110 48
-28 123 -45 136 -32 9 9 5 15 -17 25 -16 6 -30 13 -32 14 -2 1 17 50 24 62 2
3 176 -67 183 -74 2 -2 -11 -40 -29 -84 -26 -65 -36 -80 -49 -74 -9 3 -23 8
-33 11 -9 3 -18 13 -21 22 -3 14 -19 19 -67 24 -70 6 -179 54 -241 106 -100
83 -89 232 21 289 39 20 56 23 120 19 43 -2 99 -14 133 -26z m2802 -21 c19
-37 19 -56 -4 -106 -17 -37 -22 -40 -49 -36 -21 3 -29 8 -25 18 3 9 -2 14 -17
14 -40 0 -60 18 -60 56 0 50 39 84 96 84 38 0 45 -4 59 -30z m-2419 -115 c58
-14 110 -27 114 -30 5 -3 5 -17 1 -33 -7 -23 -13 -27 -39 -25 -34 3 -29 14
-66 -133 -21 -81 -21 -81 12 -87 25 -5 28 -9 24 -37 -2 -16 -9 -33 -14 -36 -7
-5 -225 43 -236 51 -2 2 0 19 3 38 7 33 9 35 39 30 l31 -5 26 107 27 106 -30
6 c-24 5 -29 10 -24 27 3 12 6 27 6 34 0 16 4 16 126 -13z m1523 -101 c101
-104 126 -125 146 -122 18 4 25 0 29 -16 13 -49 9 -53 -81 -75 -49 -12 -96
-24 -105 -27 -21 -6 -41 53 -25 74 17 22 1 23 -69 6 -72 -17 -118 -44 -77 -44
16 0 23 -8 28 -31 4 -17 5 -33 2 -36 -12 -11 -201 -53 -208 -46 -4 4 -9 21
-11 36 -3 25 2 31 31 40 34 12 36 15 88 172 45 135 58 163 81 177 15 10 32 18
38 18 7 0 66 -57 133 -126z m-1201 40 l72 -7 0 -33 c0 -32 -2 -34 -34 -34
l-34 0 -7 -87 c-3 -49 -9 -98 -12 -109 -5 -24 -16 -21 147 -40 l50 -6 0 37 c0
37 1 37 31 31 17 -3 37 -6 43 -6 9 0 10 -18 5 -65 -3 -36 -9 -68 -12 -71 -3
-3 -107 5 -231 17 l-226 23 0 26 c0 36 14 52 41 48 26 -3 30 11 44 150 l7 72
-31 0 c-24 0 -31 4 -31 19 0 45 10 53 59 48 25 -4 79 -9 119 -13z m762 -58 c0
-30 3 -61 6 -70 5 -13 -2 -16 -40 -16 -46 0 -46 0 -46 35 l0 35 -92 -6 c-51
-4 -96 -9 -99 -13 -4 -3 -5 -21 -2 -40 l6 -33 62 7 c59 6 63 5 69 -17 11 -42
7 -45 -60 -51 -37 -4 -69 -8 -71 -11 -2 -2 -1 -21 3 -41 6 -36 8 -37 43 -31
20 3 62 6 94 6 l57 0 0 34 c0 36 12 46 55 46 21 0 24 -6 30 -66 4 -36 4 -69
-1 -73 -9 -8 -442 -36 -448 -30 -2 2 -7 19 -11 37 -6 31 -5 32 24 32 l31 0 0
63 c0 34 -3 86 -6 115 -6 49 -8 52 -35 52 -26 0 -29 4 -29 30 0 17 1 31 3 31
5 3 344 26 400 27 l57 2 0 -54z"/>
<path d="M7400 1861 c-23 -7 -90 -39 -99 -47 -2 -2 15 -47 39 -100 49 -107 50
-107 135 -61 57 32 72 63 56 118 -14 48 -60 99 -88 98 -10 0 -29 -4 -43 -8z"/>
<path d="M6876 1588 c-10 -39 -7 -45 19 -40 34 6 40 20 19 43 -22 25 -30 24
-38 -3z"/>
<path d="M5443 3509 c-26 -8 -44 -29 -99 -117 -83 -134 -91 -142 -126 -142
-24 0 -28 -4 -28 -30 l0 -30 95 0 95 0 0 29 c0 16 -5 31 -12 33 -6 2 -8 10 -4
16 4 7 31 12 66 12 35 0 62 -5 66 -12 4 -6 2 -14 -4 -16 -7 -2 -12 -17 -12
-33 l0 -29 95 0 95 0 0 30 c0 23 -5 30 -19 30 -15 0 -39 34 -97 135 -42 74
-77 135 -78 134 0 0 -15 -5 -33 -10z m17 -171 c0 -5 -14 -8 -30 -8 l-31 0 17
32 16 32 14 -25 c7 -13 13 -27 14 -31z"/>
<path d="M7751 3506 c-29 -9 -47 -30 -111 -131 -69 -108 -79 -120 -108 -123
-28 -3 -32 -7 -32 -33 l0 -29 95 0 95 0 0 30 c0 17 -4 30 -10 30 -5 0 -10 7
-10 15 0 12 14 15 64 15 39 0 68 -5 72 -12 4 -6 2 -14 -4 -16 -7 -2 -12 -17
-12 -33 l0 -29 95 0 95 0 0 29 c0 23 -5 30 -22 33 -14 2 -33 22 -53 58 -18 30
-52 89 -76 131 l-44 77 -34 -12z m9 -145 c15 -28 13 -31 -20 -31 -16 0 -30 3
-30 6 0 12 21 44 30 44 5 0 14 -9 20 -19z"/>
<path d="M4440 3470 c0 -25 4 -30 25 -30 l26 0 -3 -92 c-3 -88 -4 -93 -25 -96
-18 -3 -23 -10 -23 -33 l0 -29 100 0 100 0 0 30 c0 28 -2 30 -40 30 l-40 0 0
50 c0 33 4 50 13 50 12 0 77 -72 77 -86 0 -14 51 -74 64 -74 7 0 39 34 72 75
32 41 63 74 67 75 5 0 7 -19 5 -42 -3 -39 -6 -43 -30 -46 -24 -3 -28 -8 -28
-33 l0 -29 105 0 105 0 0 29 c0 23 -5 30 -22 33 -22 3 -23 8 -26 96 l-3 92 26
0 c21 0 25 5 25 30 l0 30 -72 -1 -73 0 -72 -84 -72 -84 -71 84 -71 85 -70 0
-69 0 0 -30z"/>
<path d="M5850 3470 c0 -25 4 -30 25 -30 25 0 25 0 25 -95 0 -95 0 -95 -25
-95 -21 0 -25 -5 -25 -30 l0 -30 105 0 105 0 0 29 c0 25 -4 30 -27 33 -23 2
-29 8 -31 36 -5 50 18 40 83 -33 l57 -65 64 0 64 0 0 30 c0 25 -4 30 -23 30
-14 0 -39 16 -61 39 l-39 40 27 7 c51 13 81 77 56 124 -17 31 -67 40 -226 40
l-154 0 0 -30z m275 -60 c0 -24 -3 -25 -62 -28 l-63 -3 0 31 0 31 63 -3 c59
-3 62 -4 62 -28z"/>
<path d="M6460 3470 c0 -25 4 -30 25 -30 25 0 25 0 25 -95 0 -95 0 -95 -25
-95 -21 0 -25 -5 -25 -30 l0 -30 105 0 105 0 0 30 c0 25 -4 30 -25 30 -25 0
-25 0 -25 95 0 95 0 95 25 95 21 0 25 5 25 30 l0 30 -105 0 -105 0 0 -30z"/>
<path d="M6860 3470 c0 -25 4 -30 25 -30 25 0 25 0 25 -95 0 -95 0 -95 -25
-95 -21 0 -25 -5 -25 -30 l0 -30 95 0 95 0 0 29 c0 25 -4 30 -27 33 -27 3 -28
6 -31 61 -2 31 0 57 3 57 4 0 51 -40 107 -90 84 -76 105 -90 134 -90 l34 0 0
125 0 125 25 0 c21 0 25 5 25 30 l0 30 -90 0 -90 0 0 -30 c0 -25 4 -30 25 -30
23 0 25 -4 25 -45 0 -25 -3 -45 -7 -45 -5 1 -44 34 -88 75 l-80 75 -77 0 -78
0 0 -30z"/>
</g>
</svg>
