<svg xmlns="http://www.w3.org/2000/svg" xmlns:xlink="http://www.w3.org/1999/xlink" width="282.842" height="123.16" viewBox="0 0 282.842 123.16"><defs><clipPath id="a"><path d="M8216.794,7864.051h-65.559v35.5a33.241,33.241,0,0,0,37.886,47.167c.035-.013.078-.025.078-.025l.879,2.842s.6-.149,1.766-.467a11.624,11.624,0,0,0,1.747-.6,33.068,33.068,0,0,1,.22-3.336,33.212,33.212,0,0,0,20.269-30.591,34.264,34.264,0,0,0-.262-4.214h2.977Z" transform="translate(-8147.667 -7864.051)" fill="none"/></clipPath><clipPath id="b"><path d="M8206.188,7959.211s-8.876,2.271-10.586,2.515-10.106,29.822-2.217,37.462,12.873,10.288,17.863,11.332,11.646,6.163,18.3-4.25-8.688-37.147-11.706-40.045S8206.188,7959.211,8206.188,7959.211Z" transform="translate(-8190.06 -7959.211)" fill="none" clip-rule="evenodd"/></clipPath><clipPath id="c"><path d="M7891.025,7959.762h-3.793c-1.2,0-2.33-.039-3.41-.117a9.911,9.911,0,0,1-2.929-.645,5.5,5.5,0,0,1-2.213-1.606,6.5,6.5,0,0,1-1.263-2.938l-1.758-9.133c-.212-1.019-.368-2.047-.483-3.086a8.829,8.829,0,0,1,.289-3.272,10.517,10.517,0,0,1,1.557-3.324,12.194,12.194,0,0,1,2.573-2.7,11.767,11.767,0,0,1,3.3-1.791,11.1,11.1,0,0,1,3.768-.645h12.206l-2.114,7.889h-11.8a1.129,1.129,0,0,0-.727.216.948.948,0,0,0-.341.5,2.184,2.184,0,0,0,.066,1.1l2.337,11.57c-.017.068.095.1.336.1h6.513Zm15.852,0,1.718-6.405h-4.926l-1.718,6.405h-8.462l2.769-10.328a23.372,23.372,0,0,1,3.4-7.24,27.772,27.772,0,0,1,5.744-6.1,28.231,28.231,0,0,1,7.486-4.206,23.946,23.946,0,0,1,8.605-1.578h1.745l-7.895,29.45Zm5.418-20.225a14.546,14.546,0,0,0-3.364,2.605,19.7,19.7,0,0,0-2.532,3.322h4.309Zm20.951,20.225-3.871-6.405h-1.384l-1.718,6.405h-8.466l7.88-29.4h14.159a7.017,7.017,0,0,1,2.7.521,5.674,5.674,0,0,1,2.117,1.484,5.295,5.295,0,0,1,1.117,5.114,8.635,8.635,0,0,1-.445,1.29,11.544,11.544,0,0,1-.564,1.15q-.462.763-1.34,2.127t-1.885,2.822c-.673.974-1.319,1.874-1.955,2.7s-1.121,1.433-1.461,1.818q.642,1.239,1.419,2.557t1.573,2.65c.53.892,1.042,1.777,1.545,2.657s.971,1.713,1.406,2.506Zm3.537-21.418h-4.772l-1.911,7.121h.773a1.973,1.973,0,0,0,.883-.235,2.985,2.985,0,0,0,.974-.957l4-5.736Zm48.95,21.418h-8.111l-.36-13-7.333,13h-8.1l-.79-29.4h8.872l.378,12.952,7.318-12.952h8.1l.311,13q1.846-3.256,3.728-6.529t3.656-6.476h8.932Zm21.387,0,1.721-6.405h-4.925l-1.716,6.405h-8.467l2.769-10.328a23.392,23.392,0,0,1,3.4-7.24,27.694,27.694,0,0,1,5.739-6.1,28.228,28.228,0,0,1,7.486-4.206,23.992,23.992,0,0,1,8.609-1.578h1.742l-7.893,29.45Zm5.419-20.225a14.628,14.628,0,0,0-3.362,2.605,20,20,0,0,0-2.533,3.322h4.31Zm6.684,20.225,2.115-7.889q3.721,0,6.283-.034c1.714-.024,3.123-.037,4.238-.037h3.873a1.259,1.259,0,0,0,.531-.072q-2.749-1.811-5.29-3.513t-5.37-3.512a4.514,4.514,0,0,1-1.881-2.581,6.268,6.268,0,0,1-.009-3.491,10.2,10.2,0,0,1,1.5-3.23,12.082,12.082,0,0,1,2.462-2.629,11.667,11.667,0,0,1,3.15-1.771,10.218,10.218,0,0,1,3.567-.642h15.184l-2.116,7.886q-3.795,0-6.392.035t-4.3.036h-3.9a1.229,1.229,0,0,0-.534.073l10.775,7.072a4.918,4.918,0,0,1,1.921,2.608,5.983,5.983,0,0,1,.044,3.466,10.293,10.293,0,0,1-1.5,3.231,11.754,11.754,0,0,1-2.47,2.6,11.952,11.952,0,0,1-3.187,1.744,10.466,10.466,0,0,1-3.61.643Zm40.28,0,3.011-11.235h-3.8l-3.009,11.235h-8.571l3.01-11.235h-2.458l2.115-7.89h2.46l2.755-10.276h8.566l-2.755,10.276h3.794l2.754-10.276h8.57l-7.88,29.4Z" transform="translate(-7875.128 -7930.313)" fill="none"/></clipPath></defs><g transform="translate(0 0)"><path d="M7919.5,7930.448c0,4.5-6.687-5.26,1.934-9.383h87.28l2.96,6.232,78.376-6.232c7.447,10.488,13.491,4.452,13.491-3v-12.739a13.491,13.491,0,0,0-13.491-13.488H7918.436c-7.455,0-11.675,6.445-9.747,13.488C7910.533,7912.053,7919.5,7930.448,7919.5,7930.448Z" transform="translate(-7880.126 -7871.492)" fill="#37297e"/><g transform="translate(89.012 22.371)"><path d="M7995.052,7897.131c.136,2.3-2.123,3.72-2.123,3.72.525-2.345-1.508-2.126-1.508-2.126l.839-4.119C7992.929,7894.739,7994.919,7894.827,7995.052,7897.131Z" transform="translate(-7991.421 -7894.605)" fill="#fff"/></g><g transform="translate(67.436 27.205)"><path d="M7980.584,7901.205H7964.8l-2.846,13.7h5.1l1.884-8.409a.56.56,0,0,1,.706-.32c.335.074.559.34.5.591l-1.825,8.138h5.519l1.883-8.409a.57.57,0,0,1,.71-.32c.339.074.56.34.508.591l-1.827,8.138h5.644l2.323-10.163S7983.54,7901.205,7980.584,7901.205Z" transform="translate(-7961.951 -7901.205)" fill="#fff"/></g><g transform="translate(39.175 27.21)"><path d="M7939.211,7901.215h-9.451a4.293,4.293,0,0,0-3.364,2.217,5.263,5.263,0,0,0-.425,4.554,2.788,2.788,0,0,0,2.458,1.623c.85.042,1.171-.164,1.171.107s-.8.219-2.246.219-4,.053-4,.053l1.016,4.922h8.38a3.5,3.5,0,0,0,2.668-1.244,5.5,5.5,0,0,0,1.815-3.95c.053-1.462-1.013-3.3-2.507-3.36-1.388-.053-1.869-.053-1.869-.216s.16-.21.69-.21,4.217.051,4.217.051Z" transform="translate(-7923.355 -7901.215)" fill="#fff"/></g><g transform="translate(88.786 27.203)"><path d="M8007.8,7901.205h-9.439a4.3,4.3,0,0,0-3.367,2.224,5.224,5.224,0,0,0-.424,4.559,2.758,2.758,0,0,0,2.45,1.623c.86.049,1.18-.165,1.18.112s-.807.216-2.241.216-3.623.051-3.623.051l-1.222,4.937h10.233a3.609,3.609,0,0,0,2.667-1.248,5.494,5.494,0,0,0,1.814-3.957c.053-1.46-1.014-3.3-2.511-3.369-1.384-.054-1.865-.049-1.865-.212s.158-.216.7-.216,4.213.054,4.213.054Z" transform="translate(-7991.113 -7901.205)" fill="#fff"/></g><g transform="translate(54.146 27.158)"><path d="M7952.677,7901.147c-.386,0-4.214-.18-6.277,1.937-2.247,2.312-3.137,7.08-2.272,9.29,1.222,3.14,6.328,2.527,6.328,2.527l.949-5.548s-1.225.69-1.836-.11a2.259,2.259,0,0,1,.506-2.682c.77-.627,2.269-.167,2.269-.167l-1.482,8.423h4.834l2.9-13.649S7953.068,7901.147,7952.677,7901.147Z" transform="translate(-7943.802 -7901.143)" fill="#fff"/></g><g transform="translate(140.904 26.909)"><path d="M8070.382,7901.091c2.484-1.119,5.223,1.379,5.223,1.379l-4.5,3.836a4.864,4.864,0,0,0-.515-.562c-.19-.151-.448-.193-.918.159a1.7,1.7,0,0,0-.665.836c-.031.126-1.686,8.079-1.686,8.079h-5.026l2.839-13.728Z" transform="translate(-8062.295 -7900.802)" fill="#fff"/></g><g transform="translate(111.502 27.17)"><path d="M8028.54,7907.351l-6.4,7.54h5.524l2.884-3.251.755,3.245h5.192l-2.389-7.231,5.515-6.494H8034.6l-2.208,2.671-1.045-2.639h-4.852Z" transform="translate(-8022.137 -7901.16)" fill="#fff"/></g><g transform="translate(152.867 26.856)"><path d="M8091.076,7903.5c-.205-3.229-5.017-2.971-6.948-2.477a7.786,7.786,0,0,0-3.388,1.953,7.291,7.291,0,0,0-1.836,7.262c1.308,5.361,7.563,4.4,7.563,4.4l2.13-4.052-3.3-.071C8088.257,7909.207,8091.278,7906.73,8091.076,7903.5Zm-7.839,4.533a2.072,2.072,0,0,1,.891-2.541c1.308-.892,2.271-.892,2.2.073S8083.237,7908.035,8083.237,7908.035Z" transform="translate(-8078.631 -7900.73)" fill="#fff"/></g><g transform="translate(177.315 27.104)"><path d="M8127.4,7901.07h-8.7a3.9,3.9,0,0,0-3.1,2.222,5.643,5.643,0,0,0-.4,4.559,2.558,2.558,0,0,0,2.267,1.625c.782.052,1.076-.166,1.076.107s-.733.217-2.065.217-3.328.053-3.328.053l-1.127,4.938h9.425a3.2,3.2,0,0,0,2.46-1.247,5.75,5.75,0,0,0,1.668-3.961c.046-1.459-.936-3.3-2.313-3.364-1.271-.054-1.72-.047-1.72-.215s.148-.219.64-.219,3.883.058,3.883.058Z" transform="translate(-8112.023 -7901.07)" fill="#fff"/></g><g transform="translate(163.46 27.104)"><path d="M8108.465,7901.07h-8.694a3.9,3.9,0,0,0-3.1,2.222,5.642,5.642,0,0,0-.393,4.559,2.553,2.553,0,0,0,2.257,1.625c.79.052,1.084-.166,1.084.107s-.734.217-2.063.217-3.333.053-3.333.053l-1.124,4.938h9.418a3.2,3.2,0,0,0,2.459-1.247,5.749,5.749,0,0,0,1.676-3.961c.047-1.459-.938-3.3-2.311-3.364-1.277-.054-1.723-.047-1.723-.215s.146-.219.638-.219,3.888.058,3.888.058Z" transform="translate(-8093.1 -7901.07)" fill="#fff"/></g><g transform="translate(126.547 27.021)"><path d="M8050.817,7901.15l-4.528-.041-3.6,16.858,4.819.047,2.728-11.773s1.7-.458,2.226.168.1,2.075-.612,2.676a1.691,1.691,0,0,1-1.968.116l-1.127,4.883s4,1.2,6.525-1.887c2.26-2.767,2.856-6.947,1.571-9.27-1.207-2.183-4.364-1.964-4.758-1.964A5.077,5.077,0,0,0,8050.817,7901.15Z" transform="translate(-8042.686 -7900.958)" fill="#fff"/></g><g transform="translate(193.175)"><path d="M8205.781,7979.91a19.036,19.036,0,0,1-7.125-1.432,4.085,4.085,0,0,1-1.9-1.8c-.377.026-.841.044-1.389.044a31.382,31.382,0,0,1-5.24-.475c-.881-.153-1.506-.236-1.942-.283-.018.042-.032.081-.046.12a2.3,2.3,0,0,1-2.165,1.368,3.855,3.855,0,0,1-2.219-.823c-.237-.173-.46-.343-.659-.5l-.08-.062-.064-.068a5.5,5.5,0,0,1-1.051-1.647c-.861-2.057-.751-10.283-.564-15.844-1.353.126-2.717.187-4.06.187a43.59,43.59,0,0,1-26.861-77.919,4.009,4.009,0,0,1,.14-4.019c1.3-2.312,4.861-3.722,9.508-3.722.44,0,.893.016,1.353.039,1.045.058,2.131.16,3.226.3a43.588,43.588,0,0,1,9.75-1.77,15.034,15.034,0,0,1,10.566-4.786c.125,0,.24,0,.357,0a12.1,12.1,0,0,1,1.28.067,3.4,3.4,0,0,1,1.932-.671l.093,0a3.3,3.3,0,0,1,1.3.263l.14.06,1.861.986a3.357,3.357,0,0,1,1.866,2.507,8.728,8.728,0,0,1,2.5,5.837,43.582,43.582,0,0,1,14.395,67.235l12.677,15.208-14.665-3.952c.435.822.859,1.643,1.259,2.467,6.076,12.491,6.567,16.25,6.193,18.451-.525,3.214-3.31,3.755-4.8,4.044l-.359.078a26.823,26.823,0,0,1-5.139.519h-.027Z" transform="translate(-8133.685 -7864.629)" fill="#37297e"/><path d="M8206.713,7952.917l13.757,3.706-10.914-13.1a42.4,42.4,0,0,0-13.989-66.457c-.1-3.562-1.551-5.287-2.514-6.045,0-.06,0-.135,0-.205a2.17,2.17,0,0,0-1.263-1.812l-1.86-.987-.044-.017a2.182,2.182,0,0,0-.837-.167h-.061a2.195,2.195,0,0,0-1.576.737,10.241,10.241,0,0,0-1.665-.136c-.1,0-.2,0-.294.007l-.054,0a13.988,13.988,0,0,0-10.045,4.756,42.464,42.464,0,0,0-10.187,1.82c-1.146-.156-2.29-.266-3.384-.331-.441-.019-.877-.034-1.29-.034-4.968,0-7.642,1.627-8.5,3.159a3,3,0,0,0,.394,3.577l.068.083a42.4,42.4,0,0,0,25.249,76.468,41.95,41.95,0,0,0,5.294-.333c-.142,3.684-.471,14.581.425,16.716a4.444,4.444,0,0,0,.825,1.3c.194.144.4.3.627.465,1.981,1.424,2.817-.092,2.6-.309s-1.421-1.081,3.278-.277a23.17,23.17,0,0,0,7.358.307s-.27,1.117,1.523,2.042c1.858.967,5,1.233,6.63,1.306a24.781,24.781,0,0,0,4.906-.495l.37-.073c1.457-.284,3.463-.678,3.859-3.082.325-1.91-.146-5.513-6.092-17.735C8208.512,7956.14,8207.646,7954.512,8206.713,7952.917Z" transform="translate(-8134.12 -7865.065)" fill="#37297e"/><g transform="translate(8.422 14.639)"><path d="M8216.988,7919.945a35.9,35.9,0,1,1-35.9-35.9A35.9,35.9,0,0,1,8216.988,7919.945Z" transform="translate(-8145.188 -7884.045)" fill="#37297e"/></g><g transform="translate(2.251 9.139)"><path d="M8198.337,7944.118l5.274,6.278a41.134,41.134,0,1,0-14.908,7.441l-2.429-7.827a33.25,33.25,0,1,1,12.063-5.893Z" transform="translate(-8136.758 -7876.533)" fill="#e50026"/></g><g transform="translate(10.238)"><g clip-path="url(#a)"><g transform="translate(35.657 64.575)"><path d="M8226.087,7980.776c-9.157-18.823-23.924-26.446-23.924-26.446-4.289-.938-5.529-1.216-3.058,2.514-.1.042-.189.084-.271.123a1.8,1.8,0,0,0,.012.2c.064.221.13.437.188.656,2.493,8.543,2.231,13.811,1.888,22.049-.355,8.452-.261,15.688.313,17.047a2.878,2.878,0,0,0,1.613,1.675c2.773,1.634,15.983,3.765,17.064,3.637.919-.109,1.434-.442,1.557-1.178l.139.007a.01.01,0,0,0,0-.007,23.859,23.859,0,0,0,6.177-.423C8231.3,7999.916,8235.239,7999.6,8226.087,7980.776Z" transform="translate(-8196.764 -7952.644)" fill="#272381" fill-rule="evenodd"/><path d="M8219.443,8002.922c-2.182,0-14.47-2.084-17.45-3.735a4.048,4.048,0,0,1-2.153-2.244c-.983-2.329-.5-14.995-.395-17.509l.013-.367c.33-7.883.545-13.091-1.853-21.336l-.185-.63a1.636,1.636,0,0,1-.068-.5l0-.265c-.82-1.312-1.321-2.47-.713-3.362.764-1.107,2.2-.793,5.357-.1l.274.1c.612.317,15.191,8,24.4,26.933h0c6.387,13.133,6.24,16.943,5.25,18.935-.875,1.767-2.646,2.125-4.07,2.411l-.236.046a25.287,25.287,0,0,1-5.819.477,2.767,2.767,0,0,1-2.141,1.141C8219.6,8002.92,8219.526,8002.922,8219.443,8002.922Zm-19.732-45.716c2.474,8.537,2.252,13.88,1.917,21.954l-.017.365c-.421,10.056-.12,15.75.231,16.578a1.845,1.845,0,0,0,.947,1.066l.215.1c2.5,1.469,15.213,3.543,16.414,3.489.549-.065.569-.177.588-.278l.128-.982,1.158.082a22.938,22.938,0,0,0,5.89-.406l.235-.047c1.333-.27,2.174-.475,2.556-1.248,1.013-2.042-.755-7.77-5.253-17.026h0c-8.455-17.371-21.935-25.122-23.333-25.891-.956-.21-1.965-.428-2.624-.511.163.3.419.748.853,1.4l.726,1.1Z" transform="translate(-8196.366 -7952.246)" fill="#00040b"/></g><g transform="translate(3.895 46.137)"><path d="M8204.449,7937.621a19,19,0,0,0-5.94-4.387,29.9,29.9,0,0,1-2.687-1.607.654.654,0,0,0,.035-.216,2,2,0,0,0-.77-1.465c-.511-.519-.624-.652-.867-.939-.066-.085-.151-.18-.254-.3a1.366,1.366,0,0,0-1-.572,1.277,1.277,0,0,0-.5.12.385.385,0,0,1-.084.032,1.462,1.462,0,0,0-.6.521,1.9,1.9,0,0,1-1.1.779,24.836,24.836,0,0,0-4.563,1.6,2.712,2.712,0,0,0-.522.345,8.422,8.422,0,0,0-2.652,2.951,1.464,1.464,0,0,0-.092.2,6.908,6.908,0,0,0-1.211-2.411,3.05,3.05,0,0,0-1.117-1.5,21.9,21.9,0,0,0-4.081-2.019c-.267-.1-.491-.162-.687-.226-.163-.051-.334-.1-.456-.146a.772.772,0,0,0-.324-1.1c-.024-.014-.05-.029-.075-.041a1.086,1.086,0,0,0-.56-.173,1.308,1.308,0,0,0-.943.538c-.1.115-.178.214-.249.293a9.937,9.937,0,0,1-.854.909,4.176,4.176,0,0,0-.388.445c-2.94.946-8.129,3.075-11.263,7-3.2,4-5.9,8.882-6.753,12.2a3.073,3.073,0,0,0-.819,2.844.774.774,0,0,0,.759.693c.427,0,.807-.307,1.653-1.306a9.376,9.376,0,0,1,5.642-2.94,28.239,28.239,0,0,1,3.593-.342l.083.045c-1.669,2.582-1.939,3.382-1.973,3.813a2.9,2.9,0,0,1-.764,1.313,9.079,9.079,0,0,0-1.36,2.134l-.3.015-.079.442s-.092.516-.174,1.03c-.051.3-.087.547-.117.725-.058.4-.083.576.087.781l.172.2h.262c.462,0,.56-.423.616-.676.041-.178.1-.453.18-.825a5.158,5.158,0,0,1,.154-.605c2.364-.123,10.684-.531,19.462-.888.253-.006.514-.017.767-.017,6.959,0,11.988,3.817,14.405,5.654.185.135.351.263.5.377a4.034,4.034,0,0,0-.261,2.326.68.68,0,0,0,.646.516h0c.613,0,.842-.667,1.292-2.408a.4.4,0,0,0,.016-.08.668.668,0,0,0,.138-.337,2.084,2.084,0,0,0,.015-.209l.118-.453-.278.045-.157-.174h-.081c.313-.871.7-1.836,1.074-2.788.159-.4.315-.8.467-1.184a14.4,14.4,0,0,0,.946-4.8,9.353,9.353,0,0,1,1.137.937c.823.789,1.864,1.647,2.631,2.265a4.29,4.29,0,0,1,.191.7c.229,1.188.379,1.69.385,1.711l.15.5.507-.1c.116-.026,1.158-.292,1.234-2.058l.008-.02-.008-.024a8.375,8.375,0,0,0-.171-1.295c.2-1.158.47-2.86.654-4.6C8207.461,7947.689,8207.792,7941.835,8204.449,7937.621Z" transform="translate(-8152.986 -7927.064)" fill="#00040b" fill-rule="evenodd"/></g><g transform="translate(6.063 3.833)"><path d="M8197.711,7946.086a.891.891,0,0,1,.078-.72c.021-.1-.105-1.21-.062-1.339a1.965,1.965,0,0,0,.062-.471,1.657,1.657,0,0,0-.105-.319,2.671,2.671,0,0,1-.414-.557.8.8,0,0,1-.039-.521c.07-.148.125-.15.223-.229.054-.037.165-.126.258-.19.017.324-.335-3.2-.335-3.2l9-4.832c-.02-.287-.387-.639-.745-1.057s-.276-.66-.056-.692.667.083.651-.063-.046-.294-.651-.938-.388-.82-.126-.7a7.167,7.167,0,0,1,.83.542c.229.148.4-.032.228-.246s-.991-1.07-1.3-1.373-.493-.624-.354-.815.678-.2.678-.2l-.429-.4c-.429-.4-.581-2.664-1.127-3.262a13.862,13.862,0,0,1-1.4-1.571c-.066-.227.354-.153.669-.132s.364-.046.1-.346-.888-.832-1.825-1.822-1.079-.547-.87-.727-.127-.693-.589-.956c-1.526-1.471-3.4-.844-4.069-1.6-.445-.406-.881-.832-1.249-1.239-1.09-1.206-1.774-1.321-1.491-2.437.209-.8,1.385-1.582,2.039-1.966.266.266.869.732.869.732l.134-.3c.141-.293.52.279.52.279l.444.28.576-.017.294.062a6.646,6.646,0,0,0,.385.719c.148.214.657.2.657.2a3.281,3.281,0,0,0,.645-.6c.2-.3.286-.007.286-.007l.229.5.653-.019.368.137.295.209.369.213.367.13a1.3,1.3,0,0,0,.491-.737c.2-.586.358-.228.358-.228l.357-.011.3.14.723-.381a5.859,5.859,0,0,1,.409-.743l.666.417a.99.99,0,0,0,.414-.661c.067-.442.069-.292.211-.584a1.462,1.462,0,0,0,.2-.737c-.007-.288.286-.152.286-.152l.286-.155a3.858,3.858,0,0,0,.481-1.1,1.356,1.356,0,0,1,.272-.66s.793-.382.853-.676-.607-.929-.691-1.295,0,0-.147-.427-.014-.365-.02-.587.823-.543.823-.543l-.27-.483a24.03,24.03,0,0,0-2.412-3.281,13.805,13.805,0,0,0-1.708-1.192l-.156-.506-.15-.215a.866.866,0,0,0-.3-.279l-.229-.435-.367-.134-.74-.488a4.251,4.251,0,0,0-.93-.541c-.068-.062-.146-.144-.228-.232l.033-.431-.225-.285-.588-.278-1.056-1.351-.966-.92-.295-.208.434-.087a7.489,7.489,0,0,1-1.125-1.2,4.137,4.137,0,0,1-.472-.862l.161.039.443.045.433-.122a1.856,1.856,0,0,1,.436.038c.217.049.172.324.172.324a8.757,8.757,0,0,1,1.139-.246c.269-.007.269-.116.427-.23s.6-.018.6-.018l.159-.006c.168,0,.428-.335.645-.452a.32.32,0,0,1,.386.1s.433-.123.483-.288.538-.287.538-.287l-.052.221s.75-.4.745-.673.22-.12.22-.12l-.009-.213.314-.444.226.264a4.823,4.823,0,0,0,.295-1.2c-.013-.382.039-.443.039-.443l.216-.113.045-.439a3.854,3.854,0,0,0-.351-.916.37.37,0,0,1-.01-.437,1.112,1.112,0,0,0-.232-.484,9.753,9.753,0,0,1-.68-.963,2.408,2.408,0,0,1-.56-.528,1.419,1.419,0,0,0-.445-.428l-.013-.272-.88-.251-.607-.363-.439-.04a13.2,13.2,0,0,1-1.335-.262c2.188-8.971-2.07-10.607-2.07-10.607a.841.841,0,0,0,.177-.653,1.1,1.1,0,0,0-.661-.884l-1.85-.981a1.043,1.043,0,0,0-.455-.084,1.112,1.112,0,0,0-.992.665,1.462,1.462,0,0,0-.065.2,9.674,9.674,0,0,0-2.487-.251.415.415,0,0,0-.067.006c-7.289.069-11.425,6.955-12.251,8.473a43.946,43.946,0,0,0-11.437-2.226c-5.075-.279-8.027,1.168-8.8,2.6a1.971,1.971,0,0,0,.277,2.338l.006.007c2.1,2.661,9.477,4.964,11.6,5.579a.534.534,0,0,0-.11.148.21.21,0,0,0,.059.274c.107.069.194.1.206.151s.1.083.133.2.071.174.057.258a1.367,1.367,0,0,1-.083.282c-.027.086-.062.26-.062.26l.356.319s.161.047.161.133-.049-.031.029.383.633.57.693.6.021.153.159.307a1.339,1.339,0,0,0,.476.316c.144.047.74-.227.847-.125s.158.1.229.2a.547.547,0,0,0,.4.147c.126-.006.345-.042.5-.048a3.764,3.764,0,0,1-.14.808,3.831,3.831,0,0,0-1.906,1.031,1.969,1.969,0,0,0-.637,1.136,1.931,1.931,0,0,0-.195.37c-.7.45-4.16,2.735-5.155,4.362-1.1,1.808-2.644,4.886-1.914,10.844,0,0,.2,1.457.354,1.455a5.435,5.435,0,0,0,.776-.323l.545.59s.847-.1,1.053-.354.72.224.72.224l.285.236.487-.58.039-.569a.32.32,0,0,1,.025-.126c.067,0,.138,0,.209-.005a1.969,1.969,0,0,1,.358.44l.783.144.433.069.423-.014.419-.334.427-.015.36.154.427-.01a6.194,6.194,0,0,0,.41-.586c.2-.329.358.077.358.077l.494-.1.344-.208c.1.275.9.624,1.347,1.546a3.452,3.452,0,0,1-.386,2.935c-.446.8-1.958.522-2.453.838a15.4,15.4,0,0,1-2.234,1.319,3.016,3.016,0,0,0-1.337.646,51.23,51.23,0,0,0-4.42,2.89,33.683,33.683,0,0,0-4.557,5.122c-.344.459-.387.708-.083.807s-.029.606-.029.606l-.292.509c-.292.515-1.005,2-1.005,2a1.527,1.527,0,0,0-.086.51c.007.248-.092.455-.478.968s-1.611,2.312-1.8,2.523-.231.759-.034.7.25-.109.253.149-.3.781-.473,1.625c-1.223,6.051,5.721,6.431,5.721,6.431-.186.5,10.229-4.662,10.632-4.584C8173.9,7937,8197.745,7946.254,8197.711,7946.086Zm-.536-5.133c-.125-.073-.156-.394-.156-.394s.212-.306.26-.4a1.809,1.809,0,0,0-.088-.615c-.03-.1-.32-.761-.343-.907a1.966,1.966,0,0,1,.037-.508,1.235,1.235,0,0,0,.175.044c.081.561.158,1.18.408,1.174s.254.241.26.492-.61.9-.61.9.312.056.38.241c.047.128.121.195.166.335C8197.583,7941.253,8197.284,7941.012,8197.175,7940.953Z" transform="translate(-8155.949 -7869.286)" fill="#00040b" fill-rule="evenodd"/></g><g transform="translate(7.015 44.43)"><path d="M8197.624,7952.2c-.206-.4-.595-.969-.595-.969s-.013-.033-.2.073c-.324.178-.589.4-.338.9s-.365.978-.017,1.456.606.652.317.7a.541.541,0,0,0-.376.885c.32.56,0,1.863.327,2.387a1.509,1.509,0,0,1,.288,1.1c-.043.126-.443-.049-.441.36a4.187,4.187,0,0,0,.239,1.782,2.377,2.377,0,0,1,.354,1.166c-.012.317-.2.211-.077.663s.718-.476.613.133.109,2.063.034,2.586.627-1.915.493-1.364.79-6.714-1.84-6.094c-5.631,1.329-8.4-2.9-14.1-2.752s-8.041-1.033-13.295-3.1c-4.5-1.761-6.025,4.736-5.842,4.13,0,0-7.785-.45-5.495-7.656a45.524,45.524,0,0,1,1.915-4.145,9.383,9.383,0,0,1,1.568-3.4,38.947,38.947,0,0,1,4.973-6.142,14.761,14.761,0,0,1,3.842-2.8,36.928,36.928,0,0,0,5.119-2.359c.895-.587,2.164-.317,2.333-1.4a9.164,9.164,0,0,0,.162-1.45s0-.12-.058-.683c-.013-.164-.032-.318-.045-.449a11.613,11.613,0,0,0,2.513,2.38c1.265.652,4.094.287,4.931-.159.2-.1.4-.212.6-.326a.445.445,0,0,1,.064-.013,3.784,3.784,0,0,0,.893-.458c.1.306.156.3.4.3.307-.012,2.031-3.313,4.566-2.667,1.528.382,2.6.641,3.2.787.061.026.122.048.184.068.738.261.26.392.26.392a2.537,2.537,0,0,0-2.445,1.507c-.637,1.624,1.158,3.723,2.4,4.694s5.64,2.172,6.871,5.364c.886,2.3,1.206,4.658,1.488,5.327s.382.6.368.9a2.022,2.022,0,0,0,.271.98c.2.387.416.38.352.769a1.435,1.435,0,0,0,.105.9,6.972,6.972,0,0,1,.608,1.788" transform="translate(-8157.248 -7924.732)" fill="#b85025" fill-rule="evenodd"/></g><g transform="translate(8.664 12.946)"><path d="M8176.887,7889.38l1,.083,0-.007a.265.265,0,0,1,.033-.037.212.212,0,0,1,.027-.039.15.15,0,0,1,.035-.041c.006-.01.015-.021.024-.035a.261.261,0,0,1,.036-.041.165.165,0,0,1,.02-.035.194.194,0,0,0,.036-.046.2.2,0,0,1,.02-.026.224.224,0,0,1,.039-.044.046.046,0,0,1,.018-.029.546.546,0,0,0,.036-.044.2.2,0,0,0,.02-.026c.013-.013.025-.03.04-.043a.059.059,0,0,1,.014-.022l.036-.048c0-.005.015-.015.015-.021a.537.537,0,0,0,.04-.043l.011-.017c.013-.021.03-.034.039-.054s.008-.009.008-.009c.015-.02.028-.036.042-.053a.047.047,0,0,0,.008-.01.56.56,0,0,1,.044-.052h0c.093-.121.178-.223.255-.32l0,0c.01-.013.02-.032.03-.042a.014.014,0,0,0,.006-.011.141.141,0,0,0,.03-.03l.015-.017a.129.129,0,0,1,.022-.026c0-.007.007-.008.007-.013a.169.169,0,0,0,.024-.027.082.082,0,0,0,.015-.014.059.059,0,0,0,.015-.025l.019-.014a.068.068,0,0,1,.017-.022.045.045,0,0,1,.015-.015.041.041,0,0,1,.012-.017l.01-.017c.007-.008.009-.012.017-.02s.012-.007.012-.015.007-.007.013-.007.008-.015.008-.02.011,0,.011-.009a.1.1,0,0,1,.012-.013.014.014,0,0,1,.009-.008c0-.008.006-.01.012-.013l.007-.008a.011.011,0,0,1,.007-.011v-.007l.012-.012c.252-.282.458-.791.632-.92a2.976,2.976,0,0,1,1.484-.416c.876-.073,1.7-.143,1.848-.168,0,0,.005,0,.005,0h.015l0,0h.006l.01,0h.029l.007,0h.039a.019.019,0,0,1,.009,0c.01,0,.01,0,.02,0h.021a.108.108,0,0,1,.043,0h.006l.025,0h.036c.323-.029.866-.068,1.335-.1-.562-.174-1.511-.482-3.123-1.1a53.588,53.588,0,0,0-14.773-3.389c-4.671-.236-6.869,1.051-7.333,1.365a.235.235,0,0,0,.029.139c.354.674.861,2.374,7.426,4.409A32.086,32.086,0,0,0,8176.887,7889.38Z" transform="translate(-8159.5 -7881.731)" fill="#ffca28" fill-rule="evenodd"/></g><g transform="translate(42.68 21.613)"><path d="M8206.023,7893.633c.018.019.043.039.052.051l0,.007a.516.516,0,0,0,.017-.062.014.014,0,0,0,0,.009,1.26,1.26,0,0,1-.134-.069c.019.023.039.041.056.061Z" transform="translate(-8205.959 -7893.568)" fill="#b85025" fill-rule="evenodd"/></g><g transform="translate(43.56 20.243)"><path d="M8207.162,7891.743c.01-.012.017-.029.029-.044C8207.179,7891.714,8207.172,7891.731,8207.162,7891.743Z" transform="translate(-8207.162 -7891.699)" fill="#b85025" fill-rule="evenodd"/></g><g transform="translate(43.987 19.651)"><path d="M8207.744,7890.952a.731.731,0,0,1,.051-.061A.731.731,0,0,0,8207.744,7890.952Z" transform="translate(-8207.744 -7890.891)" fill="#b85025" fill-rule="evenodd"/></g><g transform="translate(44.323 19.259)"><path d="M8208.2,7890.4a.359.359,0,0,1,.049-.046A.359.359,0,0,0,8208.2,7890.4Z" transform="translate(-8208.203 -7890.355)" fill="#b85025" fill-rule="evenodd"/></g><g transform="translate(44.069 19.501)"><path d="M8207.942,7890.685c-.029.04-.061.075-.087.11C8207.882,7890.76,8207.913,7890.725,8207.942,7890.685Z" transform="translate(-8207.855 -7890.685)" fill="#b85025" fill-rule="evenodd"/></g><g transform="translate(43.756 19.962)"><path d="M8207.428,7891.365a.381.381,0,0,1,.043-.05A.381.381,0,0,0,8207.428,7891.365Z" transform="translate(-8207.428 -7891.314)" fill="#b85025" fill-rule="evenodd"/></g><g transform="translate(43.688 20.06)"><path d="M8207.336,7891.5a.235.235,0,0,1,.039-.049A.235.235,0,0,0,8207.336,7891.5Z" transform="translate(-8207.336 -7891.449)" fill="#b85025" fill-rule="evenodd"/></g><g transform="translate(43.905 19.759)"><path d="M8207.633,7891.1a.237.237,0,0,1,.049-.059A.237.237,0,0,0,8207.633,7891.1Z" transform="translate(-8207.633 -7891.037)" fill="#b85025" fill-rule="evenodd"/></g><g transform="translate(44.156 19.415)"><path d="M8207.975,7890.653a1.047,1.047,0,0,0,.068-.085A1.047,1.047,0,0,1,8207.975,7890.653Z" transform="translate(-8207.975 -7890.568)" fill="#b85025" fill-rule="evenodd"/></g><g transform="translate(43.617 20.15)"><path d="M8207.238,7891.623c.012-.015.025-.036.039-.051C8207.264,7891.587,8207.25,7891.608,8207.238,7891.623Z" transform="translate(-8207.238 -7891.572)" fill="#b85025" fill-rule="evenodd"/></g><g transform="translate(43.828 19.861)"><path d="M8207.527,7891.231a.32.32,0,0,0,.042-.056A.32.32,0,0,1,8207.527,7891.231Z" transform="translate(-8207.527 -7891.176)" fill="#b85025" fill-rule="evenodd"/></g><g transform="translate(44.249 19.339)"><path d="M8208.1,7890.516a.346.346,0,0,1,.05-.051A.346.346,0,0,0,8208.1,7890.516Z" transform="translate(-8208.102 -7890.465)" fill="#b85025" fill-rule="evenodd"/></g><g transform="translate(45.197 18.525)"><path d="M8209.4,7889.376c.011,0,.023-.02.036-.023C8209.42,7889.357,8209.407,7889.372,8209.4,7889.376Z" transform="translate(-8209.396 -7889.353)" fill="#b85025" fill-rule="evenodd"/></g><g transform="translate(44.992 18.666)"><path d="M8209.117,7889.578a.412.412,0,0,1,.036-.031A.412.412,0,0,0,8209.117,7889.578Z" transform="translate(-8209.117 -7889.547)" fill="#b85025" fill-rule="evenodd"/></g><g transform="translate(45.109 18.584)"><path d="M8209.275,7889.458a.1.1,0,0,1,.039-.025A.1.1,0,0,0,8209.275,7889.458Z" transform="translate(-8209.275 -7889.434)" fill="#b85025" fill-rule="evenodd"/></g><g transform="translate(44.399 19.176)"><path d="M8208.356,7890.242a.627.627,0,0,1-.05.047A.627.627,0,0,0,8208.356,7890.242Z" transform="translate(-8208.307 -7890.242)" fill="#b85025" fill-rule="evenodd"/></g><g transform="translate(45.278 18.478)"><path d="M8209.526,7889.287h0c0,.006-.014.006-.021.009S8209.522,7889.293,8209.526,7889.287Z" transform="translate(-8209.506 -7889.287)" fill="#b85025" fill-rule="evenodd"/></g><g transform="translate(44.908 18.732)"><path d="M8209,7889.671a.183.183,0,0,1,.039-.039A.183.183,0,0,0,8209,7889.671Z" transform="translate(-8209.002 -7889.633)" fill="#b85025" fill-rule="evenodd"/></g><g transform="translate(44.658 18.928)"><path d="M8208.66,7889.953l.049-.051Z" transform="translate(-8208.66 -7889.902)" fill="#b85025" fill-rule="evenodd"/></g><g transform="translate(44.741 18.865)"><path d="M8208.773,7889.851l.044-.035Z" transform="translate(-8208.773 -7889.816)" fill="#b85025" fill-rule="evenodd"/></g><g transform="translate(44.477 19.097)"><path d="M8208.414,7890.186a.289.289,0,0,0,.049-.051A.289.289,0,0,1,8208.414,7890.186Z" transform="translate(-8208.414 -7890.134)" fill="#b85025" fill-rule="evenodd"/></g><g transform="translate(44.823 18.797)"><path d="M8208.887,7889.759l.039-.036Z" transform="translate(-8208.887 -7889.723)" fill="#b85025" fill-rule="evenodd"/></g><g transform="translate(44.55 19.001)"><path d="M8208.514,7890.074c.024-.024.051-.048.076-.071C8208.564,7890.026,8208.538,7890.05,8208.514,7890.074Z" transform="translate(-8208.514 -7890.003)" fill="#b85025" fill-rule="evenodd"/></g><g transform="translate(42.876 21.469)"><path d="M8206.227,7893.4a.1.1,0,0,0,.012-.031A.1.1,0,0,1,8206.227,7893.4Z" transform="translate(-8206.227 -7893.371)" fill="#b85025" fill-rule="evenodd"/></g><g transform="translate(42.894 21.418)"><path d="M8206.252,7893.336c0-.009.007-.021.012-.031C8206.259,7893.314,8206.256,7893.327,8206.252,7893.336Z" transform="translate(-8206.252 -7893.305)" fill="#b85025" fill-rule="evenodd"/></g><g transform="translate(42.913 21.366)"><path d="M8206.277,7893.273a.325.325,0,0,1,.017-.041A.325.325,0,0,0,8206.277,7893.273Z" transform="translate(-8206.277 -7893.232)" fill="#b85025" fill-rule="evenodd"/></g><g transform="translate(42.935 21.247)"><path d="M8206.307,7893.177c.013-.032.03-.066.048-.107C8206.337,7893.111,8206.319,7893.145,8206.307,7893.177Z" transform="translate(-8206.307 -7893.07)" fill="#b85025" fill-rule="evenodd"/></g><g transform="translate(42.989 21.191)"><path d="M8206.381,7893.036a.118.118,0,0,0,.021-.044A.118.118,0,0,1,8206.381,7893.036Z" transform="translate(-8206.381 -7892.992)" fill="#b85025" fill-rule="evenodd"/></g><g transform="translate(42.862 21.514)"><path d="M8206.207,7893.463c0-.01.009-.023.009-.029S8206.207,7893.453,8206.207,7893.463Z" transform="translate(-8206.207 -7893.434)" fill="#b85025" fill-rule="evenodd"/></g><g transform="translate(15.451 17.789)"><path d="M8210.025,7909.139c-.525-1.419-2.771-3.611-4.245-4.951-.255-.187-.5-.375-.7-.528a9.18,9.18,0,0,0-2.6-1.441,12.167,12.167,0,0,1-1.991-.9,17.706,17.706,0,0,1,2.757.433,24.9,24.9,0,0,1-2.812-3.393,7.316,7.316,0,0,1-1.039-2.541,9.619,9.619,0,0,0,4.225.149c1.947-.489,3.766-1.282,3.858-3.662s-3.228-3.943-5-3.955a5.72,5.72,0,0,0-.8.07l-.116.02c-.043.007-.088.016-.137.022a13.249,13.249,0,0,0-1.312.339,6.124,6.124,0,0,0-2.094,1.237,8,8,0,0,0-1.441,2.486s-.03.555-.249.4c-.006.006-.017.01-.021.015h0a.051.051,0,0,1-.016.015h0l-.025.01h0s-.011,0-.015.006c-.15.03-.256-.068-1.045-.6s-2.19-1.642-2.877-2.024-2.223-.986-2.374-1.057-.141-.035-.324-.453-.45-.45-.7-.342-.241.374-.533.535-1.8-.155-3.428-.013-1.808.525-3.384,2.292c-.018.013-.031.037-.051.054a.023.023,0,0,0-.011.017c-.015.012-.028.032-.045.047v.007a.689.689,0,0,0-.052.061s-.007.01-.014.017a.388.388,0,0,0-.043.049l-.009.007a.375.375,0,0,1-.051.057.035.035,0,0,1-.012.021c-.015.014-.024.034-.04.05a.016.016,0,0,1-.012.013c-.017.023-.028.041-.048.063-.008.007-.008.012-.011.014a.373.373,0,0,0-.042.053s-.006.013-.011.013c-.02.026-.039.044-.056.066,0,.007-.006.011-.006.014-.02.021-.032.04-.048.06-.006,0-.006.009-.011.015-.021.026-.036.045-.053.069,0,.006,0,.006-.007.008-.013.022-.03.043-.042.063l-.013.01a.664.664,0,0,0-.051.08h-.01c-.015.022-.033.046-.051.07a.189.189,0,0,1-.01.021c-.017.02-.031.042-.045.057s-.009.012-.014.014a.494.494,0,0,1-.051.073c-.007.005-.008.015-.017.019a.612.612,0,0,1-.039.059.034.034,0,0,0-.009.017.829.829,0,0,1-.052.071.177.177,0,0,1-.017.026.276.276,0,0,0-.04.053.042.042,0,0,1-.014.022l-.052.071a.086.086,0,0,1-.013.019.563.563,0,0,1-.044.061.055.055,0,0,1-.012.027c-.02.022-.029.049-.051.073,0,.009-.013.013-.014.02l-.042.058c0,.008-.014.015-.014.025-.02.024-.036.05-.054.075a.03.03,0,0,0-.008.015c-.015.017-.028.043-.048.067a.076.076,0,0,1-.011.021.81.81,0,0,0-.051.073.027.027,0,0,0-.009.016c-.014.021-.028.044-.048.068,0,.008-.013.015-.013.027a.461.461,0,0,0-.041.063c-.008,0-.008.01-.01.015-.02.026-.034.053-.052.08,0,0-.012.017-.019.023a.418.418,0,0,0-.039.06c-.007.007-.007.013-.012.02a.371.371,0,0,0-.049.08c-.013,0-.015.015-.02.022a.494.494,0,0,0-.036.061c0,.008-.011.015-.018.024s-.027.046-.047.073a.067.067,0,0,0-.013.027.151.151,0,0,0-.035.058c-.006.008-.017.015-.02.021-.017.027-.031.049-.044.074s-.01.018-.022.027a.348.348,0,0,1-.034.056.072.072,0,0,0-.012.029c-.02.026-.031.048-.049.073,0,.007-.012.013-.017.021a.4.4,0,0,0-.031.058c0,.01-.018.02-.018.027-.017.024-.029.048-.044.073a.065.065,0,0,0-.015.013.635.635,0,0,1-.041.066.031.031,0,0,1-.015.027c-.01.019-.022.041-.031.061a.149.149,0,0,0-.021.023l-.039.069a.261.261,0,0,0-.02.03.418.418,0,0,0-.034.051.033.033,0,0,1-.013.022c-.018.023-.027.05-.043.07a.111.111,0,0,1-.013.027c-.013.021-.023.041-.032.058a.093.093,0,0,0-.017.023.448.448,0,0,0-.041.072c-.006,0-.013.015-.018.018-.007.022-.02.037-.026.055a.09.09,0,0,0-.019.027.432.432,0,0,0-.042.068s-.008.015-.014.018a.554.554,0,0,1-.03.056c0,.012-.006.015-.013.029a.345.345,0,0,0-.038.066c-.009,0-.009.007-.014.01a.559.559,0,0,1-.034.058.2.2,0,0,1-.012.024.631.631,0,0,0-.041.063v.009c-.015.027-.031.044-.042.066a.046.046,0,0,0-.012.02c-.014.022-.021.042-.034.061l-.007.01c-.013.02-.024.044-.041.066a.051.051,0,0,0-.008.018.3.3,0,0,0-.031.057s0,0,0,.007a.357.357,0,0,0-.034.066c-.01.007-.015.011-.017.017a.21.21,0,0,0-.029.056c-.008,0-.008.007-.008.007-.012.022-.026.041-.037.063a.053.053,0,0,1,0,.014.562.562,0,0,1-.036.053.013.013,0,0,0,0,.008.653.653,0,0,1-.039.065v0a.441.441,0,0,1-.033.058v0c-.03.047-.053.085-.074.126h0c-.069.243-.1.427-.1.427l-.367,1.076s-6.194,3.279-7.666,6.382a18.244,18.244,0,0,0-1.083,9.1c.266,1.249,1.455.781,2.53.753a27,27,0,0,0,3.9-.221c.939-.209,2.39-.683,3.271-.266a.185.185,0,0,1,.032.027,6.3,6.3,0,0,1,1.5.873,20.73,20.73,0,0,0,3.476,2.569,4.076,4.076,0,0,0,2.859.266,21.893,21.893,0,0,1,2.761-.616c.064-.036.134-.078.194-.117.1-.067.207-.131.31-.2a4.88,4.88,0,0,0,.884-.9c.812-1.085.836-1.638,2.908-1.557a12.5,12.5,0,0,1,4.128,1.245c.491.176.828.326.89.358a20.125,20.125,0,0,0,3.418,1.292c.883.1,1.2-.027,1.768.333a4.493,4.493,0,0,0,4.4-.793C8210.215,7915.031,8211.376,7912.778,8210.025,7909.139Zm-11.374-16.52.013-.029.014-.02a3.933,3.933,0,0,1,2.791-1.438h.173a5.472,5.472,0,0,1,3.127,1.076c.017.013.038.024.051.035.275.2.37.328.331.463a.216.216,0,0,1-.22.145.984.984,0,0,1-.162-.017,3.017,3.017,0,0,1-.55-.244,4.7,4.7,0,0,0-1.13-.46,5.054,5.054,0,0,0-1.224-.13,3.173,3.173,0,0,0-.627.079c-.348.095-.38.195-.4.268v0l.521.037-.114.116.226-.011-.041.1.1,0,.394.311-.2.07-.107.264-.341.064-.032-.006a13.706,13.706,0,0,0-1.781-.242.39.39,0,0,0-.1.01,1.593,1.593,0,0,1-.24.034h0a.475.475,0,0,1-.421-.158A.346.346,0,0,1,8198.651,7892.619Zm4.023,13.337a2.737,2.737,0,0,0-1.04-.747l0,.231a6.221,6.221,0,0,1-.469,1.661,3.77,3.77,0,0,1-1.99,1.664,12.762,12.762,0,0,1-2.613.455,7.8,7.8,0,0,0-1.861,1.141,24.347,24.347,0,0,1-5.191,2.971,10.663,10.663,0,0,1-7.475.6,12.894,12.894,0,0,1-4.053-2.116,9.743,9.743,0,0,0-1.9-1.081c-.588-.238-1.436-.69-2.492-1.207s-2.257-.751-2.7-1.491a5.732,5.732,0,0,1-.24-2.573,2.506,2.506,0,0,0-.481.907c-.164.372-.03-.613.044-.961a1.163,1.163,0,0,1,.828-.825c.423-.1.588.2.5.287a1.349,1.349,0,0,1-.48.134s-.022.244-.011.956a4.851,4.851,0,0,0,.375,1.7c.208.686,1.757,1.007,2.418,1.233s1.718.781,2.519,1.027a5.152,5.152,0,0,0,2.218-.041,1.329,1.329,0,0,0,.689-.365,9.267,9.267,0,0,0-.324-1.048,10.529,10.529,0,0,1-.25-2.414c-.044-.79.067-2.162.059-2.387s-.011-.484.168-.489.408-.122.33.969a11.6,11.6,0,0,0,.37,3.418,3.983,3.983,0,0,0,2.788,2.8,7.424,7.424,0,0,0,3.325.358,20.689,20.689,0,0,0,4.713-1.034,25.344,25.344,0,0,1,5.549-1.457,12.375,12.375,0,0,0,3.213-.411,3.015,3.015,0,0,0,1.579-1.6c.235-.625.445-1.09.338-1.293a2.281,2.281,0,0,0-1.011-.616c-.34-.113-.075-.156-.075-.156,2.229-.083,2.619,1.261,2.707,1.662S8202.675,7905.957,8202.675,7905.957Z" transform="translate(-8168.771 -7888.348)" fill="#b85025" fill-rule="evenodd"/></g><g transform="translate(43.498 20.331)"><path d="M8207.076,7891.863c.007-.011.021-.031.029-.043C8207.1,7891.833,8207.083,7891.852,8207.076,7891.863Z" transform="translate(-8207.076 -7891.82)" fill="#b85025" fill-rule="evenodd"/></g><g transform="translate(42.844 21.555)"><path d="M8206.182,7893.519c.007-.012.007-.02.013-.029C8206.188,7893.5,8206.188,7893.507,8206.182,7893.519Z" transform="translate(-8206.182 -7893.49)" fill="#b85025" fill-rule="evenodd"/></g><g transform="translate(43.019 21.132)"><path d="M8206.422,7892.955a.369.369,0,0,1,.02-.041A.369.369,0,0,0,8206.422,7892.955Z" transform="translate(-8206.422 -7892.914)" fill="#b85025" fill-rule="evenodd"/></g><g transform="translate(42.834 21.596)"><path d="M8206.168,7893.569c0-.007.007-.013.007-.024C8206.175,7893.556,8206.168,7893.562,8206.168,7893.569Z" transform="translate(-8206.168 -7893.544)" fill="#b85025" fill-rule="evenodd"/></g><g transform="translate(42.82 21.636)"><path d="M8206.148,7893.621s.007-.009.011-.018C8206.155,7893.611,8206.148,7893.618,8206.148,7893.621Z" transform="translate(-8206.148 -7893.603)" fill="#b85025" fill-rule="evenodd"/></g><g transform="translate(43.288 20.657)"><path d="M8206.791,7892.3a.081.081,0,0,1,.022-.039A.081.081,0,0,0,8206.791,7892.3Z" transform="translate(-8206.791 -7892.266)" fill="#b85025" fill-rule="evenodd"/></g><g transform="translate(43.048 21.072)"><path d="M8206.463,7892.868l.025-.037Z" transform="translate(-8206.463 -7892.832)" fill="#b85025" fill-rule="evenodd"/></g><g transform="translate(43.384 20.499)"><path d="M8206.92,7892.089a.15.15,0,0,0,.029-.041A.15.15,0,0,1,8206.92,7892.089Z" transform="translate(-8206.92 -7892.049)" fill="#b85025" fill-rule="evenodd"/></g><g transform="translate(43.44 20.417)"><path d="M8207,7891.979a.089.089,0,0,1,.034-.042A.089.089,0,0,0,8207,7891.979Z" transform="translate(-8206.998 -7891.938)" fill="#b85025" fill-rule="evenodd"/></g><g transform="translate(43.243 20.73)"><path d="M8206.727,7892.41c.011-.015.013-.03.023-.044C8206.739,7892.38,8206.737,7892.395,8206.727,7892.41Z" transform="translate(-8206.727 -7892.365)" fill="#b85025" fill-rule="evenodd"/></g><g transform="translate(43.335 20.578)"><path d="M8206.854,7892.2a.178.178,0,0,0,.023-.041A.178.178,0,0,1,8206.854,7892.2Z" transform="translate(-8206.854 -7892.156)" fill="#b85025" fill-rule="evenodd"/></g><g transform="translate(43.121 20.947)"><path d="M8206.561,7892.694a.248.248,0,0,1,.02-.034A.248.248,0,0,0,8206.561,7892.694Z" transform="translate(-8206.561 -7892.66)" fill="#b85025" fill-rule="evenodd"/></g><g transform="translate(43.197 20.805)"><path d="M8206.664,7892.505c.012-.015.012-.025.024-.041C8206.676,7892.48,8206.676,7892.491,8206.664,7892.505Z" transform="translate(-8206.664 -7892.465)" fill="#b85025" fill-rule="evenodd"/></g><g transform="translate(43.087 21.01)"><path d="M8206.516,7892.78a.138.138,0,0,1,.019-.034A.138.138,0,0,0,8206.516,7892.78Z" transform="translate(-8206.516 -7892.746)" fill="#b85025" fill-rule="evenodd"/></g><g transform="translate(43.156 20.876)"><path d="M8206.609,7892.6a.118.118,0,0,0,.019-.039A.118.118,0,0,1,8206.609,7892.6Z" transform="translate(-8206.609 -7892.563)" fill="#b85025" fill-rule="evenodd"/></g><g transform="translate(8.664 12.946)"><path d="M8166.833,7881.76c-4.671-.236-6.869,1.051-7.333,1.365a.235.235,0,0,0,.029.139c.354.674.861,2.374,7.426,4.409a32.086,32.086,0,0,0,9.931,1.707l1,.083c.614-.81,1.156-1.447,1.268-1.581.248-.281.453-.789.628-.918a2.976,2.976,0,0,1,1.484-.416c.876-.073,1.7-.143,1.848-.168a2.852,2.852,0,0,1,.39-.042c.707.06,1.224.088,1.375.1.128.012.382.037.664.068-.255-.126-.949-.219-3.941-1.357A53.588,53.588,0,0,0,8166.833,7881.76Z" transform="translate(-8159.5 -7881.731)" fill="#ffc600" fill-rule="evenodd"/></g><g transform="translate(8.879 4.306)"><path d="M8197.51,7872.056a.545.545,0,0,0,.411-.32.615.615,0,0,0-.215-.8l-1.61-.939a.512.512,0,0,0-.723.248.621.621,0,0,0,.217.8l.509.3a10.19,10.19,0,0,0-9.113.643c-3.168,1.669-5.672,5.816-6.405,7.062a.007.007,0,0,1,.006.006,40.572,40.572,0,0,1,6.08,2.651c.611.355.591.58.541.68-.231.476-3.319-1.373-4.951-2.039-2.325-.956-4.9-1.778-6.417-2.243a47.977,47.977,0,0,0-6.251-1.107c-2.523-.2-8.856.309-9.793,2.353.891-.55,4.108-1.754,11.42-.917a57.159,57.159,0,0,1,15.3,4.306.532.532,0,0,1,.406-.071,1.049,1.049,0,0,1,.394.227,9.85,9.85,0,0,1,.85.723,6.12,6.12,0,0,0,.9.577c1.136.715,2.984,1.684,3.546,2.143.3.244.684.608.988.9.046.026.095.051.136.07a.021.021,0,0,1,0-.012s0-.007,0-.015a.074.074,0,0,1,.01-.021l0-.015c0-.009.008-.017.008-.023a.04.04,0,0,0,0-.015.075.075,0,0,0,.011-.026c0-.005,0-.005.009-.013a.242.242,0,0,1,0-.029l.008-.014a.152.152,0,0,0,.013-.032.027.027,0,0,1,0-.012.14.14,0,0,0,.015-.036.016.016,0,0,1,0-.013c.007-.014.012-.031.018-.042a.014.014,0,0,0,0-.009c.016-.034.03-.071.048-.109,0,0,.006-.01.008-.013a.158.158,0,0,1,.024-.042.028.028,0,0,1,.006-.018c.007-.018.014-.03.02-.042s0-.015.012-.024.012-.024.019-.036a.1.1,0,0,1,.019-.027.1.1,0,0,1,.02-.035.053.053,0,0,1,.014-.028c.006-.012.016-.025.02-.034l.017-.032a.411.411,0,0,0,.02-.039.114.114,0,0,0,.02-.032c.013-.015.016-.026.025-.039a.206.206,0,0,1,.021-.032.353.353,0,0,1,.021-.043.11.11,0,0,0,.024-.034.079.079,0,0,1,.022-.039.19.19,0,0,0,.023-.039.059.059,0,0,0,.022-.041.062.062,0,0,0,.024-.037c.015-.01.021-.03.035-.042s.015-.022.022-.041a.257.257,0,0,1,.033-.042.448.448,0,0,1,.025-.04.171.171,0,0,1,.032-.046c0-.015.02-.027.029-.043a.3.3,0,0,1,.03-.044c.009-.013.019-.032.025-.043s.029-.037.042-.049a.528.528,0,0,1,.031-.043.229.229,0,0,1,.039-.049c0-.015.015-.027.029-.046s.026-.034.041-.05a.334.334,0,0,1,.031-.045.429.429,0,0,0,.04-.058.108.108,0,0,0,.036-.042.231.231,0,0,1,.05-.06.185.185,0,0,1,.032-.048c.017-.019.032-.04.052-.059a.2.2,0,0,1,.029-.042c.026-.036.059-.071.087-.109s.047-.056.07-.083c.008-.006.01-.019.018-.026s.031-.037.051-.054a.112.112,0,0,1,.027-.027c.02-.019.033-.036.052-.053s.016-.019.021-.029.043-.044.064-.066c0,0,.009,0,.009-.009a.624.624,0,0,0,.072-.076.2.2,0,0,0,.024-.019.414.414,0,0,1,.056-.052.26.26,0,0,1,.027-.022c.019-.019.036-.033.053-.048s.016-.018.027-.024.044-.038.063-.053c0-.01.009-.01.009-.01.032-.026.061-.049.086-.073.007,0,.015,0,.02-.009.023-.021.038-.036.058-.054s.021-.015.032-.021a.5.5,0,0,1,.061-.041l.022-.024c.024-.012.043-.032.07-.044,0,0,.007-.009.012-.012a.683.683,0,0,1,.088-.061l.017-.009c.021-.015.044-.034.066-.049a.092.092,0,0,1,.026-.012l.063-.041a.09.09,0,0,1,.028-.015c.021-.015.045-.03.07-.05a.02.02,0,0,0,.012-.006.464.464,0,0,0,.09-.056h.008a.453.453,0,0,1,.079-.043c.008-.005.015-.013.022-.017s.051-.021.07-.034.015-.008.022-.015a.712.712,0,0,1,.071-.037c.007-.007.013-.007.013-.01l.179-.09a.031.031,0,0,0,.021-.009c.024-.01.049-.021.073-.029a.033.033,0,0,1,.017-.014.64.64,0,0,0,.075-.034.044.044,0,0,1,.015-.006c.062-.026.12-.053.179-.08.006,0,.012,0,.015,0a.373.373,0,0,0,.075-.031s.017,0,.024,0a.323.323,0,0,1,.063-.027l.022-.013a1.337,1.337,0,0,0,.168-.065l.016,0,.071-.025a.021.021,0,0,1,.019-.007.3.3,0,0,0,.063-.023.14.14,0,0,0,.02,0c.028-.008.053-.018.085-.03h0c.026-.005.054-.017.08-.025l.017-.007a.438.438,0,0,0,.063-.021l.022,0c.018-.008.034-.013.056-.022a.077.077,0,0,0,.024,0,.321.321,0,0,1,.063-.02l.007,0c.034-.012.054-.013.078-.022a.036.036,0,0,1,.015,0,.257.257,0,0,0,.061-.019.065.065,0,0,0,.021,0c.015-.006.034-.01.044-.015s.021,0,.027-.01a.372.372,0,0,1,.05-.007.02.02,0,0,1,.018-.008c.022-.007.047-.012.068-.02h.019c.016,0,.03-.007.042-.011a.217.217,0,0,1,.03-.008c.01,0,.019-.006.036-.009a.033.033,0,0,0,.021-.006.218.218,0,0,0,.039-.006s.02,0,.029-.007a.062.062,0,0,0,.021,0,.516.516,0,0,0,.062-.015.048.048,0,0,0,.02,0,.326.326,0,0,0,.037-.007l.015,0c.013,0,.023,0,.032,0h.01c.057-.014.119-.02.164-.031.152-.477.382-1.237.64-2.282C8200.406,7878.752,8200.688,7873.966,8197.51,7872.056Zm-5.115,12.622c-.174.188-.5.085-.873-.161a14.629,14.629,0,0,0-2.019-.991c-.625-.236-1.056-.41-1.063-.629s.144-.375.477-.238c0,0,1.467.578,2.127.812s1.208.4,1.325.658S8192.57,7884.493,8192.395,7884.678Z" transform="translate(-8159.795 -7869.931)" fill="#ffc600" fill-rule="evenodd"/></g><g transform="translate(27.525 21.011)"><path d="M8194.833,7897.469a4.383,4.383,0,0,1-.178,2.549c-.341.9-.956.927-.956.927a8.245,8.245,0,0,1-3.1-1.02c-.86-.711-5.191-1.771-5.191-1.771a5.667,5.667,0,0,1,.128-3,4.184,4.184,0,0,1,1.9-2.277,2.03,2.03,0,0,1,2.459.875.511.511,0,0,0,.268.12s.2-.231.326-.36a1.645,1.645,0,0,1,1.749-.489C8194.118,7893.429,8194.608,7896.234,8194.833,7897.469Z" transform="translate(-8185.261 -7892.747)" fill="#fff" fill-rule="evenodd"/></g><g transform="translate(24.915 38.906)"><path d="M8197.377,7917.278c-.472.116-3.5,1.272-4.845,1.681a14.489,14.489,0,0,1-4.992.736,10.3,10.3,0,0,1-4.229-1.63,2.648,2.648,0,0,1-1.375.555c-.35.048-.269.128-.073.294s.778.538.778.538a.524.524,0,0,0,.4-.01c.241-.09.266-.009.519.253a4.037,4.037,0,0,0,1.416.978,3.568,3.568,0,0,0,1.557.125c.124-.065.139-.333.139-.333a1.472,1.472,0,0,0,.425.4,5.487,5.487,0,0,0,1.738.056,2.713,2.713,0,0,0,1.956-.571c.161-.19.513-.2.948-.171a1.209,1.209,0,0,0,1.6-.849c.056-.146.289-.051.518.046a1.135,1.135,0,0,0,.709.127c.286-.052.69-.558.853-.787s.36-.219.591-.185a.673.673,0,0,0,.578-.117c.221-.153,1.338-1.158,1.338-1.158C8198,7917.156,8197.849,7917.163,8197.377,7917.278Z" transform="translate(-8181.696 -7917.187)" fill="#b85025" fill-rule="evenodd"/></g><g transform="translate(23.805 33.487)"><path d="M8180.179,7910.179a.373.373,0,0,0,.388.37.387.387,0,0,0,.376-.389.381.381,0,0,0-.389-.373A.386.386,0,0,0,8180.179,7910.179Z" transform="translate(-8180.179 -7909.787)" fill="#00040b" fill-rule="evenodd"/></g><g transform="translate(22.06 33.467)"><path d="M8177.8,7910.173a.4.4,0,0,0,.411.393.41.41,0,0,0,.4-.413.4.4,0,0,0-.411-.392A.412.412,0,0,0,8177.8,7910.173Z" transform="translate(-8177.796 -7909.761)" fill="#00040b" fill-rule="evenodd"/></g><g transform="translate(22.037 31.059)"><path d="M8177.765,7906.873a.395.395,0,0,0,.789-.015.389.389,0,0,0-.4-.388A.405.405,0,0,0,8177.765,7906.873Z" transform="translate(-8177.765 -7906.471)" fill="#00040b" fill-rule="evenodd"/></g><g transform="translate(20.731 32.102)"><path d="M8175.982,7908.3a.388.388,0,0,0,.4.384.4.4,0,0,0,.388-.406.386.386,0,0,0-.394-.38A.394.394,0,0,0,8175.982,7908.3Z" transform="translate(-8175.982 -7907.896)" fill="#00040b" fill-rule="evenodd"/></g><g transform="translate(20.01 33.917)"><path d="M8175,7910.771a.39.39,0,0,0,.4.385.4.4,0,0,0,.392-.4.379.379,0,0,0-.4-.381A.4.4,0,0,0,8175,7910.771Z" transform="translate(-8174.996 -7910.374)" fill="#00040b" fill-rule="evenodd"/></g><g transform="translate(22.686 32.102)"><path d="M8178.65,7908.294a.386.386,0,0,0,.4.381.4.4,0,0,0,.4-.4.379.379,0,0,0-.4-.379A.4.4,0,0,0,8178.65,7908.294Z" transform="translate(-8178.65 -7907.896)" fill="#00040b" fill-rule="evenodd"/></g><g transform="translate(28.557 33.467)"><path d="M8186.67,7910.164a.38.38,0,0,0,.4.378.391.391,0,0,0,.389-.4.385.385,0,0,0-.4-.382A.4.4,0,0,0,8186.67,7910.164Z" transform="translate(-8186.67 -7909.761)" fill="#00040b" fill-rule="evenodd"/></g><g transform="translate(30.895 33.351)"><path d="M8189.863,7910.005a.394.394,0,0,0,.4.379.4.4,0,0,0,.394-.4.394.394,0,0,0-.4-.382A.408.408,0,0,0,8189.863,7910.005Z" transform="translate(-8189.863 -7909.6)" fill="#00040b" fill-rule="evenodd"/></g><g transform="translate(32.827 31.775)"><path d="M8192.5,7907.85a.4.4,0,0,0,.8-.019.39.39,0,0,0-.4-.38A.4.4,0,0,0,8192.5,7907.85Z" transform="translate(-8192.502 -7907.451)" fill="#00040b" fill-rule="evenodd"/></g><g transform="translate(29.334 31.923)"><path d="M8187.732,7908.053a.386.386,0,0,0,.4.382.407.407,0,0,0,.391-.4.386.386,0,0,0-.4-.379A.393.393,0,0,0,8187.732,7908.053Z" transform="translate(-8187.732 -7907.652)" fill="#00040b" fill-rule="evenodd"/></g><g transform="translate(30.729 31.067)"><path d="M8189.637,7906.883a.384.384,0,0,0,.4.382.4.4,0,0,0,.387-.4.383.383,0,0,0-.4-.38A.392.392,0,0,0,8189.637,7906.883Z" transform="translate(-8189.637 -7906.482)" fill="#00040b" fill-rule="evenodd"/></g><g transform="translate(8.935 13.276)"><path d="M8166.907,7882.19s-4.132-.118-5.676.562c-.834.362-1.36.626-1.36.626s.416,2.032,7.558,4.332a26.17,26.17,0,0,0,7.949,1.477s-.056-.229-.951-.39a36.54,36.54,0,0,1-10.788-3.463C8161.07,7884.045,8162.41,7882.454,8166.907,7882.19Z" transform="translate(-8159.871 -7882.182)" fill="#ffa800" fill-rule="evenodd"/></g><g transform="translate(33.093 24.076)"><path d="M8192.867,7898.524c.039.88.373,1.591.75,1.6s.648-.712.617-1.6-.373-1.591-.749-1.591S8192.832,7897.646,8192.867,7898.524Z" transform="translate(-8192.864 -7896.934)" fill="#00040b" fill-rule="evenodd"/></g><g transform="translate(29.394 18.815)"><path d="M8188.271,7891.172a3,3,0,0,1,1.237-.528,4.5,4.5,0,0,0,.85.005c.238-.046.312-.168.219-.289s-.219-.2-.219-.289-.36-.272-.866-.32a2.058,2.058,0,0,0-1.384.574c-.248.239-.367.479-.248.72A.262.262,0,0,0,8188.271,7891.172Z" transform="translate(-8187.813 -7889.747)" fill="#00040b" fill-rule="evenodd"/></g><g transform="translate(21.812 20.997)"><path d="M8186.446,7898.985a3.831,3.831,0,0,0-.745-.588c.3-.149.51-.791.478-1.557-.039-.878-.373-1.594-.748-1.594s-.657.711-.616,1.591a2.774,2.774,0,0,0,.313,1.246,6.272,6.272,0,0,0-1.651-.528,2.286,2.286,0,0,1-.191-.562,1.66,1.66,0,0,1,.045-1.048,5.472,5.472,0,0,0,.392-.708.856.856,0,0,0,.03-.39s.17-.163.216-.224a.736.736,0,0,0,.188-.355c.023-.153-.083-.045.023-.153s.242-.027.388-.249.148-.347.277-.416a.809.809,0,0,0,.29-.258.327.327,0,0,0,.051-.206s-.075-.3-.356-.25a1.244,1.244,0,0,0-.583.364.609.609,0,0,0-.277.419c-.01.2-.28.2-.316.369s-.176.259-.2.392-.144.128-.093.248-.133.255-.185.355-.163.166-.15.308-.225.342-.319.52a3.045,3.045,0,0,0-.08,1.091c.027.184.069.452.1.654-2.216-.208-3.667.161-4.635,1.146-1,1.022-.6,1.617-.326,2.458a7.985,7.985,0,0,0,2.235,2.674c.615.442,2.242.116,3.082-.259a6,6,0,0,0,2.673-2.167,2.878,2.878,0,0,0,.275-1.713C8185.957,7899.244,8186.284,7899.519,8186.446,7898.985Z" transform="translate(-8177.456 -7892.729)" fill="#00040b" fill-rule="evenodd"/></g><g transform="translate(33.289 18.798)"><path d="M8194.9,7889.763a1.219,1.219,0,0,0-.586,0c-.212.07-.406.121-.406.121a1,1,0,0,0-.511.091.645.645,0,0,0-.266.584c0,.243.555.194.87.195a2.922,2.922,0,0,1,1.66.712,6.953,6.953,0,0,1,.866.993.608.608,0,0,0,.677.2c.17-.073.245-.514,0-.871a9.414,9.414,0,0,0-1.25-1.338c-.262-.221-.24-.221-.386-.268a.826.826,0,0,1-.362-.244A.552.552,0,0,0,8194.9,7889.763Z" transform="translate(-8193.133 -7889.724)" fill="#00040b" fill-rule="evenodd"/></g><g transform="translate(31.139 26.542)"><path d="M8201.359,7905.5c-.193-.18-.382-.178-.647-.319-.014-.006-.031-.017-.043-.023a6.586,6.586,0,0,0-.593-.341c.022-.095.025-.219-.056-.253-.154-.076-.607-.173-1.291-.421a1.726,1.726,0,0,0-.871-.146c-.209-.073-.4-.148-.6-.222a1.916,1.916,0,0,1-.129-.267c-.162-.37-.231-.068-.947-.165h0c-.069-.03-.142-.057-.2-.086.133-.006.193-.046.223-.107a1.686,1.686,0,0,0,.318-1.22c-.009-.272.124-.432.072-.539a.411.411,0,0,1,.014-.354,1.288,1.288,0,0,0,.073-.5c-.014-.187-.194-.219-.344-.226a.21.21,0,0,0-.245.195,3.382,3.382,0,0,1-.479,1.566,1.538,1.538,0,0,1-.936.543.2.2,0,0,0-.1.053c-.069-.026-.134-.048-.185-.068-.336-.124-1.335-.669-2.493-1.083s-1.24-.524-1.54-.468c-.2.041-.219.036-.044.423a.824.824,0,0,0,.5.5c.613.2,3.436,1.418,5.285,2.111l1.218.467a1.206,1.206,0,0,1,.134.085.743.743,0,0,0,.36.109c.23.085.462.176.69.251a2.633,2.633,0,0,1,.706.42c.31.292,1.021.2,1.321.228a3.074,3.074,0,0,1,.722.208c.115.034.184,0,.3-.158S8201.557,7905.683,8201.359,7905.5Z" transform="translate(-8190.197 -7900.304)" fill="#00040b" fill-rule="evenodd"/></g><g transform="translate(33.621 20.644)"><path d="M8193.586,7892.461a.666.666,0,0,0,.1.309.449.449,0,0,0,.434.2,2.062,2.062,0,0,1,.818.125c.326.127.438.387.645.481s.205.113.218.283a1.445,1.445,0,0,0,.382.645c.137.136.338.313.51.2s.115-.581-.162-.911-.289-.413-.469-.528-.312-.121-.326-.189a3.47,3.47,0,0,0-.411-.522c-.2-.221-.214-.285-.488-.277s-.258.136-.468.038S8193.621,7892.191,8193.586,7892.461Z" transform="translate(-8193.586 -7892.247)" fill="#00040b" fill-rule="evenodd"/></g><g transform="translate(36.441 23.487)"><path d="M8198.009,7896.344a6.179,6.179,0,0,1,.189.747c.014.168.014.168-.077.265a.189.189,0,0,0,0,.294,1.651,1.651,0,0,1,.244.579,1.775,1.775,0,0,1-.024.543c-.056.125-.248.282-.421-.088a8.292,8.292,0,0,1-.372-1.651c-.061-.425-.2-.555-.044-.715S8197.843,7895.981,8198.009,7896.344Z" transform="translate(-8197.438 -7896.131)" fill="#00040b" fill-rule="evenodd"/></g><g transform="translate(30.266 20.541)"><path d="M8189.491,7892.122a1.963,1.963,0,0,1,.591.358.888.888,0,0,0,.483.353c.2.041.58.107.533.36-.045.217-.027.577-.316.412-.238-.137-.6-.448-.905-.643s-.367-.119-.666-.326S8188.877,7892.015,8189.491,7892.122Z" transform="translate(-8189.004 -7892.104)" fill="#00040b" fill-rule="evenodd"/></g><g transform="translate(22.49 26.435)"><path d="M8181,7900.205a9.408,9.408,0,0,0-1.758.575,1.557,1.557,0,0,0-.832.8,3.544,3.544,0,0,0,1.456,2.625c1.119.893,1.271,1.139,3.1.379s2.621-1.632,2.708-2.382.262-.824.11-1.1S8185.459,7899.939,8181,7900.205Z" transform="translate(-8178.384 -7900.156)" fill="#a6aab0" fill-rule="evenodd"/></g><g transform="translate(24.555 26.453)"><path d="M8186.531,7901.106c-.12-.216-.243-.8-2.436-.927.365.212,1.332.811,1.342,1.156a.837.837,0,0,1-.826.9c-.594.051-3.029.077-3.207.195a.807.807,0,0,0-.151.848c.111.349.338.8.136,1.023a.746.746,0,0,0-.156.388c.649.47,1.049.493,2.479-.1,1.827-.759,2.62-1.632,2.708-2.382S8186.681,7901.384,8186.531,7901.106Z" transform="translate(-8181.204 -7900.179)" fill="#6c6e73" fill-rule="evenodd"/></g><g transform="translate(24.213 27.142)"><path d="M8184.605,7901.123c.09-.021.779.114.854.5s.1.774-.746,1a22.965,22.965,0,0,1-2.809.321,1.461,1.461,0,0,1-.521-.083,5.672,5.672,0,0,1,.168,1.26c-.075.2-.368.5-.521-.062a8.826,8.826,0,0,1-.3-1.416c0-.21.086-.309.826-.248a15.913,15.913,0,0,0,2.737-.127C8185.711,7901.871,8184.429,7901.164,8184.605,7901.123Z" transform="translate(-8180.736 -7901.121)" fill="#00040b"/></g><g transform="translate(24.896 38.901)"><path d="M8197.886,7917.257s-1.113,1-1.334,1.151a.637.637,0,0,1-.574.121c-.234-.034-.438-.052-.6.182s-.564.74-.851.787a1.147,1.147,0,0,1-.709-.124c-.23-.1-.462-.193-.516-.047a1.661,1.661,0,0,1-.607.779,1.77,1.77,0,0,1-.986.072c-.437-.033-.792-.024-.951.166a2.714,2.714,0,0,1-1.957.573,5.242,5.242,0,0,1-1.737-.061,1.457,1.457,0,0,1-.427-.405s-.013.27-.132.342a3.658,3.658,0,0,1-1.559-.127,4.023,4.023,0,0,1-1.414-.978c-.257-.263-.283-.346-.525-.258a.49.49,0,0,1-.392.008s-.593-.377-.783-.533-.275-.245.075-.292a2.633,2.633,0,0,0,1.375-.557,10.239,10.239,0,0,0,4.229,1.632,14.6,14.6,0,0,0,4.992-.734c1.339-.411,4.371-1.567,4.847-1.687S8197.971,7917.149,8197.886,7917.257Z" transform="translate(-8181.669 -7917.179)" fill="#fff" fill-rule="evenodd"/></g><g transform="translate(21.183 21.045)"><path d="M8182.147,7893.164s-1.893,2.921-1.958,3.063a6.256,6.256,0,0,0-.783-.177,4.526,4.526,0,0,1-1.36-.314,2.714,2.714,0,0,1-.9-1.1c-.025-.159-.025-.159.185-.239s.195-.164.195-.164a2.184,2.184,0,0,1-.613-.342,1.377,1.377,0,0,1-.283-.723c-.021-.251-.068-.274.022-.347s.55.039.55.039S8179.615,7893.089,8182.147,7893.164Z" transform="translate(-8176.598 -7892.793)" fill="#b85025" fill-rule="evenodd"/></g><g transform="translate(13.61 70.812)"><path d="M8200.473,7966.241s-.437,11.982-4.041,13.1-15.923,2.491-17.917,1.99-6.969.747-9.078-3.482-3.954-4.817-2.852-7.821,1.479-5.243,3.1-6.36,6.221-3.235,9.452-2.86,3.852.119,7.092.871a20.487,20.487,0,0,1,7.09,2.987C8194.439,7965.538,8200.473,7966.241,8200.473,7966.241Z" transform="translate(-8166.254 -7960.765)" fill="#ffc600" fill-rule="evenodd"/></g><g transform="translate(39.583 5.14)"><path d="M8209.217,7883.312c.439-.137.943-.26,1.173-.317a11.712,11.712,0,0,0,.348-7.371c-.881-3.313-4.07-4.068-5.323-4.4a8.79,8.79,0,0,0-3.686.156,9.673,9.673,0,0,1,2.213-.054,11.707,11.707,0,0,1,1.887.321C8211.493,7874.1,8210.312,7880.139,8209.217,7883.312Z" transform="translate(-8201.729 -7871.071)" fill="#ffa800" fill-rule="evenodd"/></g><g transform="translate(5.101 48.174)"><path d="M8154.635,7950.672s.844-1.649,4.805-2.64,3.948-1.431,5.591-.594a28.867,28.867,0,0,1,3.393,2.131s.523.571.6-2.09a13.329,13.329,0,0,1,1.052-4.751s6.6-7.56,6.7-8.892.207-4.441-2-3.935-9.4,2.613-13.264,7.44S8154.855,7947.854,8154.635,7950.672Z" transform="translate(-8154.635 -7929.847)" fill="#ffc600" fill-rule="evenodd"/></g><g transform="translate(11.455 48.173)"><path d="M8175.456,7929.947s1.321-.476,4.6.616,5.072,3.984,5.124,5.731a31.5,31.5,0,0,0,.238,3.687c.324,1.892.48-.117.448-1.443s2.043-4.732,2.625-5.046a28.879,28.879,0,0,1,5.6-2.442c2.015-.482.329-2.708,2.834.541,1.808,2.352,7.146,3.7,9.861,7.126,2.751,3.472,3.029,8.386,2.717,11.354-.312,2.9-.873,5.715-.873,5.715s-2.25-1.706-3.769-3.142-2.105-1.417-2.105-1.417a13.667,13.667,0,0,1-.884,5.485c-1.105,2.835-2.534,6.154-2.2,7.088s1.115-3.2,1-2.177-6.641-6.959-16.964-6.535-20.062.921-20.062.921-.674,3.883-.09,1.025,2.486-3.65,2.6-4.982,4.524-7.36,4.8-7.956a53.818,53.818,0,0,0,.579-5.921Z" transform="translate(-8163.314 -7929.844)" fill="#ffc600" fill-rule="evenodd"/></g><g transform="translate(17.701 66.889)"><path d="M8210.509,7963.929a3.93,3.93,0,0,1-.011,1.992,8.3,8.3,0,0,1-.648,1.161s-.369-.788-.467-.332a2.481,2.481,0,0,1-.545.929l-1.318.468s-.041-.095-.375.141l-.336.239-1.578.613-.8-.207a5.233,5.233,0,0,1-1.246.258l-1.217-.044-1.23-.064c-.854.2-1.887-.231-2.219.234l-.326.459-.445.47-.236-.45-1.384-.759-1.259-.195s-1.059-1.222-1.043-.652l.015.569s-.1.342-1.137.025a9.984,9.984,0,0,1-2.074-.966l-1.035-.316a4.514,4.514,0,0,0-1.489-.417c-.572.02-1.846-.971-1.846-.971l-1.144-.085c-.351-.56-.253-1.017-.825-1.116a14.561,14.561,0,0,1-1.72-.525l-1.613-.755a29.847,29.847,0,0,0-2.669-1.973c-.343-.107-1.043-.547-1.384-.647a14.884,14.884,0,0,1-1.854-1.321l-1.146-.309-2.063-.4,6.211-1.758,3.752-.1s4.194-.8,4.763-.811l1.705-.045-.223.234.7.55,1.593.072s.245.675.813.66,2.274-.175,2.274-.175l1.137-.14.9-.595,1.469-.266.791-.138.462-.373.225.47.683-.019.9-.478,1.019-.03a1.093,1.093,0,0,1,1.732-.341c1.127.836,4.835,3.24,6.034,5.6S8210.509,7963.929,8210.509,7963.929Z" transform="translate(-8171.843 -7955.406)" fill="#00040b" fill-rule="evenodd"/></g><g transform="translate(12.496 64.406)"><path d="M8205.614,7967.24c-1.567.737-6.579.189-13.938-.7s-13.544-5.721-17.083-7.3a18.4,18.4,0,0,0-5.393-1.8,33.859,33.859,0,0,1-4.467-1.733s.41-2.359,4.192-3.36,5.844.558,9.566,1.473a23.164,23.164,0,0,1,6.865,2.438c3.2,1.545,5.492.76,9.8.331a19.937,19.937,0,0,0,5.683-1.786s2.839.778,3.352.935,3.037,1.375,3.421,2.292a26.15,26.15,0,0,1,.906,5.387,4.986,4.986,0,0,1-.587,1.635A5.037,5.037,0,0,1,8205.614,7967.24Z" transform="translate(-8164.734 -7952.016)" fill="#b85025" fill-rule="evenodd"/></g><g transform="translate(18.37 74.011)"><path d="M8172.849,7965.322c.125,0,.339-.189.122-.189-.122,0-.336.189-.122.189Z" transform="translate(-8172.758 -7965.133)" fill="#a24608"/></g><g transform="translate(29.063 67.597)"><path d="M8210.444,7957.654s-4.289.164-11.139,2.858c-2.125.835-7.052,1.3-8.908.8a9.873,9.873,0,0,1-3.036-1.391,9.6,9.6,0,0,1,3.457-1.319c1.348-.034,7.534-.384,8.387-.469s2.989-.69,3.234-.7,2.312-.674,2.68-.681,2.069-.426,2.385-.375,1.7.537,1.7.537Z" transform="translate(-8187.361 -7956.373)" fill="#7c3500" fill-rule="evenodd"/></g><g transform="translate(46.205 66.882)"><path d="M8221.717,7962.885s-.175-4.8-4.054-6.268a14.448,14.448,0,0,0-6.158-1.2s-1.055.788-.629,1.042c.651.4,5.6.9,7.213,2.33a7.029,7.029,0,0,1,2.462,3.968c.232,1.173.377,1.656.377,1.656S8221.657,7964.264,8221.717,7962.885Z" transform="translate(-8210.774 -7955.396)" fill="#ffdc36" fill-rule="evenodd"/></g><g transform="translate(40.925 62.89)"><path d="M8208.753,7954.259a5,5,0,0,1-.82-2.184c.06-.839.249-2.06.249-2.06s-.387-.3-.6.318-.519,1.554-1.4,1.713-.383-.065-1.207.332-1.883.736-1.191.951,2.586.081,3.049.221S8208.753,7954.259,8208.753,7954.259Z" transform="translate(-8203.561 -7949.944)" fill="#00040b" fill-rule="evenodd"/></g><g transform="translate(36.662 65.662)"><path d="M8202.053,7954.332s13.862,8.116,23.021,26.932,6.119,18.65,2.605,19.369c-4.744.961-9.709.364-11.15-1.04s-4.629-25.254-12.571-35.922S8196.016,7953,8202.053,7954.332Z" transform="translate(-8197.738 -7953.729)" fill="#e8e9ea" fill-rule="evenodd"/></g><g transform="translate(40.063 67.73)"><path d="M8203.359,7956.611a65.338,65.338,0,0,1,15.082,22.046c5.851,13.95,4.558,19.974,4.463,21.322s-.157,1.84-.157,1.84-.825-.071-1.153-.125a20.356,20.356,0,0,1-2.37-2.637s3.052-5.919-5.705-20.881-10.651-18.695-10.85-19.853S8201.875,7956.324,8203.359,7956.611Z" transform="translate(-8202.384 -7956.555)" fill="#c7c9cb" fill-rule="evenodd"/></g><g transform="translate(40.669 107.681)"><path d="M8221.778,8011.134a41.129,41.129,0,0,1,1.067,4.637c.1,1.2-.425,1.7-1.565,1.833s-15.719-2.234-17.422-3.885.387-1.786,1.353-2.185,13.921-.462,15.022-.389A7.325,7.325,0,0,0,8221.778,8011.134Z" transform="translate(-8203.212 -8011.117)" fill="#d6d7d9" fill-rule="evenodd"/></g><g transform="translate(37.655 68.818)"><path d="M8221.125,7996.753s.776.326.507.588a20.1,20.1,0,0,1-9.858,1.947c-4.859-.39-7.814-1.037-8.7-.64s.056,1.117.056,1.117a2.9,2.9,0,0,1-1.638-1.689c-.568-1.357-.667-8.593-.316-17.044.35-8.238.607-13.508-1.883-22.049-.059-.219-.121-.436-.19-.656-.006-.02-.006-.2-.006-.2l.876-.082,1.032.553s18.465,36.126,18.545,36.542S8221.125,7996.753,8221.125,7996.753Z" transform="translate(-8199.096 -7958.041)" fill="#e0e1e2" fill-rule="evenodd"/></g><g transform="translate(37.655 67.977)"><path d="M8199.1,7957.816a61.531,61.531,0,0,1,7.205,26.658c.2,5.343.441,9.345.441,9.345a59.282,59.282,0,0,0,10.592,2.16c4.27.259,4.364.946,4.364.946s-2.5-16.757-11.508-29.938c-5.584-8.17-8.5-10.094-8.5-10.094A25.475,25.475,0,0,0,8199.1,7957.816Z" transform="translate(-8199.096 -7956.893)" fill="#fff" fill-rule="evenodd"/></g><g transform="translate(16.209 77.694)"><path d="M8170,7970.194a1.515,1.515,0,0,0-.193-.03A1.066,1.066,0,0,1,8170,7970.194Z" transform="translate(-8169.805 -7970.164)" fill="#00040b" fill-rule="evenodd"/></g><g transform="translate(16.091 77.675)"><path d="M8169.739,7970.151c-.034,0-.067-.009-.094-.013A.871.871,0,0,0,8169.739,7970.151Z" transform="translate(-8169.645 -7970.138)" fill="#00040b" fill-rule="evenodd"/></g><g transform="translate(16.404 77.722)"><path d="M8170.1,7970.2h0Z" transform="translate(-8170.07 -7970.202)" fill="#00040b" fill-rule="evenodd"/></g><g transform="translate(4.753 63.172)"><path d="M8196.774,7954.612c-.087-.161-.424-.314-.433-.553a5.159,5.159,0,0,1,.026-.873c.027-.292-.426-.278-.426-.278s-1.108-.216-1.405-.331a2.809,2.809,0,0,1-.628-.434,2.468,2.468,0,0,0-.684-.223l.147-.124-1.1-.373s-.922-.867-1.264-.713l-.345.153-2.415-.368-.33-.075-.4-.092-1.525.265-.952-.025c-.191.5-1.356.73-1.356.73l-1.44-.1-1.735.527-.789.436-.8.317-.591.053-.423.525-1.168.234-2.729.141a3.534,3.534,0,0,1-.919.331,21.673,21.673,0,0,0-2.382-.005c-1.175.108-2.251.1-2.723.139a5.344,5.344,0,0,1-1.418.137,16.817,16.817,0,0,1-1.836-.538l-1.589-.444a7.9,7.9,0,0,0-1.076-.013c-.354.032-1.188-.006-1.188-.006a6.547,6.547,0,0,1-1,.692,16.263,16.263,0,0,0-3,1.012,5.12,5.12,0,0,0-2.712,3.972s.733.168.647.536a7.781,7.781,0,0,0-.262.987c-.071.485.333.922.481,1.266s-.268-.333.151.346a15.187,15.187,0,0,0,.966,1.34,3.071,3.071,0,0,0,1.031.856l2.222-.452.292.571,2.031.037,1.068.022,1.215.238s-.234.026.957.029,1.509-.386,1.19.005l-.313.386a9.98,9.98,0,0,0,2.933-.4s1.486-.626,1.521-.268-.674.424.032.354a14.444,14.444,0,0,0,2.54-.845l1.4-.255s.841-1.158.757-.791l-.083.366,1.416-.138.512-.887.528-.646.967.144,1.091-1.066,1.116-.708.472-.045.986-.728.9.426,1.294-.122c.59-.059,4.586-.569,4.586-.569l2-.311.586-.8a6.808,6.808,0,0,0,1.026-.146c.448-.095.525-.3,1.212-.771a5.614,5.614,0,0,1,1.092-.6c.165-.083.62.066.823.06a2.347,2.347,0,0,0,.858-.228c.239-.13.729-.307.888-.56S8196.857,7954.778,8196.774,7954.612Z" transform="translate(-8154.16 -7950.33)" fill="#00040b" fill-rule="evenodd"/></g><g transform="translate(5.811 64.279)"><path d="M8157.333,7962.882a39.906,39.906,0,0,0,13.681,1c4.156-.538,7.2-3.551,10.344-5.044,2-.951,6.272-.124,7.612-.585,2.232-.771,2.447-1.689,3.667-1.968s3.435.136,3.614-.8-1.4-2.652-4.839-2.759c-3.683-.124-4.441-1.425-7.917-.643-5.074,1.139-3.548,1.345-6.489,2.94s-4.924.315-8.923-.165a33.454,33.454,0,0,1-5.72-1.464s-2.205.35-2.675.507-2.8,1.413-3.138,2.374a15.415,15.415,0,0,0-.941,3.7,5.564,5.564,0,0,0,.569,1.711A10.107,10.107,0,0,0,8157.333,7962.882Z" transform="translate(-8155.604 -7951.841)" fill="#b85025" fill-rule="evenodd"/></g><g transform="translate(4.461 64.716)"><path d="M8153.832,7957.968c.107.512.513.229,1.422-.856a10.066,10.066,0,0,1,5.983-3.131c3.077-.515,5.016-.227,4.958-.572s-1.937-.97-2.623-.97a32.241,32.241,0,0,0-7.235,1.886C8153.417,7955.782,8153.711,7957.458,8153.832,7957.968Z" transform="translate(-8153.762 -7952.439)" fill="#ffdc36" fill-rule="evenodd"/></g><g transform="translate(7.493 59.911)"><path d="M8178.56,7952.214c.157-.021-.949-.337-1.059-.439s-.408-.533-.518-.563-.411-.422-.625-.527a1.579,1.579,0,0,1-.6-.524c-.146-.185-.4-.484-.538-.662-.073-.089-.125-.144-.125-.144s-.661-.457-.848-.558-.992-.622-1.17-.725a11.4,11.4,0,0,0-1.351-.645c-.1,0-.536-.4-.781-.4s-1.373-.66-1.482-.655a2.333,2.333,0,0,0-.5.013,6.628,6.628,0,0,1-.936.063,7.891,7.891,0,0,1-1.194-.221s.1-.36-.261-.315-.288.041-.684.087a3.253,3.253,0,0,0-.749.168c-.107.034-.8-.377-.944-.266a1.923,1.923,0,0,1-.711.343,3.438,3.438,0,0,1-.788.129s-.873-.228-1.04.137a1.7,1.7,0,0,1-.311.549.993.993,0,0,1-.5.409l-.117-.429a3.265,3.265,0,0,0-.71.484c-.136.183-.745.273-.852.459a4.693,4.693,0,0,1-.519.658c-.146.148-.607.3-.637.483s-.275.4.056.8.443.454.6.665.436.241.478.386.293.314.262.421.116.217.226.32.287-.008.687.2a17.122,17.122,0,0,0,1.75.712c.251.063,1.062.073,1.205.214s.888.05,1.292.185a11.451,11.451,0,0,0,1.662.244c.25.028,1.265.111,1.625.138a7.816,7.816,0,0,1,1.081.042c.146.071,1.654.063,2.131.087s1.69-.043,2.19.018a16.519,16.519,0,0,0,1.84.053c.433-.009,1.473-.18,1.473-.18a2.611,2.611,0,0,0,.791-.167C8177.5,7953.142,8177.8,7952.306,8178.56,7952.214Z" transform="translate(-8157.903 -7945.877)" fill="#00040b" fill-rule="evenodd"/></g><g transform="translate(8.401 60.909)"><path d="M8174.3,7950c-3.268-2.265-3.7-2.465-5.841-2.622a23.338,23.338,0,0,0-3.631-.118,4.278,4.278,0,0,0-2.577.618.071.071,0,0,0-.013.024.63.63,0,0,0,.008.282l.253.346-.319.005s-.672-.12-.847-.117c-.051,0-.2.01-.393.032-.721.255-1.409.447-1.409.447l-.27.487a.861.861,0,0,0-.049.767,4.288,4.288,0,0,0,1.654.63.365.365,0,0,1,.176.021,1.547,1.547,0,0,0,.358-.021,5.925,5.925,0,0,1,.806-.021s.425.022-.167.112c-.486.068-.832.045-1.036.1-.063.087-.163.2-.241.323-.056.285,0,.689.248.758l.073.023a3.346,3.346,0,0,1,2.164.68,11.291,11.291,0,0,1,2.829.261,50.8,50.8,0,0,0,7.109.386c1.983.02,3.049.453,4.035-.335.181-.136.326-.253.485-.4C8176.89,7952.228,8176.274,7951.372,8174.3,7950Z" transform="translate(-8159.142 -7947.239)" fill="#b85025" fill-rule="evenodd"/></g><g transform="translate(5.811 66.047)"><path d="M8188.971,7958.9c2.229-.775,2.445-1.69,3.664-1.969s3.438.134,3.615-.8c.114-.578-.236-1.219-1.344-1.881-.03.1-.05.159-.05.159s.717,1.007-.13,1.455-2.318-.109-3.328.52-1.755,1.589-3.038,1.7-4.808-.643-6.918.53-6.485,3.937-9.461,4.788-8.883.663-11.557-.038-3.523-.5-4.011-2.714a5.263,5.263,0,0,0-.544-1.554,3.436,3.436,0,0,0,.307,3.232,10.221,10.221,0,0,0,1.156,1.19,39.861,39.861,0,0,0,13.684,1c4.154-.54,7.193-3.55,10.341-5.043C8183.363,7958.54,8187.63,7959.365,8188.971,7958.9Z" transform="translate(-8155.604 -7954.257)" fill="#7c3500" fill-rule="evenodd"/></g><g transform="translate(40.462 68.134)"><path d="M8211.049,7957.451s-.636-.186-1.143-.276a3.619,3.619,0,0,0-1.8.085c-.348.209-1.75.6-2,.71s-2.335,1.321-2.985,1.589.506.188.757.03a13.084,13.084,0,0,1,1.345-.641c.4-.16,1.211-.381,1.459-.466a6.993,6.993,0,0,1,1.348-.212c.354-.01,1.106-.079,1.106-.079a1.007,1.007,0,0,0,.4-.012c.154-.058.651-.27.8-.326a7.225,7.225,0,0,1,.96-.073l.365-.168Z" transform="translate(-8202.927 -7957.106)" fill="#00040b" fill-rule="evenodd"/></g><g transform="translate(10.769 65.742)"><path d="M8166.941,7954.8a50.784,50.784,0,0,0,7.109.386c.26,0,.5.013.73.027-.574-.181-1.207-.353-1.875-.509a23.956,23.956,0,0,0-7.15-.515l-3.379-.345a.235.235,0,0,0,.031.02,4.1,4.1,0,0,1,1.706.676A11.384,11.384,0,0,1,8166.941,7954.8Z" transform="translate(-8162.375 -7953.84)" fill="#7c3500" fill-rule="evenodd"/></g><g transform="translate(22.972 48.764)"><path d="M8189.3,7940.79s-.854-2.938-1.657-3.282c-.134-.056-.871.983-1.633,1.508a5.84,5.84,0,0,1-1.979.748s.137-3.309-1.392-4.713a25.008,25.008,0,0,1-3.585-3.756c-.114-.426,1-.645,1-.645s1.465.64,1.51.7a13.653,13.653,0,0,0,2.772,3.083c1.392.987,3.226.935,3.691,1.411a5.477,5.477,0,0,1,.977,1.486c.087.263.36.5.385.643s.446,1.457.446,1.517S8189.3,7940.79,8189.3,7940.79Z" transform="translate(-8179.042 -7930.65)" fill="#ffa800" fill-rule="evenodd"/></g><g transform="translate(33.068 48.516)"><path d="M8202.1,7930.313s-5.394.982-6.936,2.942-1.942,2.021-2.112,2.077-.274.746-.189,1.3a3.687,3.687,0,0,0,.335,1.373,1.333,1.333,0,0,0,1.227-.228c.331-.355,2.01-3.843,2.45-3.98s2.021-.765,2.338-.873a11.557,11.557,0,0,0,1.954-.691c.213-.2,1.052-1.014,1.052-1.014l.141-.319A2.471,2.471,0,0,1,8202.1,7930.313Z" transform="translate(-8192.83 -7930.313)" fill="#7c3500" fill-rule="evenodd"/></g><g transform="translate(36.129 50.595)"><path d="M8206.933,7933.556s-4.164,2.52-4.863,3.948-1.626,3.493-1.626,3.493a13.47,13.47,0,0,1-2.654-1.447c-.96-.759-.759-1.128-.759-1.128l.63-1.745s3.135-2.22,3.337-2.332,2.488-.847,2.488-.847,1.146-.088,1.406-.094.831-.071,1.041-.08a5.24,5.24,0,0,0,.705-.172c.024.016.346.352.346.352Z" transform="translate(-8197.013 -7933.152)" fill="#ffa800" fill-rule="evenodd"/></g><g transform="translate(31.108 50.301)"><path d="M8192.817,7943.106a52.492,52.492,0,0,0-.185-6.985,5.764,5.764,0,0,0-2.479-3.371s1.445,2.777.834,3.746c-.869,1.389-.491,1.25-.491,1.25S8191.886,7937.712,8192.817,7943.106Z" transform="translate(-8190.154 -7932.75)" fill="#ffdc36" fill-rule="evenodd"/></g><g transform="translate(22.982 46.698)"><path d="M8188.263,7933.371a2.935,2.935,0,0,0-1.081-1.939,21.452,21.452,0,0,0-3.951-1.952c-1.034-.355-1.533-.4-1.579-.744-.039-.263.349-.6.041-.757-.274-.139-.433-.331-.89.2a15.388,15.388,0,0,1-1.131,1.231c-.662.661-.817,1.175-.34,1.547s3.786,2.043,4.433,4,1.064,3.007,1.064,3.007a4.5,4.5,0,0,0,2.984-1.917A3.681,3.681,0,0,0,8188.263,7933.371Z" transform="translate(-8179.054 -7927.828)" fill="#ffdc36" fill-rule="evenodd"/></g><g transform="translate(33.139 55.186)"><path d="M8193.512,7939.422l-.584,2.782.267.771s.463-1.177.475-1.211.095-1.479.095-1.479S8193.55,7939.592,8193.512,7939.422Z" transform="translate(-8192.928 -7939.422)" fill="#ffa800" fill-rule="evenodd"/></g><g transform="translate(32.883 50.754)"><path d="M8194.34,7941.988a9.621,9.621,0,0,0-.227,2.284,7.469,7.469,0,0,1-1.535.043s.406-5.687,1.471-7.914a8.478,8.478,0,0,1,2.92-3.032s-1.753,2.547-1.147,3.529c.856,1.407.453,1.24.453,1.24S8195.206,7938.32,8194.34,7941.988Z" transform="translate(-8192.578 -7933.369)" fill="#ffdc36" fill-rule="evenodd"/></g><g transform="translate(35.833 47.767)"><path d="M8196.753,7934.056a2.665,2.665,0,0,1,1.3-1.778,24.138,24.138,0,0,1,4.435-1.55c1.149-.264,1.429-1.19,1.771-1.319.313-.116.5-.284.965.257a13.663,13.663,0,0,0,1.151,1.273c.68.684.813,1.195.269,1.51s-4.258,1.655-5.089,3.476-1.353,2.8-1.353,2.8-2.347-.517-3.138-2.081A3.128,3.128,0,0,1,8196.753,7934.056Z" transform="translate(-8196.609 -7929.29)" fill="#ffdc36" fill-rule="evenodd"/></g><g transform="translate(33.311 60.076)"><path d="M8194.009,7946.517a.424.424,0,0,1-.847.026.435.435,0,0,1,.412-.442A.427.427,0,0,1,8194.009,7946.517Z" transform="translate(-8193.162 -7946.101)" fill="#cb8f0b" fill-rule="evenodd"/></g><g transform="translate(37.858 47.011)"><path d="M8204.06,7928.258a2.37,2.37,0,0,0-.132,1.751s-1.411.4-1.538.438-3.017,1.044-3.017,1.044l.8-.708s2.7-.98,3.158-1.615C8203.718,7928.628,8204.06,7928.3,8204.06,7928.258Z" transform="translate(-8199.373 -7928.258)" fill="#7c3500" fill-rule="evenodd"/></g><g transform="translate(16.252 84.992)"><path d="M8169.864,7980.131" transform="translate(-8169.864 -7980.131)" fill="#b85025" fill-rule="evenodd"/></g></g></g><g transform="translate(41.277 69.674)"><g clip-path="url(#b)"><g transform="translate(5.627 -4.034)"><path d="M8202.064,7954.305s13.856,8.114,23.014,26.935,6.121,18.646,2.606,19.36c-4.745.97-9.712.369-11.153-1.029s-4.625-25.259-12.566-35.924S8196.02,7952.975,8202.064,7954.305Z" transform="translate(-8197.744 -7953.702)" fill="#e8e9ea" fill-rule="evenodd"/></g><g transform="translate(9.027 -1.966)"><path d="M8203.361,7956.578a65.338,65.338,0,0,1,15.084,22.052c5.851,13.952,4.566,19.969,4.462,21.319s-.152,1.848-.152,1.848-.83-.081-1.146-.126a19.763,19.763,0,0,1-2.379-2.643s3.055-5.924-5.7-20.879-10.661-18.7-10.85-19.857S8201.88,7956.3,8203.361,7956.578Z" transform="translate(-8202.388 -7956.524)" fill="#c7c9cb" fill-rule="evenodd"/></g><g transform="translate(6.616 -0.881)"><path d="M8221.133,7996.722s.769.319.5.587a20,20,0,0,1-9.854,1.945c-4.862-.388-7.816-1.038-8.7-.634s.056,1.111.056,1.111a2.892,2.892,0,0,1-1.635-1.686c-.574-1.355-.669-8.594-.315-17.045.348-8.24.6-13.5-1.884-22.049-.06-.219-.127-.44-.192-.659,0-.012-.01-.207-.01-.207l.878-.08,1.032.557s18.469,36.123,18.551,36.542S8221.133,7996.722,8221.133,7996.722Z" transform="translate(-8199.096 -7958.005)" fill="#e0e1e2" fill-rule="evenodd"/></g><g transform="translate(6.616 -1.721)"><path d="M8199.1,7957.78a61.46,61.46,0,0,1,7.209,26.662c.193,5.344.438,9.338.438,9.338a59.1,59.1,0,0,0,10.594,2.165c4.271.261,4.365.943,4.365.943s-2.507-16.75-11.511-29.935c-5.584-8.175-8.5-10.094-8.5-10.094A26.806,26.806,0,0,0,8199.1,7957.78Z" transform="translate(-8199.096 -7956.859)" fill="#fff" fill-rule="evenodd"/></g></g></g><g transform="translate(59.829 63.703)"><path d="M8230.271,7965.031c-1.173-1.02-4.133-3.614-4.541-4.028a3.134,3.134,0,0,1-.475-.859,2.914,2.914,0,0,1-.238.188l-7.8-9.277-1.815,19.6,23.548,6.35-9.454-11.345C8229.752,7965.457,8230.018,7965.247,8230.271,7965.031Z" transform="translate(-8215.398 -7951.054)" fill="#e50026"/></g></g><g transform="translate(0 44.658)"><g transform="translate(0 0.191)"><path d="M7891.016,7959.826h-3.8c-1.2,0-2.333-.036-3.408-.121a9.834,9.834,0,0,1-2.932-.641,5.467,5.467,0,0,1-2.21-1.6,6.546,6.546,0,0,1-1.261-2.941l-1.76-9.128q-.312-1.536-.481-3.087a8.806,8.806,0,0,1,.282-3.275,10.777,10.777,0,0,1,1.554-3.322,12.444,12.444,0,0,1,2.582-2.7,11.79,11.79,0,0,1,3.292-1.792,11.171,11.171,0,0,1,3.771-.646h12.21l-2.117,7.89h-11.8a1.131,1.131,0,0,0-.725.212,1.011,1.011,0,0,0-.339.5,2.16,2.16,0,0,0,.064,1.1l2.336,11.569c-.013.063.1.1.333.1h6.52Z" transform="translate(-7871.26 -7926.713)" fill="#37297e"/><path d="M7892.564,7962.269h-6.756c-1.342,0-2.555-.043-3.7-.129a13.8,13.8,0,0,1-4.062-.905,9.342,9.342,0,0,1-3.75-2.719,10.359,10.359,0,0,1-2.078-4.659l-1.763-9.147c-.221-1.074-.4-2.231-.527-3.4a12.6,12.6,0,0,1,.385-4.674,14.689,14.689,0,0,1,2.108-4.529,16.413,16.413,0,0,1,3.4-3.562,15.515,15.515,0,0,1,4.356-2.375,15.046,15.046,0,0,1,5.059-.868h17.234l-4.182,15.6h-11.413l1.165,5.775h8.7Zm-13.675-25.957-.146.2a6.78,6.78,0,0,0-.986,2.111,5.041,5.041,0,0,0-.174,1.827q.156,1.425.43,2.755l1.767,9.174a2.825,2.825,0,0,0,.45,1.219,1.6,1.6,0,0,0,.679.476,6,6,0,0,0,1.776.377c.959.075,1.979.11,3.124.11h.842l.05-.18h-1.5a4.075,4.075,0,0,1-3.331-1.5l-1.158-1.437.216-1.028-2.159-10.7a5.879,5.879,0,0,1-.022-2.98C7878.791,7936.6,7878.837,7936.456,7878.889,7936.313Zm4.688-3.119h8.8l.049-.182h-7.189A7.333,7.333,0,0,0,7883.577,7933.193Z" transform="translate(-7869.852 -7925.304)" fill="#37297e"/></g><g transform="translate(17.192)"><path d="M7913.583,7959.754l1.714-6.4h-4.927l-1.715,6.4h-8.464l2.769-10.321a23.326,23.326,0,0,1,3.4-7.247,27.667,27.667,0,0,1,5.736-6.092,28.389,28.389,0,0,1,7.492-4.211,24.011,24.011,0,0,1,8.6-1.576h1.746l-7.895,29.448Zm5.417-20.22a14.606,14.606,0,0,0-3.365,2.6,19.6,19.6,0,0,0-2.529,3.323h4.3Z" transform="translate(-7895.169 -7926.453)" fill="#37297e"/><path d="M7923.164,7962.2H7893.33l4.069-15.174a27.226,27.226,0,0,1,3.954-8.434,31.617,31.617,0,0,1,6.525-6.938,32.369,32.369,0,0,1,8.5-4.782,27.936,27.936,0,0,1,9.972-1.829h6.771Zm-6.4-7.707h.488l5.754-21.468c-.172.027-.341.057-.512.091l-3.967,14.789H7905.18q-.186.554-.336,1.112l-1.47,5.476h.485l1.716-6.4h12.9Z" transform="translate(-7893.33 -7925.043)" fill="#37297e"/></g><g transform="translate(41.511 0.045)"><path d="M7948.847,7959.772l-3.879-6.405h-1.384l-1.712,6.405H7933.4l7.883-29.405h14.156a7.078,7.078,0,0,1,2.706.525,5.735,5.735,0,0,1,2.117,1.484,5.308,5.308,0,0,1,1.115,5.116,8.777,8.777,0,0,1-.446,1.292c-.18.417-.369.8-.562,1.15q-.467.764-1.343,2.126c-.586.905-1.213,1.849-1.884,2.82s-1.321,1.873-1.954,2.7-1.122,1.434-1.464,1.816q.645,1.247,1.42,2.563c.516.876,1.04,1.756,1.569,2.648s1.044,1.778,1.547,2.655.966,1.713,1.4,2.509Zm3.536-21.417h-4.775l-1.909,7.121h.771a1.97,1.97,0,0,0,.881-.238,2.92,2.92,0,0,0,.978-.954l4-5.741Z" transform="translate(-7928.38 -7926.514)" fill="#37297e"/><path d="M7964.352,7962.218h-19.513l-1.28-2.117-.566,2.117h-16.445l9.943-37.113h17.115a10.881,10.881,0,0,1,4.171.817,9.562,9.562,0,0,1,3.534,2.492,9.152,9.152,0,0,1,1.951,8.675,12.843,12.843,0,0,1-.626,1.813c-.232.531-.473,1.029-.726,1.486l-.082.139c-.322.532-.785,1.263-1.392,2.209s-1.263,1.917-1.954,2.922c-.733,1.06-1.379,1.952-1.974,2.732.039.066.08.133.121.2.512.873,1.033,1.747,1.561,2.633.547.925,1.065,1.819,1.576,2.709.519.907,1,1.758,1.443,2.572Zm-15.171-7.705h2q-.6-1-1.187-2c-.536-.9-1.049-1.831-1.521-2.749l-1.219-2.356.232-.26c-.078.044-.159.088-.241.129a5.7,5.7,0,0,1-2.608.65h-5.791l3.969-14.829h12.132l-.112-.05a3.176,3.176,0,0,0-1.227-.231h-11.2l-5.814,21.7h.487l1.714-6.408h6.515Zm6.348-21.005-1.329,4.674c.414-.647.748-1.177,1-1.584.124-.229.249-.484.366-.756a5,5,0,0,0,.252-.73,1.913,1.913,0,0,0,.083-.9,1.632,1.632,0,0,0-.362-.7Z" transform="translate(-7926.547 -7925.105)" fill="#37297e"/></g><g transform="translate(85.8 0.045)"><path d="M8017.14,7959.772h-8.109l-.362-13-7.333,13h-8.106l-.79-29.405h8.875l.377,12.959,7.316-12.959h8.108l.313,13.008q1.843-3.255,3.723-6.528t3.659-6.48h8.927Z" transform="translate(-7988.481 -7926.514)" fill="#37297e"/><path d="M8017.942,7962.218h-14.106l-.08-2.87-1.616,2.87h-14.108l-1-37.113h16.573l.086,2.87,1.619-2.87h14.119l.069,2.872c.166-.3.332-.6.495-.888l1.1-1.984h17.793Zm-4.642-7.705h.142l12.249-21.7h-.066q-1.263,2.255-2.573,4.542c-1.256,2.185-2.492,4.349-3.718,6.513Zm-1.971,0h1.1l-.518-21.7h-1.178Zm-13.768,0h.076l12.241-21.7h-.067Zm-2.026,0h1.223l-.635-21.7h-1.172Z" transform="translate(-7987.035 -7925.105)" fill="#37297e"/></g><g transform="translate(117.438)"><path d="M8050.49,7959.754l1.72-6.4h-4.925l-1.715,6.4H8037.1l2.766-10.321a23.317,23.317,0,0,1,3.4-7.247,27.889,27.889,0,0,1,5.734-6.092,28.364,28.364,0,0,1,7.489-4.211,24.063,24.063,0,0,1,8.607-1.576h1.743l-7.89,29.448Zm5.42-20.22a14.418,14.418,0,0,0-3.365,2.6,19.971,19.971,0,0,0-2.535,3.323h4.315Z" transform="translate(-8032.081 -7926.453)" fill="#37297e"/><path d="M8060.076,7962.2h-29.832l4.063-15.174a27.328,27.328,0,0,1,3.96-8.439,31.755,31.755,0,0,1,6.518-6.931,32.349,32.349,0,0,1,8.5-4.784,28,28,0,0,1,9.979-1.829h6.761Zm-6.4-7.707h.484l5.749-21.468c-.174.027-.344.059-.516.091l-3.954,14.789H8042.09c-.127.37-.238.742-.339,1.114l-1.467,5.474h.491l1.716-6.4H8055.4Z" transform="translate(-8030.244 -7925.043)" fill="#37297e"/></g><g transform="translate(142.929 0.045)"><path d="M8071.918,7959.772l2.112-7.888q3.722,0,6.286-.036t4.229-.032h3.876a1.186,1.186,0,0,0,.536-.078q-2.746-1.813-5.29-3.513t-5.37-3.513a4.513,4.513,0,0,1-1.883-2.579,6.283,6.283,0,0,1-.007-3.491,10.371,10.371,0,0,1,1.5-3.23,11.967,11.967,0,0,1,2.465-2.629,11.519,11.519,0,0,1,3.15-1.768,10.068,10.068,0,0,1,3.567-.649h15.182l-2.114,7.894c-2.53,0-4.665.007-6.394.037s-3.167.031-4.3.031h-3.9a1.285,1.285,0,0,0-.538.074l10.78,7.074a4.948,4.948,0,0,1,1.917,2.608,5.973,5.973,0,0,1,.046,3.462,10.284,10.284,0,0,1-1.506,3.228,11.56,11.56,0,0,1-2.469,2.607,11.824,11.824,0,0,1-3.185,1.746,10.456,10.456,0,0,1-3.613.644Z" transform="translate(-8066.896 -7926.514)" fill="#37297e"/><path d="M8085.166,7962.218H8065.06l4.177-15.595h2.957c.807,0,1.574,0,2.3,0-.038-.021-.074-.046-.113-.07a8.415,8.415,0,0,1-3.493-4.72,10.108,10.108,0,0,1-.032-5.6,14.184,14.184,0,0,1,2.049-4.41,15.969,15.969,0,0,1,3.253-3.467,15.3,15.3,0,0,1,4.191-2.351,13.928,13.928,0,0,1,4.907-.892h20.2l-4.172,15.6h-2.958c-.907,0-1.718,0-2.445,0l.3.2a8.728,8.728,0,0,1,3.38,4.579,9.839,9.839,0,0,1,.1,5.657,14.184,14.184,0,0,1-2.065,4.426,15.6,15.6,0,0,1-3.277,3.457,15.839,15.839,0,0,1-4.209,2.312A14.362,14.362,0,0,1,8085.166,7962.218Zm-10.063-7.705h10.063a6.535,6.535,0,0,0,1.851-.265c-.156.009-.3.014-.433.014h-3.875q-1.644,0-4.18.032-1.489.019-3.375.03Zm3.156-16.152a2.413,2.413,0,0,0,.012,1.271.66.66,0,0,0,.293.444c1.87,1.2,3.693,2.4,5.4,3.538q2.537,1.7,5.272,3.5l2.99,1.971a2.127,2.127,0,0,0,0-1.231,1.1,1.1,0,0,0-.425-.6Zm6.994-5.548a6.1,6.1,0,0,0-1.79.262c.1,0,.188-.007.271-.007h3.9c1.115,0,2.53-.008,4.244-.032.957-.014,2.067-.026,3.49-.032l.051-.191Z" transform="translate(-8065.06 -7925.105)" fill="#37297e"/></g><g transform="translate(170.842 0.045)"><path d="M8122.4,7959.772l3.012-11.233h-3.792l-3.014,11.233h-8.567l3.008-11.233h-2.46l2.115-7.887h2.462l2.758-10.285h8.56l-2.75,10.285h3.795l2.753-10.285h8.569l-7.883,29.405Z" transform="translate(-8105.018 -7926.514)" fill="#37297e"/><path d="M8132.086,7962.218h-28.9l3.009-11.233h-2.459l4.179-15.592h2.461l2.758-10.288h28.906Zm-6.5-7.705h.588l5.815-21.7h-.589l-2.751,10.283h-11.772l2.753-10.283h-.587l-2.757,10.283h-2.463l-.05.182h2.46l-3.008,11.235h.591l3.011-11.235H8128.6Z" transform="translate(-8103.182 -7925.105)" fill="#37297e"/></g><g transform="translate(2.401 2.592)"><path d="M7891.016,7959.826h-3.8c-1.2,0-2.333-.036-3.408-.121a9.834,9.834,0,0,1-2.932-.641,5.467,5.467,0,0,1-2.21-1.6,6.546,6.546,0,0,1-1.261-2.941l-1.76-9.128q-.312-1.536-.481-3.087a8.806,8.806,0,0,1,.282-3.275,10.777,10.777,0,0,1,1.554-3.322,12.444,12.444,0,0,1,2.582-2.7,11.79,11.79,0,0,1,3.292-1.792,11.171,11.171,0,0,1,3.771-.646h12.21l-2.117,7.89h-11.8a1.131,1.131,0,0,0-.725.212,1.011,1.011,0,0,0-.339.5,2.16,2.16,0,0,0,.064,1.1l2.336,11.569c-.013.063.1.1.333.1h6.52Z" transform="translate(-7873.661 -7929.114)" fill="#fff"/><path d="M7891.6,7960.747h-4.914c-1.282,0-2.433-.039-3.519-.12a11.361,11.361,0,0,1-3.357-.744,6.985,6.985,0,0,1-2.793-2.022,8,8,0,0,1-1.567-3.59l-1.764-9.136c-.21-1.029-.38-2.112-.5-3.2a10.365,10.365,0,0,1,.322-3.8,12.3,12.3,0,0,1,1.764-3.776,14.032,14.032,0,0,1,2.892-3.027,13.24,13.24,0,0,1,3.694-2.012,12.656,12.656,0,0,1,4.255-.729h14.1l-2.9,10.795h-12.509l.019.078,2.12,10.5h7.54Zm-5.486-29.258a9.739,9.739,0,0,0-3.281.562,10.317,10.317,0,0,0-2.888,1.572,11.068,11.068,0,0,0-2.287,2.39,9.378,9.378,0,0,0-1.341,2.865,7.411,7.411,0,0,0-.241,2.728c.11,1.01.266,2,.459,2.963l1.765,9.147a5.156,5.156,0,0,0,.956,2.292,4.014,4.014,0,0,0,1.635,1.177,8.407,8.407,0,0,0,2.494.545c1.015.075,2.092.114,3.3.114h2.686l1.331-4.982h-4.623a1.8,1.8,0,0,1-1.46-.6l-.432-.54.076-.4-2.271-11.245a3.5,3.5,0,0,1-.049-1.817,2.459,2.459,0,0,1,.8-1.224,2.588,2.588,0,0,1,1.667-.557h10.684l1.336-4.985Z" transform="translate(-7873.131 -7928.584)" fill="#fff"/></g><g transform="translate(20.321 2.401)"><path d="M7913.583,7959.754l1.714-6.4h-4.927l-1.715,6.4h-8.464l2.769-10.321a23.326,23.326,0,0,1,3.4-7.247,27.667,27.667,0,0,1,5.736-6.092,28.389,28.389,0,0,1,7.492-4.211,24.011,24.011,0,0,1,8.6-1.576h1.746l-7.895,29.448Zm5.417-20.22a14.606,14.606,0,0,0-3.365,2.6,19.6,19.6,0,0,0-2.529,3.323h4.3Z" transform="translate(-7898.299 -7928.854)" fill="#fff"/><path d="M7922.465,7960.677h-11.471l1.717-6.4h-1.917l-1.719,6.4h-11.47l3.257-12.152a24.874,24.874,0,0,1,3.608-7.693,29.326,29.326,0,0,1,6.034-6.411,29.941,29.941,0,0,1,7.873-4.427,25.582,25.582,0,0,1,9.118-1.672h3.64Zm-7.686-2.905h5.456l7.115-26.545a22.673,22.673,0,0,0-7.936,1.482,27.1,27.1,0,0,0-7.113,4,26.464,26.464,0,0,0-5.436,5.775,21.987,21.987,0,0,0-3.2,6.8l-2.28,8.5h5.457l1.717-6.406h7.931Zm3.047-11.388h-7.994l1.333-2.2a21.147,21.147,0,0,1,2.717-3.572,16.247,16.247,0,0,1,3.7-2.865l3.028-1.734Zm-2.605-2.905h.377l.167-.628C7915.582,7943.056,7915.4,7943.265,7915.222,7943.479Z" transform="translate(-7897.605 -7928.322)" fill="#fff"/></g><g transform="translate(44.64 2.446)"><path d="M7948.847,7959.772l-3.879-6.405h-1.384l-1.712,6.405H7933.4l7.883-29.405h14.156a7.078,7.078,0,0,1,2.706.525,5.735,5.735,0,0,1,2.117,1.484,5.308,5.308,0,0,1,1.115,5.116,8.777,8.777,0,0,1-.446,1.292c-.18.417-.369.8-.562,1.15q-.467.764-1.343,2.126c-.586.905-1.213,1.849-1.884,2.82s-1.321,1.873-1.954,2.7-1.122,1.434-1.464,1.816q.645,1.247,1.42,2.563c.516.876,1.04,1.756,1.569,2.648s1.044,1.778,1.547,2.655.966,1.713,1.4,2.509Zm3.536-21.417h-4.775l-1.909,7.121h.771a1.97,1.97,0,0,0,.881-.238,2.92,2.92,0,0,0,.978-.954l4-5.741Z" transform="translate(-7931.51 -7928.915)" fill="#fff"/><path d="M7961.434,7960.693h-14.1l-3.5-5.777-1.545,5.777h-11.476l8.659-32.311h15.274a8.5,8.5,0,0,1,3.257.637,7.188,7.188,0,0,1,2.652,1.864,6.749,6.749,0,0,1,1.428,6.457,10.48,10.48,0,0,1-.511,1.491c-.2.453-.409.881-.625,1.273-.348.571-.8,1.287-1.392,2.211s-1.234,1.874-1.911,2.858c-.746,1.077-1.4,1.978-2,2.758-.331.433-.622.8-.873,1.119.3.548.607,1.1.929,1.638q.774,1.313,1.567,2.642c.537.907,1.051,1.795,1.557,2.676s.978,1.73,1.42,2.533Zm-12.461-2.905h7.53c-.063-.109-.127-.223-.193-.335-.5-.869-1-1.745-1.532-2.638s-1.055-1.771-1.574-2.649-1-1.754-1.458-2.63l-.46-.89.666-.744c.308-.346.776-.928,1.394-1.735.57-.746,1.2-1.61,1.913-2.644.658-.957,1.28-1.887,1.859-2.781s1.014-1.591,1.321-2.093c.141-.262.311-.605.469-.973a7.438,7.438,0,0,0,.373-1.08,3.863,3.863,0,0,0-.8-3.791,4.208,4.208,0,0,0-1.583-1.1,5.535,5.535,0,0,0-2.148-.416h-13.043l-7.1,26.5h5.46l1.711-6.406h3.32Zm-3.2-11.388h-2.663l2.686-10.029h7.814l-.648,2.273-4.137,5.938a4.27,4.27,0,0,1-1.518,1.423A3.337,3.337,0,0,1,7945.777,7946.4Zm2.251-7.124-.6,2.231,1.554-2.231Z" transform="translate(-7930.818 -7928.382)" fill="#fff"/></g><g transform="translate(88.266 2.446)"><path d="M8017.14,7959.772h-8.109l-.362-13-7.333,13h-8.106l-.79-29.405h8.875l.377,12.959,7.316-12.959h8.108l.313,13.008q1.843-3.255,3.723-6.528t3.659-6.48h8.927Z" transform="translate(-7990.946 -7928.915)" fill="#fff"/><path d="M8017.444,7960.693h-10.371l-.255-9.18-5.178,9.18h-10.369l-.869-32.311h11.777l.268,9.155,5.168-9.155h10.375l.219,9.2q.57-.989,1.139-1.983,1.865-3.262,3.647-6.466l.416-.747h12.269Zm-7.547-2.905h5.848l14.96-26.5h-5.586q-1.586,2.85-3.25,5.749c-1.258,2.188-2.5,4.355-3.723,6.521l-2.593,4.573-.4-16.843h-5.841l-9.465,16.763-.489-16.763h-5.97l.711,26.5h5.842l9.492-16.821Z" transform="translate(-7990.402 -7928.382)" fill="#fff"/></g><g transform="translate(120.567 2.401)"><path d="M8050.49,7959.754l1.72-6.4h-4.925l-1.715,6.4H8037.1l2.766-10.321a23.317,23.317,0,0,1,3.4-7.247,27.889,27.889,0,0,1,5.734-6.092,28.364,28.364,0,0,1,7.489-4.211,24.063,24.063,0,0,1,8.607-1.576h1.743l-7.89,29.448Zm5.42-20.22a14.418,14.418,0,0,0-3.365,2.6,19.971,19.971,0,0,0-2.535,3.323h4.315Z" transform="translate(-8035.21 -7928.854)" fill="#fff"/><path d="M8059.381,7960.677H8047.9l1.72-6.4h-1.917l-1.716,6.4h-11.473l3.253-12.152a24.969,24.969,0,0,1,3.616-7.695,29.358,29.358,0,0,1,6.03-6.409,29.957,29.957,0,0,1,7.87-4.427,25.649,25.649,0,0,1,9.125-1.672h3.635Zm-7.687-2.905h5.457l7.111-26.545a22.7,22.7,0,0,0-7.941,1.482,27.019,27.019,0,0,0-7.106,4,26.435,26.435,0,0,0-5.437,5.775,22.012,22.012,0,0,0-3.2,6.8l-2.275,8.5h5.458l1.717-6.406h7.936Zm3.053-11.388h-8.014l1.347-2.211a21.4,21.4,0,0,1,2.719-3.563,16.044,16.044,0,0,1,3.7-2.87l3.023-1.724Zm-2.612-2.905h.381l.17-.635Q8052.4,7943.154,8052.134,7943.479Z" transform="translate(-8034.518 -7928.322)" fill="#fff"/></g><g transform="translate(146.058 2.446)"><path d="M8071.918,7959.772l2.112-7.888q3.722,0,6.286-.036t4.229-.032h3.876a1.186,1.186,0,0,0,.536-.078q-2.746-1.813-5.29-3.513t-5.37-3.513a4.513,4.513,0,0,1-1.883-2.579,6.283,6.283,0,0,1-.007-3.491,10.371,10.371,0,0,1,1.5-3.23,11.967,11.967,0,0,1,2.465-2.629,11.519,11.519,0,0,1,3.15-1.768,10.068,10.068,0,0,1,3.567-.649h15.182l-2.114,7.894c-2.53,0-4.665.007-6.394.037s-3.167.031-4.3.031h-3.9a1.285,1.285,0,0,0-.538.074l10.78,7.074a4.948,4.948,0,0,1,1.917,2.608,5.973,5.973,0,0,1,.046,3.462,10.284,10.284,0,0,1-1.506,3.228,11.56,11.56,0,0,1-2.469,2.607,11.824,11.824,0,0,1-3.185,1.746,10.456,10.456,0,0,1-3.613.644Z" transform="translate(-8070.025 -7928.915)" fill="#fff"/><path d="M8086.31,7960.693h-16.979l2.891-10.79h1.116q3.708,0,6.264-.037,2.358-.033,3.955-.035c-.469-.311-.934-.622-1.392-.929-1.686-1.126-3.485-2.3-5.347-3.5a5.959,5.959,0,0,1-2.492-3.384,7.757,7.757,0,0,1-.015-4.288,11.866,11.866,0,0,1,1.711-3.676,13.453,13.453,0,0,1,2.759-2.943,13.024,13.024,0,0,1,3.544-1.99,11.573,11.573,0,0,1,4.07-.74h17.075l-2.889,10.8h-1.116c-2.955,0-4.859.011-6.372.034q-2.38.036-4,.034l6.825,4.483a6.431,6.431,0,0,1,2.505,3.373,7.463,7.463,0,0,1,.063,4.289,11.673,11.673,0,0,1-1.716,3.681A13.042,13.042,0,0,1,8094,7958a13.384,13.384,0,0,1-3.573,1.96A11.924,11.924,0,0,1,8086.31,7960.693Zm-13.193-2.905h13.193a9.012,9.012,0,0,0,3.115-.554,10.31,10.31,0,0,0,2.8-1.533,10.185,10.185,0,0,0,2.159-2.28,8.868,8.868,0,0,0,1.3-2.779,4.558,4.558,0,0,0-.021-2.645,3.5,3.5,0,0,0-1.369-1.859l-12.7-8.336,2.019-1.183a2.451,2.451,0,0,1,1.271-.274h3.894c1.126,0,2.55-.007,4.279-.032,1.326-.021,2.946-.034,5.3-.034l1.336-4.99H8086.4a8.6,8.6,0,0,0-3.056.558,10.093,10.093,0,0,0-2.76,1.547,10.6,10.6,0,0,0-2.168,2.312,8.939,8.939,0,0,0-1.294,2.782,4.783,4.783,0,0,0,0,2.7,3.071,3.071,0,0,0,1.284,1.773c1.868,1.2,3.682,2.389,5.382,3.523s3.454,2.3,5.282,3.507l1.917,1.265-1.964,1.19a2.412,2.412,0,0,1-1.287.287h-3.875q-1.657,0-4.211.032-2.175.033-5.187.037Z" transform="translate(-8069.332 -7928.382)" fill="#fff"/></g><g transform="translate(173.97 2.446)"><path d="M8122.4,7959.772l3.012-11.233h-3.792l-3.014,11.233h-8.567l3.008-11.233h-2.46l2.115-7.887h2.462l2.758-10.285h8.56l-2.75,10.285h3.795l2.753-10.285h8.569l-7.883,29.405Z" transform="translate(-8108.148 -7928.915)" fill="#fff"/><path d="M8131.392,7960.693h-11.576l3.012-11.232h-.784l-3.014,11.232h-11.575l3.009-11.232H8108l2.89-10.791h2.465l2.755-10.288h11.569l-2.749,10.288h.787l2.751-10.288h11.578Zm-7.788-2.905h5.558l7.105-26.5H8130.7l-2.753,10.284h-6.8l2.753-10.284h-5.556l-2.757,10.284h-2.462l-1.336,4.982h2.46l-3.01,11.232h5.562l3.012-11.232h6.8Z" transform="translate(-8107.455 -7928.382)" fill="#fff"/></g><g transform="translate(3.854 4.044)"><path d="M7891.016,7959.826h-3.8c-1.2,0-2.333-.036-3.408-.121a9.834,9.834,0,0,1-2.932-.641,5.467,5.467,0,0,1-2.21-1.6,6.546,6.546,0,0,1-1.261-2.941l-1.76-9.128q-.312-1.536-.481-3.087a8.806,8.806,0,0,1,.282-3.275,10.777,10.777,0,0,1,1.554-3.322,12.444,12.444,0,0,1,2.582-2.7,11.79,11.79,0,0,1,3.292-1.792,11.171,11.171,0,0,1,3.771-.646h12.21l-2.117,7.89h-11.8a1.131,1.131,0,0,0-.725.212,1.011,1.011,0,0,0-.339.5,2.16,2.16,0,0,0,.064,1.1l2.336,11.569c-.013.063.1.1.333.1h6.52Z" transform="translate(-7875.114 -7930.566)" fill="#e50026"/></g><g transform="translate(22.214 3.854)"><path d="M7913.583,7959.754l1.714-6.4h-4.927l-1.715,6.4h-8.464l2.769-10.321a23.326,23.326,0,0,1,3.4-7.247,27.667,27.667,0,0,1,5.736-6.092,28.389,28.389,0,0,1,7.492-4.211,24.011,24.011,0,0,1,8.6-1.576h1.746l-7.895,29.448Zm5.417-20.22a14.606,14.606,0,0,0-3.365,2.6,19.6,19.6,0,0,0-2.529,3.323h4.3Z" transform="translate(-7900.191 -7930.307)" fill="#e50026"/></g><g transform="translate(46.532 3.899)"><path d="M7948.847,7959.772l-3.879-6.405h-1.384l-1.712,6.405H7933.4l7.883-29.405h14.156a7.078,7.078,0,0,1,2.706.525,5.735,5.735,0,0,1,2.117,1.484,5.308,5.308,0,0,1,1.115,5.116,8.777,8.777,0,0,1-.446,1.292c-.18.417-.369.8-.562,1.15q-.467.764-1.343,2.126c-.586.905-1.213,1.849-1.884,2.82s-1.321,1.873-1.954,2.7-1.122,1.434-1.464,1.816q.645,1.247,1.42,2.563c.516.876,1.04,1.756,1.569,2.648s1.044,1.778,1.547,2.655.966,1.713,1.4,2.509Zm3.536-21.417h-4.775l-1.909,7.121h.771a1.97,1.97,0,0,0,.881-.238,2.92,2.92,0,0,0,.978-.954l4-5.741Z" transform="translate(-7933.402 -7930.367)" fill="#e50026"/></g><g transform="translate(89.758 3.899)"><path d="M8017.14,7959.772h-8.109l-.362-13-7.333,13h-8.106l-.79-29.405h8.875l.377,12.959,7.316-12.959h8.108l.313,13.008q1.843-3.255,3.723-6.528t3.659-6.48h8.927Z" transform="translate(-7992.439 -7930.367)" fill="#e50026"/></g><g transform="translate(122.459 3.854)"><path d="M8050.49,7959.754l1.72-6.4h-4.925l-1.715,6.4H8037.1l2.766-10.321a23.317,23.317,0,0,1,3.4-7.247,27.889,27.889,0,0,1,5.734-6.092,28.364,28.364,0,0,1,7.489-4.211,24.063,24.063,0,0,1,8.607-1.576h1.743l-7.89,29.448Zm5.42-20.22a14.418,14.418,0,0,0-3.365,2.6,19.971,19.971,0,0,0-2.535,3.323h4.315Z" transform="translate(-8037.103 -7930.307)" fill="#e50026"/></g><g transform="translate(147.95 3.899)"><path d="M8071.918,7959.772l2.112-7.888q3.722,0,6.286-.036t4.229-.032h3.876a1.186,1.186,0,0,0,.536-.078q-2.746-1.813-5.29-3.513t-5.37-3.513a4.513,4.513,0,0,1-1.883-2.579,6.283,6.283,0,0,1-.007-3.491,10.371,10.371,0,0,1,1.5-3.23,11.967,11.967,0,0,1,2.465-2.629,11.519,11.519,0,0,1,3.15-1.768,10.068,10.068,0,0,1,3.567-.649h15.182l-2.114,7.894c-2.53,0-4.665.007-6.394.037s-3.167.031-4.3.031h-3.9a1.285,1.285,0,0,0-.538.074l10.78,7.074a4.948,4.948,0,0,1,1.917,2.608,5.973,5.973,0,0,1,.046,3.462,10.284,10.284,0,0,1-1.506,3.228,11.56,11.56,0,0,1-2.469,2.607,11.824,11.824,0,0,1-3.185,1.746,10.456,10.456,0,0,1-3.613.644Z" transform="translate(-8071.918 -7930.367)" fill="#e50026"/></g><g transform="translate(175.863 3.899)"><path d="M8122.4,7959.772l3.012-11.233h-3.792l-3.014,11.233h-8.567l3.008-11.233h-2.46l2.115-7.887h2.462l2.758-10.285h8.56l-2.75,10.285h3.795l2.753-10.285h8.569l-7.883,29.405Z" transform="translate(-8110.041 -7930.367)" fill="#e50026"/></g><g transform="translate(3.865 3.859)"><g clip-path="url(#c)"><path d="M7805.251,7959.134s37.408-31.312,105.677-16.939c35.6,7.49,81.311,7.49,123.472.929,55.448-8.632,70.32,45.158,70.32,45.158s-4.25-17.186-22.378-8.542-91.915,21.267-126.578,19.271-71.19-4.651-99.915-5.98-53.693-3.322-61.268-9.3S7805.251,7959.134,7805.251,7959.134Z" transform="translate(-7853.064 -7932.485)" fill="#b5001a"/></g></g></g><g transform="translate(236.898 7.931)"><path d="M8200.086,7879.356a3.865,3.865,0,0,1-4.722,1.769,2.968,2.968,0,0,1-1.6-4.229,3.864,3.864,0,0,1,4.722-1.771A2.97,2.97,0,0,1,8200.086,7879.356Z" transform="translate(-8193.399 -7874.883)" fill="#37297e"/></g><g transform="translate(237.275 8.959)"><path d="M8197.754,7876.928s-1.33-.519-1.432-.557a1.123,1.123,0,0,0-1.051.1c-.46.326-.628.709-.481.978a3.6,3.6,0,0,0,.5.662c.034.059.034.428-.353.279s-1-.39-1-.39l-.021.9.871.338a1.015,1.015,0,0,0,.783,0,1.344,1.344,0,0,0,.726-.656.726.726,0,0,0-.013-.758c-.18-.321-.284-.522-.284-.522s-.033-.19.206-.1.914.379.914.379Z" transform="translate(-8193.916 -7876.287)" fill="#ffc600"/></g><g transform="translate(238.997 9.669)"><path d="M8196.268,7879.813l1.024.4.917-.536-.127.846.928.362.2-1.69,1.767-1-.924-.356-.78.487.152-.725-.867-.336-.2,1.409Z" transform="translate(-8196.268 -7877.256)" fill="#ffc600"/></g><g transform="translate(236.194 7.276)"><path d="M8197.336,7880.873l-.363-1.332-.978,1.791,2,1.957-.457-1.682a4.547,4.547,0,0,0,2.917-2.262,3.565,3.565,0,0,0-1.917-5.065,4.622,4.622,0,0,0-5.659,2.117,3.555,3.555,0,0,0,1.917,5.065,3.952,3.952,0,0,0,1.035.258l.131-.766a3.572,3.572,0,0,1-.794-.195,2.858,2.858,0,0,1-1.539-4.068,3.7,3.7,0,0,1,4.532-1.7,2.856,2.856,0,0,1,1.54,4.063A3.644,3.644,0,0,1,8197.336,7880.873Z" transform="translate(-8192.44 -7873.988)" fill="#e50026"/></g></g><g transform="translate(274.266 75.196)"><path d="M8251.5,7970.183a3.531,3.531,0,1,1-3.521-3.431A3.453,3.453,0,0,1,8251.5,7970.183Zm-6.181,0a2.664,2.664,0,0,0,2.684,2.744,2.633,2.633,0,0,0,2.618-2.721,2.653,2.653,0,1,0-5.3-.023Zm2.115,1.8h-.8v-3.436a7,7,0,0,1,1.322-.1,2.132,2.132,0,0,1,1.193.25.942.942,0,0,1,.338.753.875.875,0,0,1-.715.8v.044a1.01,1.01,0,0,1,.634.836,2.472,2.472,0,0,0,.25.859h-.864a3.278,3.278,0,0,1-.268-.84c-.066-.375-.272-.545-.715-.545h-.377Zm.023-1.949h.375c.44,0,.8-.148.8-.5,0-.316-.234-.522-.737-.522a2.222,2.222,0,0,0-.438.038Z" transform="translate(-8244.438 -7966.752)" fill="#37297e"/></g></svg>