<?xml version="1.0" standalone="no"?>
<!DOCTYPE svg PUBLIC "-//W3C//DTD SVG 20010904//EN"
 "http://www.w3.org/TR/2001/REC-SVG-20010904/DTD/svg10.dtd">
<svg version="1.0" xmlns="http://www.w3.org/2000/svg"
 width="332.000000pt" height="128.000000pt" viewBox="0 0 332.000000 128.000000"
 preserveAspectRatio="xMidYMid meet">

<g transform="translate(0.000000,128.000000) scale(0.100000,-0.100000)"
fill="#000000" stroke="none">
<path d="M1214 1260 c-417 -16 -939 -64 -1051 -95 -118 -34 -153 -153 -153
-525 0 -262 26 -430 75 -489 36 -42 86 -58 236 -75 677 -77 1653 -89 2379 -31
406 33 497 53 542 116 38 52 51 174 51 474 0 388 -18 477 -108 520 -61 28
-452 71 -875 95 -259 14 -844 20 -1096 10z m1266 -54 c236 -18 483 -42 572
-56 182 -28 211 -100 211 -520 0 -456 -25 -502 -293 -534 -294 -36 -889 -66
-1310 -66 -538 0 -1378 54 -1477 95 -48 20 -71 41 -93 86 -45 88 -70 388 -51
601 13 143 28 203 64 257 33 49 75 68 193 86 120 18 533 53 759 65 267 13
1174 4 1425 -14z"/>
<path d="M1155 1169 c-343 -14 -813 -54 -926 -80 -114 -26 -145 -141 -137
-503 7 -291 35 -387 121 -415 61 -20 442 -52 836 -72 273 -13 1232 -7 1471 10
269 20 550 51 583 65 87 37 107 124 107 456 0 256 -16 379 -55 420 -35 37 -75
46 -306 69 -538 55 -1125 72 -1694 50z m-721 -226 c4 -32 9 -76 13 -98 l7 -40
8 45 c4 25 13 69 19 98 l10 52 65 0 c35 0 64 -1 65 -2 0 -2 8 -48 18 -103 l17
-100 13 103 13 102 55 0 54 0 -6 -32 c-3 -18 -16 -125 -30 -237 -13 -113 -28
-208 -33 -213 -5 -5 -38 -8 -73 -6 l-64 3 -16 140 c-17 153 -20 152 -44 -19
-8 -59 -18 -112 -21 -117 -3 -5 -34 -9 -69 -9 -75 0 -64 -28 -100 250 -14 107
-28 205 -30 218 -5 21 -3 22 59 22 l64 0 6 -57z m1923 31 c27 -20 28 -25 31
-114 2 -70 -1 -98 -13 -116 -15 -24 -69 -44 -117 -44 l-28 0 0 -95 0 -95 -60
0 -60 0 0 246 0 246 109 -4 c93 -2 114 -6 138 -24z m-1022 -44 c21 -19 25 -33
25 -77 l0 -53 -55 0 -55 0 0 45 c0 33 -4 45 -15 45 -10 0 -15 -10 -15 -34 0
-28 10 -43 70 -98 l70 -65 0 -61 c0 -33 -3 -68 -6 -77 -24 -61 -214 -61 -238
0 -3 9 -6 41 -6 71 l0 54 55 0 55 0 0 -50 c0 -38 4 -50 15 -50 11 0 15 11 15
38 0 33 -7 44 -70 102 l-70 66 0 60 c0 50 4 64 23 81 32 29 45 33 114 30 50
-2 68 -8 88 -27z m1606 1 l29 -29 0 -161 c0 -175 -6 -203 -51 -221 -63 -26
-177 -5 -193 35 -3 9 -6 91 -6 182 l0 165 29 29 c27 26 36 29 96 29 60 0 69
-3 96 -29z m-1936 -3 c2 -13 18 -99 35 -193 17 -93 33 -183 36 -198 l6 -28
-54 3 -53 3 -9 58 c-7 50 -11 57 -31 57 -20 0 -24 -7 -31 -57 l-9 -58 -52 -3
c-29 -2 -53 1 -53 6 0 5 14 100 30 210 17 111 30 206 30 212 0 6 29 10 75 10
69 0 75 -2 80 -22z m625 -8 c0 -28 -3 -30 -35 -30 l-35 0 -2 -187 -3 -188 -55
0 -55 0 -3 188 -2 187 -30 0 c-27 0 -30 3 -30 30 l0 30 125 0 125 0 0 -30z
m240 0 c0 -29 -1 -30 -50 -30 l-50 0 0 -50 0 -50 45 0 c45 0 45 0 45 -35 0
-35 0 -35 -45 -35 l-45 0 0 -64 0 -65 48 -3 c47 -3 47 -3 47 -38 l0 -35 -100
0 -100 0 -3 218 -2 217 105 0 105 0 0 -30z m769 15 c34 -17 41 -33 41 -89 0
-46 -22 -86 -48 -86 -12 -1 -9 -5 9 -15 35 -19 37 -27 40 -137 l2 -93 -54 0
-54 0 -2 65 c-6 155 -31 178 -35 33 l-3 -98 -55 0 -55 0 -3 218 -2 217 95 0
c65 0 105 -5 124 -15z m457 -6 c17 -19 17 -23 3 -47 -21 -38 -62 -41 -85 -8
-15 24 -15 28 0 51 20 31 56 33 82 4z m-288 -542 c4 -20 -25 -34 -40 -19 -15
15 -1 44 19 40 10 -2 19 -11 21 -21z m-2060 -6 c3 -10 -1 -12 -15 -9 -29 8
-53 -9 -53 -37 0 -24 9 -29 38 -26 6 1 12 -5 12 -14 0 -20 -44 -20 -64 1 -37
37 -1 108 51 102 15 -2 29 -9 31 -17z m187 9 c-3 -5 -10 -10 -16 -10 -5 0 -9
5 -9 10 0 6 7 10 16 10 8 0 12 -4 9 -10z m315 -5 c0 -8 -9 -15 -20 -15 -11 0
-20 -4 -20 -10 0 -5 7 -10 15 -10 8 0 15 -4 15 -10 0 -5 -9 -10 -19 -10 -12 0
-21 -8 -23 -22 -2 -12 -9 -23 -17 -26 -11 -4 -12 5 -7 43 4 26 10 54 13 61 7
19 63 18 63 -1z m298 3 c31 -31 -2 -108 -47 -108 -25 0 -51 26 -51 49 0 49 68
89 98 59z m322 -3 c0 -10 -10 -15 -29 -15 -21 0 -32 -6 -36 -20 -8 -25 12 -53
32 -46 7 3 13 -1 13 -9 0 -24 -47 -18 -64 7 -21 29 -20 40 5 72 23 29 79 37
79 11z m610 5 c0 -5 -7 -10 -15 -10 -8 0 -15 5 -15 10 0 6 7 10 15 10 8 0 15
-4 15 -10z m100 0 c0 -5 -7 -10 -16 -10 -8 0 -12 5 -9 10 3 6 10 10 16 10 5 0
9 -4 9 -10z m-54 -9 c-4 -5 0 -12 6 -15 9 -3 8 -8 -4 -16 -22 -13 -24 -50 -3
-50 8 0 15 9 15 19 0 26 10 51 21 51 10 0 12 -34 3 -67 -5 -18 -13 -22 -43
-20 -35 2 -36 3 -36 42 0 22 4 45 10 52 12 14 39 18 31 4z m-1711 -22 c4 -6 4
-25 1 -44 -6 -30 -10 -33 -39 -32 -25 2 -32 7 -32 22 0 11 11 25 25 32 l25 13
-23 0 c-13 0 -20 4 -17 10 8 13 52 13 60 -1z m109 -26 c-8 -45 -12 -53 -26
-53 -7 0 -8 14 -4 41 6 39 6 40 -13 22 -10 -10 -22 -28 -25 -40 -16 -52 -34
-10 -20 45 5 19 13 22 51 22 l44 0 -7 -37z m91 26 c11 -17 -5 -79 -20 -79 -10
0 -12 10 -9 38 5 35 5 36 -10 18 -9 -11 -16 -28 -16 -38 0 -10 -7 -18 -15 -18
-13 0 -15 7 -9 38 4 20 9 40 11 45 6 11 61 8 68 -4z m105 -3 c0 -25 -23 -92
-34 -98 -16 -11 -56 -10 -56 2 0 6 9 10 19 10 11 0 22 4 25 9 3 5 -1 8 -10 7
-26 -2 -40 28 -26 58 9 21 18 25 47 24 19 -1 35 -6 35 -12z m210 -7 c9 -16 8
-26 -5 -45 -16 -24 -31 -29 -59 -18 -19 7 -21 55 -4 72 19 19 56 14 68 -9z
m80 11 c0 -5 -9 -14 -19 -20 -11 -5 -21 -20 -23 -32 -2 -12 -9 -23 -17 -26
-11 -4 -12 3 -6 34 4 21 9 42 11 46 7 12 54 10 54 -2z m193 -27 c-6 -34 -5
-37 10 -25 9 8 17 23 19 34 2 12 9 23 17 26 11 4 12 -3 6 -34 -9 -51 -11 -54
-45 -54 -36 0 -44 12 -36 56 10 49 37 46 29 -3z m127 21 c0 -8 -7 -14 -15 -14
-9 0 -18 -12 -21 -30 -4 -16 -13 -30 -20 -30 -17 0 -17 4 -4 51 8 30 15 37 35
37 15 0 25 -6 25 -14z m218 -17 c4 -35 -13 -57 -44 -57 -25 0 -44 26 -36 50 9
29 26 41 51 38 20 -2 27 -9 29 -31z m140 10 c5 -25 -6 -67 -18 -67 -5 0 -10
17 -12 38 l-4 37 -10 -34 c-13 -46 -38 -55 -32 -12 6 42 -10 52 -18 11 -7 -30
-20 -47 -31 -37 -3 3 -2 24 2 46 l7 41 56 -3 c46 -2 57 -6 60 -20z m140 0 c5
-26 -6 -67 -18 -67 -6 0 -10 16 -10 36 0 41 -15 38 -23 -6 -9 -40 -31 -40 -25
0 6 41 -11 50 -18 10 -7 -30 -20 -47 -31 -37 -3 3 -2 24 2 46 l7 41 56 -3 c46
-2 57 -6 60 -20z m45 -14 c-6 -34 -5 -37 10 -25 9 8 17 23 19 34 2 12 9 23 17
26 11 4 12 -3 6 -34 -9 -51 -11 -54 -45 -54 -36 0 -43 11 -34 55 9 50 35 47
27 -2z m145 14 c5 -26 -6 -67 -18 -67 -6 0 -10 16 -10 36 0 41 -15 37 -25 -6
-4 -17 -13 -30 -21 -30 -14 0 -14 13 3 73 7 25 66 20 71 -6z m47 -14 c-8 -44
-12 -53 -27 -53 -6 0 -8 13 -3 37 8 44 12 53 27 53 6 0 8 -13 3 -37z m193 10
c3 -19 -1 -23 -22 -23 -14 0 -26 -5 -26 -11 0 -6 9 -9 20 -6 11 3 20 1 20 -3
0 -15 -20 -22 -46 -16 -47 12 -19 91 30 84 13 -2 22 -12 24 -25z m72 17 c0 -5
-7 -10 -17 -10 -15 0 -15 -2 0 -18 11 -12 13 -22 6 -35 -11 -18 -59 -24 -59
-7 0 6 10 10 22 10 20 0 20 1 5 18 -20 22 -22 38 -4 45 21 9 47 7 47 -3z"/>
<path d="M2230 856 c0 -76 6 -91 28 -77 9 5 12 30 10 77 -2 56 -6 69 -20 72
-16 3 -18 -6 -18 -72z"/>
<path d="M2830 735 c0 -131 2 -155 15 -155 13 0 15 24 15 155 0 131 -2 155
-15 155 -13 0 -15 -24 -15 -155z"/>
<path d="M927 736 c-4 -15 -6 -31 -2 -34 10 -10 16 6 13 35 l-3 28 -8 -29z"/>
<path d="M2540 835 c0 -53 11 -72 24 -39 13 34 3 94 -15 94 -5 0 -9 -25 -9
-55z"/>
<path d="M3023 915 c-3 -9 -3 -18 -1 -21 3 -3 8 4 11 16 6 23 -1 27 -10 5z"/>
<path d="M3078 903 c5 -21 7 -23 10 -9 2 10 0 22 -6 28 -6 6 -7 0 -4 -19z"/>
<path d="M3050 880 c0 -5 5 -10 11 -10 5 0 7 5 4 10 -3 6 -8 10 -11 10 -2 0
-4 -4 -4 -10z"/>
<path d="M1496 364 c-30 -30 -12 -80 19 -54 17 14 20 56 6 65 -5 3 -17 -2 -25
-11z"/>
<path d="M770 309 c0 -5 5 -7 10 -4 6 3 10 8 10 11 0 2 -4 4 -10 4 -5 0 -10
-5 -10 -11z"/>
<path d="M1064 336 c-8 -22 3 -33 18 -18 9 9 9 15 0 24 -9 9 -13 7 -18 -6z"/>
<path d="M1287 343 c-4 -3 -7 -16 -7 -27 0 -19 1 -19 17 -3 12 11 14 20 7 27
-6 6 -13 7 -17 3z"/>
<path d="M1900 335 c-9 -11 -10 -19 -3 -26 7 -7 14 -5 23 6 9 11 10 19 3 26
-7 7 -14 5 -23 -6z"/>
</g>
</svg>
